M48
; DRILL file {KiCad 6.0.11+dfsg-1} date Tue Jul 30 17:37:04 2024
; FORMAT={-:-/ absolute / metric / decimal}
; #@! TF.CreationDate,2024-07-30T17:37:04+04:00
; #@! TF.GenerationSoftware,Kicad,Pcbnew,6.0.11+dfsg-1
; #@! TF.FileFunction,Plated,1,2,PTH
FMAT,2
METRIC
; #@! TA.AperFunction,Plated,PTH,ComponentDrill
T4C1.100
%
G90
G05
T4
X28.165Y109.94
X28.165Y65.94
X28.165Y43.94
X28.223Y87.878
X30.705Y112.48
X30.705Y107.4
X30.705Y68.48
X30.705Y63.4
X30.705Y46.48
X30.705Y41.4
X30.762Y90.418
X30.762Y85.338
X115.795Y110.484
X115.795Y88.513
X115.795Y66.415
X115.795Y44.444
X118.335Y113.024
X118.335Y107.944
X118.335Y91.053
X118.335Y85.973
X118.335Y68.955
X118.335Y63.875
X118.335Y46.984
X118.335Y41.904
T0
M30
