%TF.GenerationSoftware,KiCad,Pcbnew,6.0.11+dfsg-1*%
%TF.CreationDate,2024-08-01T17:28:04+04:00*%
%TF.ProjectId,pwm,70776d2e-6b69-4636-9164-5f7063625858,rev?*%
%TF.SameCoordinates,PX14fb180PYa6e49c0*%
%TF.FileFunction,Copper,L2,Bot*%
%TF.FilePolarity,Positive*%
%FSLAX46Y46*%
G04 Gerber Fmt 4.6, Leading zero omitted, Abs format (unit mm)*
G04 Created by KiCad (PCBNEW 6.0.11+dfsg-1) date 2024-08-01 17:28:04*
%MOMM*%
%LPD*%
G01*
G04 APERTURE LIST*
G04 Aperture macros list*
%AMRoundRect*
0 Rectangle with rounded corners*
0 $1 Rounding radius*
0 $2 $3 $4 $5 $6 $7 $8 $9 X,Y pos of 4 corners*
0 Add a 4 corners polygon primitive as box body*
4,1,4,$2,$3,$4,$5,$6,$7,$8,$9,$2,$3,0*
0 Add four circle primitives for the rounded corners*
1,1,$1+$1,$2,$3*
1,1,$1+$1,$4,$5*
1,1,$1+$1,$6,$7*
1,1,$1+$1,$8,$9*
0 Add four rect primitives between the rounded corners*
20,1,$1+$1,$2,$3,$4,$5,0*
20,1,$1+$1,$4,$5,$6,$7,0*
20,1,$1+$1,$6,$7,$8,$9,0*
20,1,$1+$1,$8,$9,$2,$3,0*%
G04 Aperture macros list end*
%TA.AperFunction,Profile*%
%ADD10C,0.100000*%
%TD*%
%TA.AperFunction,Profile*%
%ADD11C,0.120000*%
%TD*%
%TA.AperFunction,ComponentPad*%
%ADD12RoundRect,0.476250X0.523750X-0.476250X0.523750X0.476250X-0.523750X0.476250X-0.523750X-0.476250X0*%
%TD*%
%TA.AperFunction,ComponentPad*%
%ADD13O,2.000000X1.905000*%
%TD*%
%TA.AperFunction,ComponentPad*%
%ADD14RoundRect,0.476250X-0.523750X0.476250X-0.523750X-0.476250X0.523750X-0.476250X0.523750X0.476250X0*%
%TD*%
%TA.AperFunction,ComponentPad*%
%ADD15C,11.000000*%
%TD*%
%TA.AperFunction,ComponentPad*%
%ADD16RoundRect,0.500000X0.500000X-0.500000X0.500000X0.500000X-0.500000X0.500000X-0.500000X-0.500000X0*%
%TD*%
%TA.AperFunction,ComponentPad*%
%ADD17C,2.000000*%
%TD*%
%TA.AperFunction,WasherPad*%
%ADD18C,5.000000*%
%TD*%
%TA.AperFunction,ComponentPad*%
%ADD19RoundRect,0.450000X-0.450000X-0.800000X0.450000X-0.800000X0.450000X0.800000X-0.450000X0.800000X0*%
%TD*%
%TA.AperFunction,ComponentPad*%
%ADD20O,1.800000X2.500000*%
%TD*%
%TA.AperFunction,ComponentPad*%
%ADD21C,2.400000*%
%TD*%
%TA.AperFunction,ComponentPad*%
%ADD22O,2.400000X2.400000*%
%TD*%
%TA.AperFunction,ComponentPad*%
%ADD23C,5.000000*%
%TD*%
%TA.AperFunction,ComponentPad*%
%ADD24C,2.500000*%
%TD*%
%TA.AperFunction,ComponentPad*%
%ADD25R,4.000000X2.000000*%
%TD*%
%TA.AperFunction,ComponentPad*%
%ADD26O,4.000000X2.000000*%
%TD*%
%TA.AperFunction,ViaPad*%
%ADD27C,2.000000*%
%TD*%
%TA.AperFunction,Conductor*%
%ADD28C,1.500000*%
%TD*%
%TA.AperFunction,Conductor*%
%ADD29C,1.270000*%
%TD*%
%TA.AperFunction,Conductor*%
%ADD30C,2.000000*%
%TD*%
G04 APERTURE END LIST*
D10*
X144000000Y145000000D02*
X1000000Y145000000D01*
X0Y144000000D02*
X0Y1000000D01*
X144000000Y145000000D02*
X145000000Y144000000D01*
X1000000Y145000000D02*
X0Y144000000D01*
X145000000Y1000000D02*
X145000000Y144000000D01*
X144000000Y0D02*
X145000000Y1000000D01*
X1000000Y0D02*
X144000000Y0D01*
X0Y1000000D02*
X1000000Y0D01*
D11*
%TO.C,REF\u002A\u002A*%
X137080000Y125630000D02*
G75*
G03*
X137080000Y125630000I-2000000J0D01*
G01*
X87080000Y125630000D02*
G75*
G03*
X87080000Y125630000I-2000000J0D01*
G01*
X10880000Y125630000D02*
G75*
G03*
X10880000Y125630000I-2000000J0D01*
G01*
X60880000Y125630000D02*
G75*
G03*
X60880000Y125630000I-2000000J0D01*
G01*
%TO.C,J2*%
X75250000Y10630000D02*
G75*
G03*
X75250000Y10630000I-2000000J0D01*
G01*
%TO.C,REF\u002A\u002A*%
X105889000Y46984000D02*
G75*
G03*
X105889000Y46984000I-1778000J0D01*
G01*
X105889000Y107944000D02*
G75*
G03*
X105889000Y107944000I-1778000J0D01*
G01*
%TO.C,U1*%
X61750000Y37820000D02*
G75*
G03*
X61750000Y37820000I-1000000J0D01*
G01*
X86750000Y102820000D02*
G75*
G03*
X86750000Y102820000I-1000000J0D01*
G01*
X61750000Y102820000D02*
G75*
G03*
X61750000Y102820000I-1000000J0D01*
G01*
X86750000Y37820000D02*
G75*
G03*
X86750000Y37820000I-1000000J0D01*
G01*
%TO.C,REF\u002A\u002A*%
X44167000Y46476000D02*
G75*
G03*
X44167000Y46476000I-1778000J0D01*
G01*
X44167000Y107436000D02*
G75*
G03*
X44167000Y107436000I-1778000J0D01*
G01*
%TD*%
D12*
%TO.P,Q8,1,G*%
%TO.N,/G8*%
X118335000Y41904000D03*
D13*
%TO.P,Q8,2,D*%
%TO.N,/phase*%
X115795000Y44444000D03*
%TO.P,Q8,3,S*%
%TO.N,/-60V*%
X118335000Y46984000D03*
%TD*%
D12*
%TO.P,Q6,1,G*%
%TO.N,/G6*%
X118335000Y85973000D03*
D13*
%TO.P,Q6,2,D*%
%TO.N,/phase*%
X115795000Y88513000D03*
%TO.P,Q6,3,S*%
%TO.N,/-60V*%
X118335000Y91053000D03*
%TD*%
D14*
%TO.P,Q1,1,G*%
%TO.N,/G1*%
X30705000Y112480000D03*
D13*
%TO.P,Q1,2,D*%
%TO.N,/+60V*%
X28165000Y109940000D03*
%TO.P,Q1,3,S*%
%TO.N,/phase*%
X30705000Y107400000D03*
%TD*%
D15*
%TO.P,,1,Pin_1*%
%TO.N,/-60V*%
X116430000Y7360000D03*
%TD*%
D16*
%TO.P,X3,1,Pin_1*%
%TO.N,/fan-*%
X79600000Y111246000D03*
D17*
%TO.P,X3,2,Pin_2*%
%TO.N,/fan+*%
X79600000Y113786000D03*
%TD*%
D18*
%TO.P,REF\u002A\u002A,*%
%TO.N,*%
X85080000Y125630000D03*
X135080000Y125630000D03*
%TD*%
%TO.P,REF\u002A\u002A,*%
%TO.N,*%
X8880000Y125630000D03*
X58880000Y125630000D03*
%TD*%
D19*
%TO.P,X2,1,Pin_1*%
%TO.N,unconnected-(X2-Pad1)*%
X60550000Y27680000D03*
D20*
%TO.P,X2,2,Pin_2*%
%TO.N,/-24V*%
X63090000Y27680000D03*
%TO.P,X2,3,Pin_3*%
%TO.N,unconnected-(X2-Pad3)*%
X65630000Y27680000D03*
%TO.P,X2,4,Pin_4*%
%TO.N,/+24V*%
X68170000Y27680000D03*
%TD*%
D21*
%TO.P,R1,1*%
%TO.N,/t1+*%
X54200000Y83150000D03*
D22*
%TO.P,R1,2*%
%TO.N,/t1-*%
X54200000Y90770000D03*
%TD*%
D23*
%TO.P,REF\u002A\u002A,*%
%TO.N,*%
X139290000Y34960000D03*
X139290000Y14210000D03*
X139290000Y102210000D03*
X139290000Y81460000D03*
%TD*%
D16*
%TO.P,X4,1,Pin_1*%
%TO.N,/fan-*%
X64360000Y111246000D03*
D17*
%TO.P,X4,2,Pin_2*%
%TO.N,/fan+*%
X64360000Y113786000D03*
%TD*%
D12*
%TO.P,Q7,1,G*%
%TO.N,/G7*%
X118335000Y63875000D03*
D13*
%TO.P,Q7,2,D*%
%TO.N,/phase*%
X115795000Y66415000D03*
%TO.P,Q7,3,S*%
%TO.N,/-60V*%
X118335000Y68955000D03*
%TD*%
D19*
%TO.P,X1,1,Pin_1*%
%TO.N,/-12V*%
X78330000Y27680000D03*
D20*
%TO.P,X1,2,Pin_2*%
%TO.N,unconnected-(X1-Pad2)*%
X80870000Y27680000D03*
%TO.P,X1,3,Pin_3*%
%TO.N,/+12V*%
X83410000Y27680000D03*
%TO.P,X1,4,Pin_4*%
%TO.N,unconnected-(X1-Pad4)*%
X85950000Y27680000D03*
%TD*%
D15*
%TO.P,J2,1,Pin_1*%
%TO.N,/phase*%
X73250000Y10630000D03*
%TD*%
D12*
%TO.P,Q5,1,G*%
%TO.N,/G5*%
X118335000Y107944000D03*
D13*
%TO.P,Q5,2,D*%
%TO.N,/phase*%
X115795000Y110484000D03*
%TO.P,Q5,3,S*%
%TO.N,/-60V*%
X118335000Y113024000D03*
%TD*%
D21*
%TO.P,R2,1*%
%TO.N,/t2+*%
X92300000Y85130000D03*
D22*
%TO.P,R2,2*%
%TO.N,/t2-*%
X92300000Y92750000D03*
%TD*%
D15*
%TO.P,,1,Pin_1*%
%TO.N,/+60V*%
X28800000Y7360000D03*
%TD*%
D14*
%TO.P,Q2,1,G*%
%TO.N,/G2*%
X30762500Y90418000D03*
D13*
%TO.P,Q2,2,D*%
%TO.N,/+60V*%
X28222500Y87878000D03*
%TO.P,Q2,3,S*%
%TO.N,/phase*%
X30762500Y85338000D03*
%TD*%
D24*
%TO.P,U1,*%
%TO.N,*%
X60750000Y37820000D03*
X85750000Y37820000D03*
X85750000Y102820000D03*
X60750000Y102820000D03*
D25*
%TO.P,U1,1A,Q1*%
%TO.N,/G1*%
X61820000Y100070000D03*
D26*
%TO.P,U1,1J,Q5*%
%TO.N,/G5*%
X84680000Y100070000D03*
%TO.P,U1,2A*%
%TO.N,N/C*%
X61820000Y97530000D03*
%TO.P,U1,2J*%
X84680000Y97530000D03*
%TO.P,U1,3A,Q2*%
%TO.N,/G2*%
X61820000Y94990000D03*
%TO.P,U1,3J,-60V*%
%TO.N,/-60V*%
X84680000Y94990000D03*
%TO.P,U1,4A*%
%TO.N,N/C*%
X61820000Y92450000D03*
%TO.P,U1,4J*%
X84680000Y92450000D03*
%TO.P,U1,5A,t1-*%
%TO.N,/t1-*%
X61820000Y89910000D03*
%TO.P,U1,5J,t2-*%
%TO.N,/t2-*%
X84680000Y89910000D03*
%TO.P,U1,6A*%
%TO.N,N/C*%
X61820000Y87370000D03*
%TO.P,U1,6J*%
X84680000Y87370000D03*
%TO.P,U1,7A,t1+*%
%TO.N,/t1+*%
X61820000Y84830000D03*
%TO.P,U1,7J,t2+*%
%TO.N,/t2+*%
X84680000Y84830000D03*
%TO.P,U1,8A*%
%TO.N,N/C*%
X61820000Y82290000D03*
%TO.P,U1,8J*%
X84680000Y82290000D03*
%TO.P,U1,9A*%
X61820000Y79750000D03*
%TO.P,U1,9J,Q6*%
%TO.N,/G6*%
X84680000Y79750000D03*
%TO.P,U1,10A,+60V*%
%TO.N,/+60V*%
X61820000Y77210000D03*
%TO.P,U1,10J*%
%TO.N,N/C*%
X84680000Y77210000D03*
%TO.P,U1,11A*%
X61820000Y74670000D03*
%TO.P,U1,11J*%
X84680000Y74670000D03*
%TO.P,U1,12A,Q3*%
%TO.N,/G3*%
X61820000Y72130000D03*
%TO.P,U1,12J,phase*%
%TO.N,/phase*%
X84680000Y72130000D03*
%TO.P,U1,13A*%
%TO.N,N/C*%
X61820000Y69590000D03*
%TO.P,U1,13J*%
X84680000Y69590000D03*
%TO.P,U1,14A,fan+*%
%TO.N,/fan+*%
X61820000Y67050000D03*
%TO.P,U1,14J,fan-*%
%TO.N,/fan-*%
X84680000Y67050000D03*
%TO.P,U1,15A*%
%TO.N,N/C*%
X61820000Y64510000D03*
%TO.P,U1,15J*%
X84680000Y64510000D03*
%TO.P,U1,16A,-24V*%
%TO.N,/-24V*%
X61820000Y61970000D03*
%TO.P,U1,16J,+24V*%
%TO.N,/+24V*%
X84680000Y61970000D03*
%TO.P,U1,17A*%
%TO.N,N/C*%
X61820000Y59430000D03*
%TO.P,U1,17J*%
X84680000Y59430000D03*
%TO.P,U1,18A*%
X61820000Y56890000D03*
%TO.P,U1,18J,Q7*%
%TO.N,/G7*%
X84680000Y56890000D03*
%TO.P,U1,19A*%
%TO.N,N/C*%
X61820000Y54350000D03*
%TO.P,U1,19J*%
X84680000Y54350000D03*
%TO.P,U1,20A,Q4*%
%TO.N,/G4*%
X61820000Y51810000D03*
%TO.P,U1,20J,-12V*%
%TO.N,/-12V*%
X84680000Y51810000D03*
%TO.P,U1,21A*%
%TO.N,N/C*%
X61820000Y49270000D03*
%TO.P,U1,21J*%
X84680000Y49270000D03*
%TO.P,U1,22A*%
X61820000Y46730000D03*
%TO.P,U1,22J,+12V*%
%TO.N,/+12V*%
X84680000Y46730000D03*
%TO.P,U1,23A*%
%TO.N,N/C*%
X61820000Y44190000D03*
%TO.P,U1,23J*%
X84680000Y44190000D03*
%TO.P,U1,24A*%
X61820000Y41650000D03*
%TO.P,U1,24J,Q8*%
%TO.N,/G8*%
X84680000Y41650000D03*
%TD*%
D23*
%TO.P,REF\u002A\u002A,*%
%TO.N,*%
X5940000Y81460000D03*
X5940000Y34960000D03*
X5940000Y14210000D03*
X5940000Y102210000D03*
%TD*%
D14*
%TO.P,Q4,1,G*%
%TO.N,/G4*%
X30705000Y46480000D03*
D13*
%TO.P,Q4,2,D*%
%TO.N,/+60V*%
X28165000Y43940000D03*
%TO.P,Q4,3,S*%
%TO.N,/phase*%
X30705000Y41400000D03*
%TD*%
D14*
%TO.P,Q3,1,G*%
%TO.N,/G3*%
X30705000Y68480000D03*
D13*
%TO.P,Q3,2,D*%
%TO.N,/+60V*%
X28165000Y65940000D03*
%TO.P,Q3,3,S*%
%TO.N,/phase*%
X30705000Y63400000D03*
%TD*%
D27*
%TO.N,*%
X54200000Y72130000D03*
X54200000Y51810000D03*
X54200000Y97530000D03*
X54200000Y77210000D03*
%TO.N,/+60V*%
X27530000Y77210000D03*
%TO.N,/G2*%
X28800000Y97530000D03*
%TO.N,/G3*%
X28800000Y73400000D03*
%TO.N,/G4*%
X28800000Y51810000D03*
%TO.N,/-60V*%
X118970000Y97530000D03*
X92300000Y97530000D03*
%TO.N,/fan+*%
X69440000Y107690000D03*
X70710000Y114040000D03*
%TO.N,/G5*%
X116430000Y102610000D03*
X92300000Y102610000D03*
%TO.N,/G6*%
X116430000Y78480000D03*
X91030000Y78480000D03*
%TO.N,/G7*%
X91030000Y56890000D03*
X116430000Y56890000D03*
%TO.N,/G8*%
X116430000Y36570000D03*
X91030000Y36570000D03*
%TD*%
D28*
%TO.N,/G1*%
X30705000Y112480000D02*
X30705000Y113750000D01*
X61820000Y100070000D02*
X58010000Y100070000D01*
X58010000Y100070000D02*
X54200000Y103880000D01*
X49120000Y115310000D02*
X32265000Y115310000D01*
X54200000Y110230000D02*
X49120000Y115310000D01*
X54200000Y103880000D02*
X54200000Y110230000D01*
X30705000Y113750000D02*
X32265000Y115310000D01*
D29*
%TO.N,/+60V*%
X27530000Y77210000D02*
X27210000Y77210000D01*
D30*
X24990000Y110230000D02*
X25280000Y109940000D01*
X26420000Y65940000D02*
X26260000Y65780000D01*
D28*
X61820000Y77210000D02*
X54200000Y77210000D01*
D29*
X27530000Y77210000D02*
X27530000Y77470000D01*
D30*
X28165000Y65940000D02*
X26420000Y65940000D01*
X26510000Y43940000D02*
X26260000Y44190000D01*
X28165000Y43940000D02*
X26510000Y43940000D01*
X28165000Y109940000D02*
X25280000Y109940000D01*
X24990000Y87370000D02*
X25498000Y87878000D01*
X28222500Y87878000D02*
X25498000Y87878000D01*
%TO.N,/phase*%
X115795000Y44444000D02*
X112112000Y44444000D01*
D28*
X92300000Y74670000D02*
X97380000Y74670000D01*
X89760000Y72130000D02*
X92300000Y74670000D01*
D30*
X115795000Y88513000D02*
X112239000Y88513000D01*
X32450000Y63400000D02*
X32610000Y63240000D01*
D28*
X84680000Y72130000D02*
X89760000Y72130000D01*
X89760000Y72130000D02*
X92300000Y69590000D01*
X92300000Y69590000D02*
X97380000Y69590000D01*
D30*
X32610000Y107690000D02*
X32320000Y107400000D01*
X30705000Y107400000D02*
X32320000Y107400000D01*
X32610000Y84830000D02*
X32102000Y85338000D01*
X115795000Y66415000D02*
X111731000Y66415000D01*
X30705000Y63400000D02*
X32450000Y63400000D01*
X30705000Y41400000D02*
X32360000Y41400000D01*
X30762500Y85338000D02*
X32102000Y85338000D01*
X115795000Y110484000D02*
X112239000Y110484000D01*
X32360000Y41400000D02*
X32610000Y41650000D01*
D28*
%TO.N,/G2*%
X30762500Y90418000D02*
X30762500Y90487500D01*
X30762500Y90487500D02*
X28800000Y92450000D01*
X61820000Y94990000D02*
X56740000Y94990000D01*
X28800000Y92450000D02*
X28800000Y97530000D01*
X56740000Y94990000D02*
X54200000Y97530000D01*
D29*
%TO.N,/G3*%
X30705000Y68480000D02*
X30705000Y68955000D01*
D28*
X61820000Y72130000D02*
X54200000Y72130000D01*
D29*
X28800000Y70860000D02*
X28800000Y73400000D01*
X30705000Y68955000D02*
X28800000Y70860000D01*
D28*
%TO.N,/G4*%
X61820000Y51810000D02*
X54200000Y51810000D01*
X28800000Y48000000D02*
X28800000Y51810000D01*
X30705000Y46480000D02*
X30320000Y46480000D01*
X30320000Y46480000D02*
X28800000Y48000000D01*
%TO.N,/-60V*%
X91030000Y97530000D02*
X92300000Y97530000D01*
X88490000Y94990000D02*
X91030000Y97530000D01*
D30*
X118335000Y46984000D02*
X120494000Y46984000D01*
X118335000Y113024000D02*
X121510000Y113024000D01*
X118970000Y97530000D02*
X120240000Y97530000D01*
X120494000Y46984000D02*
X120621000Y47111000D01*
X118335000Y91053000D02*
X120875000Y91053000D01*
D28*
X84680000Y94990000D02*
X88490000Y94990000D01*
D30*
X118335000Y68955000D02*
X121256000Y68955000D01*
D29*
%TO.N,/fan-*%
X71726000Y111246000D02*
X69694000Y111246000D01*
X64360000Y111246000D02*
X69694000Y111246000D01*
X75536000Y111246000D02*
X73504000Y109214000D01*
D28*
X84680000Y67050000D02*
X77060000Y67050000D01*
D29*
X79600000Y111246000D02*
X75536000Y111246000D01*
X73504000Y109468000D02*
X71726000Y111246000D01*
D28*
X73504000Y70606000D02*
X73504000Y109214000D01*
X77060000Y67050000D02*
X73504000Y70606000D01*
D29*
X73504000Y109214000D02*
X73504000Y109468000D01*
D28*
%TO.N,/fan+*%
X69440000Y70860000D02*
X69440000Y103880000D01*
X69440000Y107690000D02*
X69440000Y103880000D01*
X65630000Y67050000D02*
X69440000Y70860000D01*
X61820000Y67050000D02*
X65630000Y67050000D01*
X64360000Y113786000D02*
X79600000Y113786000D01*
%TO.N,/G5*%
X116430000Y102610000D02*
X116430000Y106039000D01*
X116430000Y106039000D02*
X118335000Y107944000D01*
X88490000Y100070000D02*
X91030000Y102610000D01*
X91030000Y102610000D02*
X92300000Y102610000D01*
X84680000Y100070000D02*
X88490000Y100070000D01*
%TO.N,/G6*%
X84680000Y79750000D02*
X89760000Y79750000D01*
X89760000Y79750000D02*
X91030000Y78480000D01*
X116430000Y78480000D02*
X116430000Y84068000D01*
X116430000Y84068000D02*
X118335000Y85973000D01*
%TO.N,/G7*%
X116430000Y56890000D02*
X116430000Y61970000D01*
X84680000Y56890000D02*
X91030000Y56890000D01*
X116430000Y61970000D02*
X118335000Y63875000D01*
%TO.N,/G8*%
X116430000Y39999000D02*
X118335000Y41904000D01*
X89760000Y41650000D02*
X91030000Y40380000D01*
X91030000Y36570000D02*
X91030000Y40380000D01*
X116430000Y36570000D02*
X116430000Y39999000D01*
X84680000Y41650000D02*
X89760000Y41650000D01*
%TO.N,/+12V*%
X82140000Y46730000D02*
X84680000Y46730000D01*
X80870000Y35300000D02*
X80870000Y45460000D01*
X83410000Y32760000D02*
X80870000Y35300000D01*
X83410000Y27680000D02*
X83410000Y32760000D01*
X80870000Y45460000D02*
X82140000Y46730000D01*
%TO.N,/-12V*%
X77060000Y48000000D02*
X77060000Y28950000D01*
X84680000Y51810000D02*
X80870000Y51810000D01*
X80870000Y51810000D02*
X77060000Y48000000D01*
X77060000Y28950000D02*
X78330000Y27680000D01*
%TO.N,/+24V*%
X71980000Y56890000D02*
X71980000Y31490000D01*
X77060000Y61970000D02*
X71980000Y56890000D01*
X71980000Y31490000D02*
X68170000Y27680000D01*
X84680000Y61970000D02*
X77060000Y61970000D01*
%TO.N,/-24V*%
X63090000Y27680000D02*
X63090000Y31490000D01*
X63090000Y31490000D02*
X68170000Y36570000D01*
X68170000Y36570000D02*
X68170000Y58160000D01*
X64360000Y61970000D02*
X61820000Y61970000D01*
X68170000Y58160000D02*
X64360000Y61970000D01*
%TO.N,/t1+*%
X61820000Y84830000D02*
X55880000Y84830000D01*
X55880000Y84830000D02*
X54200000Y83150000D01*
%TO.N,/t2+*%
X92000000Y84830000D02*
X92300000Y85130000D01*
X84680000Y84830000D02*
X92000000Y84830000D01*
%TO.N,/t1-*%
X54200000Y90770000D02*
X54610000Y90770000D01*
X54610000Y90770000D02*
X55470000Y89910000D01*
X55470000Y89910000D02*
X56740000Y89910000D01*
X56740000Y89910000D02*
X61820000Y89910000D01*
%TO.N,/t2-*%
X84680000Y89910000D02*
X89460000Y89910000D01*
X89460000Y89910000D02*
X92300000Y92750000D01*
%TD*%
%TA.AperFunction,Conductor*%
%TO.N,/phase*%
G36*
X108892749Y116579880D02*
G01*
X109320284Y116561213D01*
X109331233Y116560255D01*
X109752787Y116504757D01*
X109763613Y116502848D01*
X110178726Y116410819D01*
X110189343Y116407974D01*
X110376029Y116349112D01*
X110594858Y116280116D01*
X110605171Y116276363D01*
X110998024Y116113638D01*
X111007968Y116109000D01*
X111385117Y115912669D01*
X111394637Y115907173D01*
X111753237Y115678719D01*
X111762241Y115672415D01*
X112099579Y115413567D01*
X112107999Y115406501D01*
X112421478Y115119251D01*
X112429251Y115111478D01*
X112716501Y114797999D01*
X112723567Y114789579D01*
X112982415Y114452241D01*
X112988719Y114443237D01*
X113217173Y114084637D01*
X113222669Y114075117D01*
X113418996Y113697977D01*
X113423642Y113688015D01*
X113586360Y113295179D01*
X113590119Y113284850D01*
X113717974Y112879343D01*
X113720819Y112868726D01*
X113812848Y112453613D01*
X113814757Y112442787D01*
X113870255Y112021233D01*
X113871213Y112010283D01*
X113889880Y111582748D01*
X113890000Y111577252D01*
X113890000Y107126812D01*
X113878426Y107074062D01*
X113862700Y107039949D01*
X113861540Y107036346D01*
X113861537Y107036339D01*
X113834957Y106953799D01*
X113832776Y106947588D01*
X113800565Y106863015D01*
X113799653Y106859342D01*
X113784199Y106797131D01*
X113781851Y106788889D01*
X113761043Y106724272D01*
X113754063Y106688192D01*
X113743856Y106635437D01*
X113742437Y106629008D01*
X113720614Y106541155D01*
X113720150Y106537399D01*
X113720148Y106537391D01*
X113712283Y106473786D01*
X113710943Y106465320D01*
X113698047Y106398668D01*
X113697779Y106394878D01*
X113697778Y106394873D01*
X113691656Y106308406D01*
X113691019Y106301850D01*
X113679910Y106212021D01*
X113679900Y106208230D01*
X113679900Y106208229D01*
X113679729Y106142876D01*
X113679653Y106138890D01*
X113679500Y106136721D01*
X113679500Y106055370D01*
X113679042Y105880380D01*
X113679357Y105877714D01*
X113679500Y105872768D01*
X113679500Y103839085D01*
X113667788Y103786036D01*
X113635478Y103716430D01*
X113634338Y103712983D01*
X113532894Y103406244D01*
X113526828Y103387903D01*
X113526092Y103384348D01*
X113526091Y103384345D01*
X113460422Y103067243D01*
X113456658Y103049065D01*
X113425898Y102704408D01*
X113434956Y102358499D01*
X113483712Y102015924D01*
X113571519Y101681223D01*
X113697214Y101358833D01*
X113859130Y101053026D01*
X113867841Y101040352D01*
X113890000Y100968986D01*
X113890000Y85155812D01*
X113878426Y85103062D01*
X113862700Y85068949D01*
X113861540Y85065346D01*
X113861537Y85065339D01*
X113834957Y84982799D01*
X113832776Y84976588D01*
X113800565Y84892015D01*
X113787411Y84839061D01*
X113784199Y84826131D01*
X113781851Y84817889D01*
X113761043Y84753272D01*
X113760322Y84749545D01*
X113743856Y84664437D01*
X113742437Y84658008D01*
X113720614Y84570155D01*
X113720150Y84566399D01*
X113720148Y84566391D01*
X113712283Y84502786D01*
X113710943Y84494320D01*
X113698047Y84427668D01*
X113697779Y84423878D01*
X113697778Y84423873D01*
X113691656Y84337406D01*
X113691019Y84330850D01*
X113679910Y84241021D01*
X113679900Y84237230D01*
X113679900Y84237229D01*
X113679729Y84171876D01*
X113679653Y84167890D01*
X113679500Y84165721D01*
X113679500Y84084370D01*
X113679042Y83909380D01*
X113679357Y83906714D01*
X113679500Y83901768D01*
X113679500Y79709085D01*
X113667788Y79656036D01*
X113635478Y79586430D01*
X113634338Y79582983D01*
X113616775Y79529876D01*
X113526828Y79257903D01*
X113526092Y79254348D01*
X113526091Y79254345D01*
X113457955Y78925328D01*
X113456658Y78919065D01*
X113425898Y78574408D01*
X113434956Y78228499D01*
X113483712Y77885924D01*
X113571519Y77551223D01*
X113697214Y77228833D01*
X113859130Y76923026D01*
X113867841Y76910352D01*
X113890000Y76838986D01*
X113890000Y63057812D01*
X113878426Y63005062D01*
X113862700Y62970949D01*
X113861540Y62967346D01*
X113861537Y62967339D01*
X113834957Y62884799D01*
X113832776Y62878588D01*
X113800565Y62794015D01*
X113799653Y62790342D01*
X113784199Y62728131D01*
X113781851Y62719889D01*
X113761043Y62655272D01*
X113760322Y62651545D01*
X113743856Y62566437D01*
X113742437Y62560008D01*
X113720614Y62472155D01*
X113720150Y62468399D01*
X113720148Y62468391D01*
X113712283Y62404786D01*
X113710943Y62396320D01*
X113698047Y62329668D01*
X113697779Y62325878D01*
X113697778Y62325873D01*
X113691656Y62239406D01*
X113691019Y62232850D01*
X113679910Y62143021D01*
X113679900Y62139230D01*
X113679900Y62139229D01*
X113679729Y62073876D01*
X113679653Y62069890D01*
X113679500Y62067721D01*
X113679500Y61986370D01*
X113679042Y61811380D01*
X113679357Y61808714D01*
X113679500Y61803768D01*
X113679500Y58119085D01*
X113667788Y58066036D01*
X113635478Y57996430D01*
X113634338Y57992983D01*
X113566809Y57788793D01*
X113526828Y57667903D01*
X113456658Y57329065D01*
X113425898Y56984408D01*
X113434956Y56638499D01*
X113483712Y56295924D01*
X113571519Y55961223D01*
X113697214Y55638833D01*
X113859130Y55333026D01*
X113867841Y55320352D01*
X113890000Y55248986D01*
X113890000Y41086812D01*
X113878426Y41034062D01*
X113862700Y40999949D01*
X113861540Y40996346D01*
X113861537Y40996339D01*
X113834957Y40913799D01*
X113832776Y40907588D01*
X113800565Y40823015D01*
X113787411Y40770061D01*
X113784199Y40757131D01*
X113781851Y40748889D01*
X113761043Y40684272D01*
X113748106Y40617402D01*
X113743856Y40595437D01*
X113742437Y40589008D01*
X113720614Y40501155D01*
X113720150Y40497399D01*
X113720148Y40497391D01*
X113712283Y40433786D01*
X113710943Y40425320D01*
X113698047Y40358668D01*
X113697779Y40354878D01*
X113697778Y40354873D01*
X113691656Y40268406D01*
X113691019Y40261850D01*
X113679910Y40172021D01*
X113679900Y40168230D01*
X113679900Y40168229D01*
X113679729Y40102876D01*
X113679653Y40098890D01*
X113679500Y40096721D01*
X113679500Y40015370D01*
X113679042Y39840380D01*
X113679357Y39837714D01*
X113679500Y39832768D01*
X113679500Y37799085D01*
X113667788Y37746036D01*
X113635478Y37676430D01*
X113526828Y37347903D01*
X113456658Y37009065D01*
X113425898Y36664408D01*
X113425993Y36660778D01*
X113425993Y36660777D01*
X113431932Y36433972D01*
X113434956Y36318499D01*
X113483712Y35975924D01*
X113571519Y35641223D01*
X113697214Y35318833D01*
X113859130Y35013026D01*
X113867841Y35000352D01*
X113890000Y34928986D01*
X113890000Y27213816D01*
X113889880Y27208320D01*
X113871213Y26780785D01*
X113870255Y26769835D01*
X113814757Y26348281D01*
X113812848Y26337455D01*
X113720819Y25922342D01*
X113717974Y25911725D01*
X113649749Y25695340D01*
X113590119Y25506218D01*
X113586360Y25495889D01*
X113423642Y25103053D01*
X113419000Y25093100D01*
X113288531Y24842471D01*
X113222669Y24715951D01*
X113217173Y24706431D01*
X112988719Y24347831D01*
X112982415Y24338827D01*
X112772654Y24065460D01*
X112723567Y24001489D01*
X112716501Y23993069D01*
X112427385Y23677554D01*
X112423583Y23673583D01*
X92496417Y3746417D01*
X92492446Y3742615D01*
X92176931Y3453499D01*
X92168511Y3446433D01*
X91831173Y3187585D01*
X91822169Y3181281D01*
X91463569Y2952827D01*
X91454050Y2947332D01*
X91076900Y2751000D01*
X91066956Y2746362D01*
X90674103Y2583637D01*
X90663790Y2579884D01*
X90444961Y2510888D01*
X90258275Y2452026D01*
X90247658Y2449181D01*
X89832545Y2357152D01*
X89821718Y2355243D01*
X89417127Y2301978D01*
X89400165Y2299745D01*
X89389216Y2298787D01*
X89104192Y2286342D01*
X88961680Y2280120D01*
X88956184Y2280000D01*
X53908275Y2280000D01*
X53902368Y2280139D01*
X53442955Y2301701D01*
X53431193Y2302807D01*
X52978728Y2366888D01*
X52967121Y2369091D01*
X52522649Y2475268D01*
X52511301Y2478549D01*
X52078731Y2625884D01*
X52067743Y2630211D01*
X51650862Y2817418D01*
X51640338Y2822750D01*
X51410964Y2952827D01*
X51242823Y3048179D01*
X51232831Y3054482D01*
X50858179Y3316146D01*
X50848821Y3323358D01*
X50500337Y3618951D01*
X50491696Y3627006D01*
X50170348Y3956067D01*
X50166320Y3960390D01*
X47773214Y6652635D01*
X44188068Y10685923D01*
X69245065Y10685923D01*
X69258722Y10294843D01*
X69310477Y9906962D01*
X69399834Y9525983D01*
X69400823Y9523077D01*
X69400825Y9523071D01*
X69524950Y9158457D01*
X69524955Y9158445D01*
X69525943Y9155542D01*
X69687598Y8799174D01*
X69883258Y8460283D01*
X69885047Y8457784D01*
X69885049Y8457781D01*
X69982831Y8321201D01*
X70111053Y8142101D01*
X70113080Y8139786D01*
X70113082Y8139783D01*
X70366778Y7849988D01*
X70368810Y7847667D01*
X70654069Y7579792D01*
X70964107Y7341031D01*
X70966710Y7339404D01*
X70966715Y7339401D01*
X71017604Y7307602D01*
X71295964Y7133663D01*
X71646472Y6959669D01*
X72012287Y6820710D01*
X72389915Y6718110D01*
X72392958Y6717595D01*
X72392964Y6717594D01*
X72772713Y6653364D01*
X72772720Y6653363D01*
X72775754Y6652850D01*
X72778825Y6652635D01*
X72778827Y6652635D01*
X73163053Y6625767D01*
X73163061Y6625767D01*
X73166119Y6625553D01*
X73419704Y6632637D01*
X73554211Y6636394D01*
X73554214Y6636394D01*
X73557285Y6636480D01*
X73560338Y6636866D01*
X73560342Y6636866D01*
X73746145Y6660338D01*
X73945517Y6685525D01*
X73948521Y6686207D01*
X73948524Y6686208D01*
X74324115Y6771540D01*
X74324121Y6771542D01*
X74327111Y6772221D01*
X74472875Y6820710D01*
X74695500Y6894767D01*
X74695506Y6894769D01*
X74698424Y6895740D01*
X74701234Y6896991D01*
X75053111Y7053657D01*
X75053117Y7053660D01*
X75055911Y7054904D01*
X75058580Y7056420D01*
X75393492Y7246676D01*
X75393498Y7246680D01*
X75396160Y7248192D01*
X75715924Y7473761D01*
X76012150Y7729456D01*
X76014271Y7731683D01*
X76014277Y7731689D01*
X76279894Y8010615D01*
X76282011Y8012838D01*
X76381192Y8139783D01*
X76521021Y8318756D01*
X76521023Y8318759D01*
X76522931Y8321201D01*
X76524587Y8323811D01*
X76524593Y8323819D01*
X76730957Y8648997D01*
X76730959Y8649000D01*
X76732610Y8651602D01*
X76909046Y9000888D01*
X77050557Y9365723D01*
X77155790Y9742626D01*
X77223742Y10128000D01*
X77236580Y10294843D01*
X77253613Y10516211D01*
X77253613Y10516222D01*
X77253763Y10518165D01*
X77255325Y10630000D01*
X77236209Y11020851D01*
X77179044Y11407972D01*
X77084376Y11787666D01*
X76953107Y12156311D01*
X76786492Y12510386D01*
X76757167Y12559580D01*
X76587700Y12843862D01*
X76586120Y12846513D01*
X76353905Y13161483D01*
X76092061Y13452289D01*
X75803090Y13716156D01*
X75489749Y13950565D01*
X75436075Y13983071D01*
X75157658Y14151687D01*
X75157649Y14151692D01*
X75155030Y14153278D01*
X74802126Y14322362D01*
X74799237Y14323414D01*
X74799231Y14323416D01*
X74437306Y14455145D01*
X74437303Y14455146D01*
X74434407Y14456200D01*
X74058576Y14552697D01*
X74058366Y14552751D01*
X74058363Y14552752D01*
X74055382Y14553517D01*
X73668670Y14613383D01*
X73665613Y14613554D01*
X73665612Y14613554D01*
X73635120Y14615259D01*
X73277962Y14635227D01*
X73274883Y14635098D01*
X73274880Y14635098D01*
X73018770Y14624364D01*
X72886987Y14618841D01*
X72883943Y14618413D01*
X72883941Y14618413D01*
X72849368Y14613554D01*
X72499477Y14564380D01*
X72119131Y14472364D01*
X71749579Y14343673D01*
X71746781Y14342380D01*
X71397146Y14180826D01*
X71397136Y14180821D01*
X71394349Y14179533D01*
X71285829Y14115865D01*
X71059486Y13983071D01*
X71059481Y13983068D01*
X71056831Y13981513D01*
X70933650Y13892017D01*
X70742730Y13753306D01*
X70742721Y13753299D01*
X70740248Y13751502D01*
X70737958Y13749469D01*
X70737952Y13749464D01*
X70449924Y13493740D01*
X70447621Y13491695D01*
X70181743Y13204573D01*
X69945152Y12892876D01*
X69740107Y12559580D01*
X69568564Y12207865D01*
X69567493Y12204984D01*
X69567490Y12204978D01*
X69482711Y11977013D01*
X69432162Y11841090D01*
X69332201Y11462754D01*
X69269637Y11076469D01*
X69245065Y10685923D01*
X44188068Y10685923D01*
X42897646Y12137648D01*
X32604830Y23717066D01*
X32601146Y23721406D01*
X32560431Y23771629D01*
X32320652Y24067399D01*
X32313870Y24076588D01*
X32067504Y24444227D01*
X32061574Y24454008D01*
X31849575Y24842471D01*
X31844556Y24852752D01*
X31668663Y25258848D01*
X31664598Y25269542D01*
X31526268Y25689911D01*
X31523199Y25700891D01*
X31423562Y26132111D01*
X31421498Y26143352D01*
X31361389Y26581793D01*
X31360351Y26593187D01*
X31351826Y26780785D01*
X31340130Y27038137D01*
X31340000Y27043856D01*
X31340000Y43407352D01*
X31360002Y43475473D01*
X31413658Y43521966D01*
X31447267Y43531952D01*
X31753226Y43577951D01*
X31757086Y43579047D01*
X31757091Y43579048D01*
X31908088Y43621919D01*
X32057208Y43664256D01*
X32347760Y43788487D01*
X32620171Y43948629D01*
X32656340Y43976634D01*
X32866861Y44139637D01*
X32866865Y44139640D01*
X32870026Y44142088D01*
X33061276Y44333672D01*
X33090438Y44362885D01*
X33093274Y44365726D01*
X33105793Y44381953D01*
X33283842Y44612737D01*
X33283843Y44612738D01*
X33286296Y44615918D01*
X33309620Y44655751D01*
X33443934Y44885143D01*
X33445963Y44888608D01*
X33447531Y44892293D01*
X33447535Y44892301D01*
X33560861Y45158636D01*
X33569686Y45179376D01*
X33650660Y45466489D01*
X33654370Y45479642D01*
X33654371Y45479647D01*
X33655460Y45483508D01*
X33701895Y45796074D01*
X33703368Y45831207D01*
X33705444Y45880759D01*
X33705500Y45882089D01*
X33705499Y46489206D01*
X38605667Y46489206D01*
X38605817Y46486025D01*
X38622880Y46124202D01*
X38623700Y46106809D01*
X38680285Y45728192D01*
X38774842Y45357231D01*
X38906402Y44997725D01*
X39073620Y44653354D01*
X39229787Y44400500D01*
X39232049Y44396837D01*
X39232907Y44395426D01*
X39250717Y44365726D01*
X39262906Y44345400D01*
X39264856Y44342799D01*
X39265974Y44341134D01*
X39271055Y44333680D01*
X39274782Y44327645D01*
X39276733Y44325102D01*
X39276734Y44325101D01*
X39335765Y44248171D01*
X39336624Y44247038D01*
X39494727Y44036081D01*
X39496926Y44033702D01*
X39496927Y44033701D01*
X39573298Y43951084D01*
X39757116Y43752231D01*
X39795953Y43718052D01*
X39955147Y43577951D01*
X40047293Y43496856D01*
X40049935Y43494975D01*
X40049940Y43494971D01*
X40287962Y43325505D01*
X40362183Y43272661D01*
X40364999Y43271064D01*
X40365003Y43271062D01*
X40484977Y43203046D01*
X40698450Y43082023D01*
X40701414Y43080725D01*
X40701418Y43080723D01*
X40726420Y43069774D01*
X41052533Y42926960D01*
X41055616Y42925973D01*
X41055619Y42925972D01*
X41107165Y42909472D01*
X41420679Y42809115D01*
X41609833Y42769426D01*
X41795808Y42730404D01*
X41795812Y42730403D01*
X41798988Y42729737D01*
X42183453Y42689668D01*
X42185879Y42689604D01*
X42185886Y42689604D01*
X42187477Y42689563D01*
X42189868Y42689500D01*
X42476620Y42689500D01*
X42478229Y42689583D01*
X42478232Y42689583D01*
X42535810Y42692550D01*
X42766035Y42704414D01*
X43010674Y42742505D01*
X43144771Y42763384D01*
X43144775Y42763385D01*
X43147981Y42763884D01*
X43314524Y42807731D01*
X43314584Y42807501D01*
X43315383Y42807903D01*
X43317085Y42808243D01*
X43320134Y42809181D01*
X43321414Y42809505D01*
X43323237Y42810025D01*
X43521790Y42862300D01*
X43646956Y42909472D01*
X43654343Y42911997D01*
X43679942Y42919872D01*
X43679945Y42919873D01*
X43682984Y42920808D01*
X43685912Y42922045D01*
X43685918Y42922047D01*
X43729907Y42940629D01*
X43734502Y42942465D01*
X43880465Y42997474D01*
X43880472Y42997477D01*
X43883502Y42998619D01*
X43969128Y43041403D01*
X43976410Y43044756D01*
X44032688Y43068529D01*
X44032697Y43068533D01*
X44035634Y43069774D01*
X44086864Y43097822D01*
X44135208Y43124289D01*
X44139397Y43126482D01*
X44226396Y43169953D01*
X44226395Y43169953D01*
X44229286Y43171397D01*
X44275584Y43200835D01*
X44282681Y43205028D01*
X44285448Y43206543D01*
X44371425Y43253614D01*
X44528259Y43361403D01*
X44531967Y43363856D01*
X44555478Y43378805D01*
X44564744Y43386135D01*
X44571515Y43391132D01*
X44686919Y43470447D01*
X44689358Y43472515D01*
X44689364Y43472520D01*
X44976445Y43715982D01*
X44976453Y43715990D01*
X44978885Y43718052D01*
X44981093Y43720347D01*
X44981101Y43720354D01*
X45114963Y43859458D01*
X45244335Y43993895D01*
X45249785Y44000845D01*
X45299413Y44064139D01*
X45480550Y44295151D01*
X45539612Y44388577D01*
X45630237Y44531932D01*
X45685112Y44618736D01*
X45686532Y44621584D01*
X45686537Y44621593D01*
X45854506Y44958489D01*
X45855926Y44961337D01*
X45991244Y45319446D01*
X45992891Y45325633D01*
X46040809Y45505725D01*
X46089681Y45689396D01*
X46096400Y45731340D01*
X46149722Y46064249D01*
X46150227Y46067400D01*
X46152500Y46106809D01*
X46172166Y46447894D01*
X46172264Y46449587D01*
X46172356Y46476000D01*
X46167481Y46572249D01*
X46153149Y46855159D01*
X46153148Y46855164D01*
X46152988Y46858332D01*
X46105063Y47171526D01*
X46095566Y47233589D01*
X46095564Y47233598D01*
X46095082Y47236749D01*
X46060756Y47369479D01*
X46000028Y47604298D01*
X46000025Y47604306D01*
X45999231Y47607378D01*
X45991310Y47628793D01*
X45932266Y47788406D01*
X45866416Y47966422D01*
X45865017Y47969278D01*
X45699399Y48307348D01*
X45699396Y48307354D01*
X45697998Y48310207D01*
X45495700Y48635213D01*
X45368475Y48799823D01*
X45263546Y48935586D01*
X45263541Y48935591D01*
X45261594Y48938111D01*
X44998076Y49215800D01*
X44707846Y49465438D01*
X44695255Y49474222D01*
X44396486Y49682645D01*
X44393873Y49684468D01*
X44059374Y49870648D01*
X44056454Y49871906D01*
X44056449Y49871908D01*
X43710706Y50020808D01*
X43710696Y50020812D01*
X43707772Y50022071D01*
X43342668Y50137188D01*
X43042033Y50199447D01*
X42970925Y50214173D01*
X42970922Y50214173D01*
X42967800Y50214820D01*
X42673909Y50245191D01*
X42590162Y50253845D01*
X42590159Y50253845D01*
X42587006Y50254171D01*
X42583840Y50254177D01*
X42583831Y50254177D01*
X42394879Y50254506D01*
X42204184Y50254839D01*
X42014326Y50235889D01*
X41826428Y50217134D01*
X41826422Y50217133D01*
X41823255Y50216817D01*
X41694615Y50190645D01*
X41451243Y50141131D01*
X41451239Y50141130D01*
X41448118Y50140495D01*
X41445076Y50139548D01*
X41445070Y50139546D01*
X41293881Y50092455D01*
X41082614Y50026653D01*
X41079686Y50025404D01*
X40733416Y49877708D01*
X40733412Y49877706D01*
X40730486Y49876458D01*
X40727707Y49874924D01*
X40727701Y49874921D01*
X40538460Y49770454D01*
X40395339Y49691447D01*
X40392718Y49689632D01*
X40392713Y49689629D01*
X40385260Y49684468D01*
X40080604Y49473514D01*
X39789503Y49224891D01*
X39787303Y49222589D01*
X39787300Y49222586D01*
X39740357Y49173463D01*
X39525018Y48948123D01*
X39523061Y48945609D01*
X39523060Y48945608D01*
X39409570Y48799823D01*
X39289856Y48646044D01*
X39288160Y48643340D01*
X39288157Y48643336D01*
X39281362Y48632504D01*
X39086425Y48321747D01*
X38916808Y47978552D01*
X38782740Y47619973D01*
X38685596Y47249681D01*
X38685103Y47246532D01*
X38685101Y47246523D01*
X38658483Y47076538D01*
X38626370Y46871468D01*
X38626199Y46868302D01*
X38626198Y46868297D01*
X38610508Y46578586D01*
X38605667Y46489206D01*
X33705499Y46489206D01*
X33705499Y47077910D01*
X33701529Y47168242D01*
X33654549Y47480726D01*
X33568244Y47784708D01*
X33444013Y48075260D01*
X33283871Y48347671D01*
X33281416Y48350842D01*
X33092863Y48594361D01*
X33092860Y48594365D01*
X33090412Y48597526D01*
X32882996Y48804580D01*
X32869615Y48817938D01*
X32866774Y48820774D01*
X32671280Y48971597D01*
X32619763Y49011342D01*
X32619762Y49011343D01*
X32616582Y49013796D01*
X32613123Y49015822D01*
X32613119Y49015824D01*
X32432690Y49121470D01*
X32343892Y49173463D01*
X32340207Y49175031D01*
X32340199Y49175035D01*
X32123203Y49267367D01*
X32053124Y49297186D01*
X31876565Y49346981D01*
X31752858Y49381870D01*
X31752853Y49381871D01*
X31748992Y49382960D01*
X31657985Y49396480D01*
X31593543Y49426275D01*
X31555439Y49486180D01*
X31550500Y49521112D01*
X31550500Y50572538D01*
X31559489Y50615936D01*
X31558390Y50616338D01*
X31676057Y50937878D01*
X31676060Y50937888D01*
X31677305Y50941290D01*
X31678150Y50944812D01*
X31678153Y50944820D01*
X31757237Y51274228D01*
X31757238Y51274232D01*
X31758084Y51277757D01*
X31799654Y51621278D01*
X31805585Y51810000D01*
X31805424Y51812796D01*
X31785875Y52151833D01*
X31785874Y52151838D01*
X31785666Y52155453D01*
X31726174Y52496328D01*
X31627897Y52828106D01*
X31577768Y52945633D01*
X31493562Y53143051D01*
X31493560Y53143054D01*
X31492138Y53146389D01*
X31356552Y53384097D01*
X31340000Y53446524D01*
X31340000Y65407352D01*
X31360002Y65475473D01*
X31413658Y65521966D01*
X31447267Y65531952D01*
X31753226Y65577951D01*
X31757086Y65579047D01*
X31757091Y65579048D01*
X31991614Y65645633D01*
X32057208Y65664256D01*
X32347760Y65788487D01*
X32620171Y65948629D01*
X32623342Y65951084D01*
X32866861Y66139637D01*
X32866865Y66139640D01*
X32870026Y66142088D01*
X33093274Y66365726D01*
X33286296Y66615918D01*
X33445963Y66888608D01*
X33447531Y66892293D01*
X33447535Y66892301D01*
X33568114Y67175682D01*
X33569686Y67179376D01*
X33655460Y67483508D01*
X33701895Y67796074D01*
X33705500Y67882089D01*
X33705499Y69077910D01*
X33701529Y69168242D01*
X33654549Y69480726D01*
X33568244Y69784708D01*
X33444013Y70075260D01*
X33283871Y70347671D01*
X33224044Y70424939D01*
X33092863Y70594361D01*
X33092860Y70594365D01*
X33090412Y70597526D01*
X32909503Y70778120D01*
X32869615Y70817938D01*
X32866774Y70820774D01*
X32696484Y70952152D01*
X32619763Y71011342D01*
X32619762Y71011343D01*
X32616582Y71013796D01*
X32613123Y71015822D01*
X32613119Y71015824D01*
X32347357Y71171434D01*
X32343892Y71173463D01*
X32340207Y71175031D01*
X32340199Y71175035D01*
X32139749Y71260327D01*
X32099987Y71287173D01*
X31496416Y71890744D01*
X31462390Y71953056D01*
X31467455Y72023871D01*
X31472941Y72036443D01*
X31558390Y72206338D01*
X31655324Y72471223D01*
X31676057Y72527878D01*
X31676060Y72527888D01*
X31677305Y72531290D01*
X31678150Y72534812D01*
X31678153Y72534820D01*
X31757237Y72864228D01*
X31757238Y72864232D01*
X31758084Y72867757D01*
X31799654Y73211278D01*
X31799993Y73222048D01*
X31805497Y73397203D01*
X31805585Y73400000D01*
X31802845Y73447518D01*
X31785875Y73741833D01*
X31785874Y73741838D01*
X31785666Y73745453D01*
X31726174Y74086328D01*
X31716903Y74117629D01*
X31685814Y74222582D01*
X31627897Y74418106D01*
X31590224Y74506430D01*
X31493562Y74733051D01*
X31493560Y74733054D01*
X31492138Y74736389D01*
X31356552Y74974097D01*
X31340000Y75036524D01*
X31340000Y87341433D01*
X31360002Y87409554D01*
X31413658Y87456047D01*
X31460462Y87467311D01*
X31498242Y87468971D01*
X31810726Y87515951D01*
X31814586Y87517047D01*
X31814591Y87517048D01*
X32016946Y87574500D01*
X32114708Y87602256D01*
X32405260Y87726487D01*
X32677671Y87886629D01*
X32706277Y87908778D01*
X32924361Y88077637D01*
X32924365Y88077640D01*
X32927526Y88080088D01*
X33150774Y88303726D01*
X33165237Y88322473D01*
X33341342Y88550737D01*
X33341343Y88550738D01*
X33343796Y88553918D01*
X33503463Y88826608D01*
X33505031Y88830293D01*
X33505035Y88830301D01*
X33625614Y89113682D01*
X33627186Y89117376D01*
X33712960Y89421508D01*
X33759395Y89734074D01*
X33763000Y89820089D01*
X33762999Y91015910D01*
X33759029Y91106242D01*
X33712049Y91418726D01*
X33625744Y91722708D01*
X33501513Y92013260D01*
X33341371Y92285671D01*
X33327276Y92303875D01*
X33150363Y92532361D01*
X33150360Y92532365D01*
X33147912Y92535526D01*
X32924274Y92758774D01*
X32674082Y92951796D01*
X32670623Y92953822D01*
X32670619Y92953824D01*
X32404857Y93109434D01*
X32401392Y93111463D01*
X32397707Y93113031D01*
X32397699Y93113035D01*
X32114318Y93233614D01*
X32110624Y93235186D01*
X31855326Y93307187D01*
X31800433Y93339361D01*
X31587405Y93552389D01*
X31553379Y93614701D01*
X31550500Y93641484D01*
X31550500Y96292538D01*
X31559489Y96335936D01*
X31558390Y96336338D01*
X31676057Y96657878D01*
X31676060Y96657888D01*
X31677305Y96661290D01*
X31678150Y96664812D01*
X31678153Y96664820D01*
X31757237Y96994228D01*
X31757238Y96994232D01*
X31758084Y96997757D01*
X31799654Y97341278D01*
X31805585Y97530000D01*
X31805424Y97532796D01*
X31785875Y97871833D01*
X31785874Y97871838D01*
X31785666Y97875453D01*
X31726174Y98216328D01*
X31627897Y98548106D01*
X31590224Y98636430D01*
X31493562Y98863051D01*
X31493560Y98863054D01*
X31492138Y98866389D01*
X31356552Y99104097D01*
X31340000Y99166524D01*
X31340000Y107449206D01*
X38605667Y107449206D01*
X38605817Y107446025D01*
X38621876Y107105492D01*
X38623700Y107066809D01*
X38680285Y106688192D01*
X38681071Y106685110D01*
X38681071Y106685108D01*
X38734937Y106473786D01*
X38774842Y106317231D01*
X38906402Y105957725D01*
X39073620Y105613354D01*
X39274782Y105287645D01*
X39344311Y105197033D01*
X39480695Y105019294D01*
X39507829Y104983932D01*
X39770376Y104705324D01*
X39772781Y104703240D01*
X39772787Y104703235D01*
X39963801Y104537774D01*
X40059733Y104454675D01*
X40372939Y104234550D01*
X40706787Y104047204D01*
X40709701Y104045937D01*
X40709705Y104045935D01*
X40743338Y104031311D01*
X41057858Y103894554D01*
X41231656Y103839088D01*
X41419514Y103779134D01*
X41419522Y103779132D01*
X41422558Y103778163D01*
X41623650Y103735786D01*
X41794034Y103699880D01*
X41794039Y103699879D01*
X41797153Y103699223D01*
X42177807Y103658543D01*
X42180994Y103658526D01*
X42181000Y103658526D01*
X42354852Y103657616D01*
X42560624Y103656539D01*
X42705184Y103670459D01*
X42938519Y103692926D01*
X42938524Y103692927D01*
X42941684Y103693231D01*
X42944804Y103693854D01*
X42944808Y103693855D01*
X43313957Y103767618D01*
X43313956Y103767618D01*
X43317085Y103768243D01*
X43598105Y103854696D01*
X43679942Y103879872D01*
X43679945Y103879873D01*
X43682984Y103880808D01*
X43685912Y103882045D01*
X43685918Y103882047D01*
X43844756Y103949144D01*
X44035634Y104029774D01*
X44038437Y104031308D01*
X44038442Y104031311D01*
X44182948Y104110426D01*
X44371425Y104213614D01*
X44686919Y104430447D01*
X44689358Y104432515D01*
X44689364Y104432520D01*
X44976445Y104675982D01*
X44976453Y104675990D01*
X44978885Y104678052D01*
X44981093Y104680347D01*
X44981101Y104680354D01*
X45108339Y104812575D01*
X45244335Y104953895D01*
X45249785Y104960845D01*
X45321226Y105051958D01*
X45480550Y105255151D01*
X45502814Y105290368D01*
X45630237Y105491932D01*
X45685112Y105578736D01*
X45686532Y105581584D01*
X45686537Y105581593D01*
X45854506Y105918489D01*
X45855926Y105921337D01*
X45965766Y106212021D01*
X45990120Y106276471D01*
X45990121Y106276474D01*
X45991244Y106279446D01*
X46089681Y106649396D01*
X46096400Y106691340D01*
X46149722Y107024249D01*
X46150227Y107027400D01*
X46150743Y107036339D01*
X46163405Y107255951D01*
X46172264Y107409587D01*
X46172356Y107436000D01*
X46172230Y107438499D01*
X46153149Y107815159D01*
X46153148Y107815164D01*
X46152988Y107818332D01*
X46095082Y108196749D01*
X46060756Y108329479D01*
X46000028Y108564298D01*
X46000025Y108564306D01*
X45999231Y108567378D01*
X45866416Y108926422D01*
X45865017Y108929278D01*
X45699399Y109267348D01*
X45699396Y109267354D01*
X45697998Y109270207D01*
X45495700Y109595213D01*
X45347828Y109786537D01*
X45263546Y109895586D01*
X45263541Y109895591D01*
X45261594Y109898111D01*
X44998076Y110175800D01*
X44707846Y110425438D01*
X44673462Y110449425D01*
X44439358Y110612737D01*
X44393873Y110644468D01*
X44059374Y110830648D01*
X44056454Y110831906D01*
X44056449Y110831908D01*
X43710706Y110980808D01*
X43710696Y110980812D01*
X43707772Y110982071D01*
X43342668Y111097188D01*
X43034582Y111160990D01*
X42970925Y111174173D01*
X42970922Y111174173D01*
X42967800Y111174820D01*
X42673909Y111205191D01*
X42590162Y111213845D01*
X42590159Y111213845D01*
X42587006Y111214171D01*
X42583840Y111214177D01*
X42583831Y111214177D01*
X42394879Y111214506D01*
X42204184Y111214839D01*
X42014326Y111195889D01*
X41826428Y111177134D01*
X41826422Y111177133D01*
X41823255Y111176817D01*
X41678365Y111147339D01*
X41451243Y111101131D01*
X41451239Y111101130D01*
X41448118Y111100495D01*
X41445076Y111099548D01*
X41445070Y111099546D01*
X41313220Y111058479D01*
X41082614Y110986653D01*
X41079686Y110985404D01*
X40733416Y110837708D01*
X40733412Y110837706D01*
X40730486Y110836458D01*
X40727707Y110834924D01*
X40727701Y110834921D01*
X40490097Y110703756D01*
X40395339Y110651447D01*
X40392718Y110649632D01*
X40392713Y110649629D01*
X40338845Y110612329D01*
X40080604Y110433514D01*
X39789503Y110184891D01*
X39787303Y110182589D01*
X39787300Y110182586D01*
X39700446Y110091698D01*
X39525018Y109908123D01*
X39523061Y109905609D01*
X39523060Y109905608D01*
X39310749Y109632882D01*
X39289856Y109606044D01*
X39288160Y109603340D01*
X39288157Y109603336D01*
X39281362Y109592504D01*
X39086425Y109281747D01*
X38916808Y108938552D01*
X38782740Y108579973D01*
X38685596Y108209681D01*
X38685103Y108206532D01*
X38685101Y108206523D01*
X38683076Y108193589D01*
X38626370Y107831468D01*
X38626199Y107828302D01*
X38626198Y107828297D01*
X38623821Y107784408D01*
X38605667Y107449206D01*
X31340000Y107449206D01*
X31340000Y109407352D01*
X31360002Y109475473D01*
X31413658Y109521966D01*
X31447267Y109531952D01*
X31753226Y109577951D01*
X31757086Y109579047D01*
X31757091Y109579048D01*
X31946703Y109632882D01*
X32057208Y109664256D01*
X32347760Y109788487D01*
X32620171Y109948629D01*
X32693023Y110005037D01*
X32866861Y110139637D01*
X32866865Y110139640D01*
X32870026Y110142088D01*
X33093274Y110365726D01*
X33095729Y110368908D01*
X33283842Y110612737D01*
X33283843Y110612738D01*
X33286296Y110615918D01*
X33301946Y110642645D01*
X33443934Y110885143D01*
X33445963Y110888608D01*
X33447531Y110892293D01*
X33447535Y110892301D01*
X33556054Y111147339D01*
X33569686Y111179376D01*
X33637840Y111421032D01*
X33654370Y111479642D01*
X33654371Y111479647D01*
X33655460Y111483508D01*
X33689938Y111715586D01*
X33701405Y111792775D01*
X33701405Y111792777D01*
X33701895Y111796074D01*
X33705500Y111882089D01*
X33705499Y112433501D01*
X33725501Y112501621D01*
X33779157Y112548114D01*
X33831499Y112559500D01*
X47928516Y112559500D01*
X47996637Y112539498D01*
X48017611Y112522595D01*
X50353095Y110187111D01*
X50387121Y110124799D01*
X50390000Y110098016D01*
X50390000Y26410000D01*
X54200000Y22600000D01*
X92300000Y22600000D01*
X96110000Y26410000D01*
X96110000Y46997206D01*
X100327667Y46997206D01*
X100327817Y46994025D01*
X100334366Y46855159D01*
X100345700Y46614809D01*
X100402285Y46236192D01*
X100403071Y46233110D01*
X100403071Y46233108D01*
X100444498Y46070586D01*
X100496842Y45865231D01*
X100628402Y45505725D01*
X100795620Y45161354D01*
X100797299Y45158636D01*
X100961791Y44892301D01*
X100996782Y44835645D01*
X100998726Y44833112D01*
X101222166Y44541919D01*
X101229829Y44531932D01*
X101492376Y44253324D01*
X101494781Y44251240D01*
X101494787Y44251235D01*
X101737966Y44040587D01*
X101781733Y44002675D01*
X102094939Y43782550D01*
X102428787Y43595204D01*
X102431701Y43593937D01*
X102431705Y43593935D01*
X102465338Y43579311D01*
X102779858Y43442554D01*
X102940962Y43391139D01*
X103141514Y43327134D01*
X103141522Y43327132D01*
X103144558Y43326163D01*
X103347958Y43283300D01*
X103516034Y43247880D01*
X103516039Y43247879D01*
X103519153Y43247223D01*
X103899807Y43206543D01*
X103902994Y43206526D01*
X103903000Y43206526D01*
X104076852Y43205616D01*
X104282624Y43204539D01*
X104427184Y43218459D01*
X104660519Y43240926D01*
X104660524Y43240927D01*
X104663684Y43241231D01*
X104666804Y43241854D01*
X104666808Y43241855D01*
X105035957Y43315618D01*
X105035956Y43315618D01*
X105039085Y43316243D01*
X105335240Y43407352D01*
X105401942Y43427872D01*
X105401945Y43427873D01*
X105404984Y43428808D01*
X105407912Y43430045D01*
X105407918Y43430047D01*
X105571146Y43498998D01*
X105757634Y43577774D01*
X105760437Y43579308D01*
X105760442Y43579311D01*
X105915597Y43664256D01*
X106093425Y43761614D01*
X106408919Y43978447D01*
X106411358Y43980515D01*
X106411364Y43980520D01*
X106698445Y44223982D01*
X106698453Y44223990D01*
X106700885Y44226052D01*
X106703093Y44228347D01*
X106703101Y44228354D01*
X106832167Y44362474D01*
X106966335Y44501895D01*
X107202550Y44803151D01*
X107224814Y44838368D01*
X107405403Y45124033D01*
X107407112Y45126736D01*
X107408532Y45129584D01*
X107408537Y45129593D01*
X107576506Y45466489D01*
X107577926Y45469337D01*
X107713244Y45827446D01*
X107728135Y45883408D01*
X107792205Y46124202D01*
X107811681Y46197396D01*
X107818400Y46239340D01*
X107856306Y46476000D01*
X107872227Y46575400D01*
X107874500Y46614809D01*
X107881892Y46743013D01*
X107894264Y46957587D01*
X107894356Y46984000D01*
X107889669Y47076538D01*
X107875149Y47363159D01*
X107875148Y47363164D01*
X107874988Y47366332D01*
X107836646Y47616900D01*
X107817566Y47741589D01*
X107817564Y47741598D01*
X107817082Y47744749D01*
X107732561Y48071568D01*
X107722028Y48112298D01*
X107722025Y48112306D01*
X107721231Y48115378D01*
X107588416Y48474422D01*
X107587017Y48477278D01*
X107421399Y48815348D01*
X107421396Y48815354D01*
X107419998Y48818207D01*
X107217700Y49143213D01*
X107022432Y49395861D01*
X106985546Y49443586D01*
X106985541Y49443591D01*
X106983594Y49446111D01*
X106720076Y49723800D01*
X106429846Y49973438D01*
X106358755Y50023032D01*
X106118486Y50190645D01*
X106115873Y50192468D01*
X105781374Y50378648D01*
X105778454Y50379906D01*
X105778449Y50379908D01*
X105432706Y50528808D01*
X105432696Y50528812D01*
X105429772Y50530071D01*
X105064668Y50645188D01*
X104798085Y50700395D01*
X104692925Y50722173D01*
X104692922Y50722173D01*
X104689800Y50722820D01*
X104395909Y50753191D01*
X104312162Y50761845D01*
X104312159Y50761845D01*
X104309006Y50762171D01*
X104305840Y50762177D01*
X104305831Y50762177D01*
X104116879Y50762506D01*
X103926184Y50762839D01*
X103736326Y50743889D01*
X103548428Y50725134D01*
X103548422Y50725133D01*
X103545255Y50724817D01*
X103350592Y50685213D01*
X103173243Y50649131D01*
X103173239Y50649130D01*
X103170118Y50648495D01*
X103167076Y50647548D01*
X103167070Y50647546D01*
X103066874Y50616338D01*
X102804614Y50534653D01*
X102801686Y50533404D01*
X102455416Y50385708D01*
X102455412Y50385706D01*
X102452486Y50384458D01*
X102449707Y50382924D01*
X102449701Y50382921D01*
X102217109Y50254523D01*
X102117339Y50199447D01*
X102114718Y50197632D01*
X102114713Y50197629D01*
X102030831Y50139546D01*
X101802604Y49981514D01*
X101511503Y49732891D01*
X101509303Y49730589D01*
X101509300Y49730586D01*
X101480319Y49700259D01*
X101247018Y49456123D01*
X101245061Y49453609D01*
X101245060Y49453608D01*
X101025394Y49171434D01*
X101011856Y49154044D01*
X101010160Y49151340D01*
X101010157Y49151336D01*
X100897407Y48971597D01*
X100808425Y48829747D01*
X100638808Y48486552D01*
X100504740Y48127973D01*
X100407596Y47757681D01*
X100407103Y47754532D01*
X100407101Y47754523D01*
X100385550Y47616900D01*
X100348370Y47379468D01*
X100348199Y47376302D01*
X100348198Y47376297D01*
X100346379Y47342715D01*
X100327667Y46997206D01*
X96110000Y46997206D01*
X96110000Y107957206D01*
X100327667Y107957206D01*
X100327817Y107954025D01*
X100343407Y107623442D01*
X100345700Y107574809D01*
X100402285Y107196192D01*
X100403071Y107193110D01*
X100403071Y107193108D01*
X100444498Y107030586D01*
X100496842Y106825231D01*
X100567484Y106632192D01*
X100621617Y106484267D01*
X100628402Y106465725D01*
X100795620Y106121354D01*
X100836373Y106055370D01*
X100967859Y105842476D01*
X100996782Y105795645D01*
X100998726Y105793112D01*
X101219904Y105504867D01*
X101229829Y105491932D01*
X101492376Y105213324D01*
X101494781Y105211240D01*
X101494787Y105211235D01*
X101663720Y105064901D01*
X101781733Y104962675D01*
X102094939Y104742550D01*
X102209874Y104678052D01*
X102408692Y104566481D01*
X102428787Y104555204D01*
X102431701Y104553937D01*
X102431705Y104553935D01*
X102563590Y104496590D01*
X102779858Y104402554D01*
X102953656Y104347088D01*
X103141514Y104287134D01*
X103141522Y104287132D01*
X103144558Y104286163D01*
X103330593Y104246959D01*
X103516034Y104207880D01*
X103516039Y104207879D01*
X103519153Y104207223D01*
X103899807Y104166543D01*
X103902994Y104166526D01*
X103903000Y104166526D01*
X104076852Y104165616D01*
X104282624Y104164539D01*
X104427184Y104178459D01*
X104660519Y104200926D01*
X104660524Y104200927D01*
X104663684Y104201231D01*
X104666804Y104201854D01*
X104666808Y104201855D01*
X105035957Y104275618D01*
X105035956Y104275618D01*
X105039085Y104276243D01*
X105320105Y104362696D01*
X105401942Y104387872D01*
X105401945Y104387873D01*
X105404984Y104388808D01*
X105407912Y104390045D01*
X105407918Y104390047D01*
X105729363Y104525832D01*
X105757634Y104537774D01*
X105760437Y104539308D01*
X105760442Y104539311D01*
X106018062Y104680354D01*
X106093425Y104721614D01*
X106408919Y104938447D01*
X106411358Y104940515D01*
X106411364Y104940520D01*
X106698445Y105183982D01*
X106698453Y105183990D01*
X106700885Y105186052D01*
X106703093Y105188347D01*
X106703101Y105188354D01*
X106859825Y105351215D01*
X106966335Y105461895D01*
X107202550Y105763151D01*
X107224814Y105798368D01*
X107387283Y106055370D01*
X107407112Y106086736D01*
X107408532Y106089584D01*
X107408537Y106089593D01*
X107576506Y106426489D01*
X107577926Y106429337D01*
X107713244Y106787446D01*
X107719262Y106810061D01*
X107756675Y106950669D01*
X107811681Y107157396D01*
X107818400Y107199340D01*
X107856306Y107436000D01*
X107872227Y107535400D01*
X107874500Y107574809D01*
X107881892Y107703013D01*
X107894264Y107917587D01*
X107894356Y107944000D01*
X107881713Y108193589D01*
X107875149Y108323159D01*
X107875148Y108323164D01*
X107874988Y108326332D01*
X107836646Y108576900D01*
X107817566Y108701589D01*
X107817564Y108701598D01*
X107817082Y108704749D01*
X107795273Y108789080D01*
X107722028Y109072298D01*
X107722025Y109072306D01*
X107721231Y109075378D01*
X107588416Y109434422D01*
X107587017Y109437278D01*
X107421399Y109775348D01*
X107421396Y109775354D01*
X107419998Y109778207D01*
X107279361Y110004150D01*
X107278287Y110005907D01*
X107238765Y110071814D01*
X107238762Y110071818D01*
X107237094Y110074600D01*
X107231018Y110082707D01*
X107224867Y110091698D01*
X107219390Y110100498D01*
X107219389Y110100500D01*
X107217700Y110103213D01*
X107150653Y110189962D01*
X107149521Y110191449D01*
X107007220Y110381321D01*
X107005273Y110383919D01*
X106759653Y110649629D01*
X106745085Y110665388D01*
X106742884Y110667769D01*
X106493453Y110887285D01*
X106455141Y110921002D01*
X106455140Y110921003D01*
X106452707Y110923144D01*
X106450065Y110925025D01*
X106450060Y110925029D01*
X106140463Y111145455D01*
X106137817Y111147339D01*
X106090485Y111174173D01*
X105921689Y111269867D01*
X105801550Y111337977D01*
X105798586Y111339275D01*
X105798582Y111339277D01*
X105614421Y111419926D01*
X105447467Y111493040D01*
X105442429Y111494653D01*
X105242899Y111558523D01*
X105079321Y111610885D01*
X104861371Y111656616D01*
X104704192Y111689596D01*
X104704188Y111689597D01*
X104701012Y111690263D01*
X104316547Y111730332D01*
X104314121Y111730396D01*
X104314114Y111730396D01*
X104312523Y111730437D01*
X104310132Y111730500D01*
X104023380Y111730500D01*
X104021771Y111730417D01*
X104021768Y111730417D01*
X103964190Y111727450D01*
X103733965Y111715586D01*
X103489326Y111677495D01*
X103355229Y111656616D01*
X103355225Y111656615D01*
X103352019Y111656116D01*
X103348877Y111655289D01*
X103348878Y111655289D01*
X103178074Y111610320D01*
X103175938Y111609822D01*
X103173248Y111609132D01*
X103170118Y111608495D01*
X103167080Y111607549D01*
X103166979Y111607523D01*
X103161814Y111606039D01*
X102978210Y111557700D01*
X102975185Y111556560D01*
X102844386Y111507266D01*
X102837423Y111504872D01*
X102804614Y111494653D01*
X102759243Y111475300D01*
X102754253Y111473297D01*
X102619540Y111422528D01*
X102619531Y111422524D01*
X102616498Y111421381D01*
X102613594Y111419930D01*
X102613585Y111419926D01*
X102561609Y111393954D01*
X102524640Y111375482D01*
X102517764Y111372301D01*
X102455424Y111345712D01*
X102455410Y111345705D01*
X102452486Y111344458D01*
X102358683Y111292676D01*
X102354137Y111290287D01*
X102270714Y111248603D01*
X102220458Y111216648D01*
X102213746Y111212667D01*
X102146042Y111175292D01*
X102117339Y111159447D01*
X102026037Y111096226D01*
X101971523Y111058479D01*
X101967426Y111055758D01*
X101944522Y111041195D01*
X101941983Y111039186D01*
X101941977Y111039182D01*
X101933365Y111032368D01*
X101926919Y111027594D01*
X101802604Y110941514D01*
X101631065Y110795006D01*
X101514852Y110695751D01*
X101511503Y110692891D01*
X101509303Y110690589D01*
X101509300Y110690586D01*
X101470161Y110649629D01*
X101247018Y110416123D01*
X101245061Y110413609D01*
X101245060Y110413608D01*
X101020229Y110124799D01*
X101011856Y110114044D01*
X101010160Y110111340D01*
X101010157Y110111336D01*
X100906570Y109946204D01*
X100808425Y109789747D01*
X100638808Y109446552D01*
X100504740Y109087973D01*
X100407596Y108717681D01*
X100407103Y108714532D01*
X100407101Y108714523D01*
X100385550Y108576900D01*
X100348370Y108339468D01*
X100348199Y108336302D01*
X100348198Y108336297D01*
X100330807Y108015178D01*
X100327667Y107957206D01*
X96110000Y107957206D01*
X96110000Y111577252D01*
X96110120Y111582748D01*
X96128787Y112010283D01*
X96129745Y112021233D01*
X96185243Y112442787D01*
X96187152Y112453613D01*
X96279181Y112868726D01*
X96282026Y112879343D01*
X96409881Y113284850D01*
X96413640Y113295179D01*
X96576358Y113688015D01*
X96581004Y113697977D01*
X96777331Y114075117D01*
X96782827Y114084637D01*
X97011281Y114443237D01*
X97017585Y114452241D01*
X97276433Y114789579D01*
X97283499Y114797999D01*
X97570749Y115111478D01*
X97578522Y115119251D01*
X97892001Y115406501D01*
X97900421Y115413567D01*
X98237759Y115672415D01*
X98246763Y115678719D01*
X98605363Y115907173D01*
X98614883Y115912669D01*
X98992032Y116109000D01*
X99001976Y116113638D01*
X99394829Y116276363D01*
X99405142Y116280116D01*
X99623971Y116349112D01*
X99810657Y116407974D01*
X99821274Y116410819D01*
X100236387Y116502848D01*
X100247213Y116504757D01*
X100668767Y116560255D01*
X100679716Y116561213D01*
X101107251Y116579880D01*
X101112748Y116580000D01*
X108887252Y116580000D01*
X108892749Y116579880D01*
G37*
%TD.AperFunction*%
%TD*%
%TA.AperFunction,Conductor*%
%TO.N,/+60V*%
G36*
X22557667Y116578792D02*
G01*
X22910424Y116563390D01*
X23020705Y116553742D01*
X23343315Y116511270D01*
X23452325Y116492049D01*
X23770018Y116421618D01*
X23876933Y116392969D01*
X24187263Y116295122D01*
X24291286Y116257261D01*
X24591911Y116132738D01*
X24692233Y116085957D01*
X24980860Y115935707D01*
X25076734Y115880354D01*
X25351149Y115705532D01*
X25441833Y115642035D01*
X25699984Y115443949D01*
X25784787Y115372790D01*
X26024682Y115152968D01*
X26102968Y115074682D01*
X26322790Y114834787D01*
X26393949Y114749984D01*
X26592035Y114491833D01*
X26655532Y114401149D01*
X26830354Y114126734D01*
X26885707Y114030860D01*
X27035957Y113742233D01*
X27082738Y113641911D01*
X27207260Y113341290D01*
X27245122Y113237263D01*
X27342969Y112926933D01*
X27371618Y112820018D01*
X27442049Y112502325D01*
X27461270Y112393315D01*
X27503742Y112070705D01*
X27513390Y111960423D01*
X27528792Y111607667D01*
X27530000Y111552313D01*
X27530000Y100966706D01*
X27509607Y100740117D01*
X27449082Y100520811D01*
X27350372Y100315837D01*
X27216648Y100131782D01*
X27054436Y99976343D01*
X26989149Y99924038D01*
X26829252Y99795936D01*
X26788871Y99763585D01*
X26763159Y99737602D01*
X26763152Y99737596D01*
X26725267Y99699312D01*
X26545477Y99517629D01*
X26331966Y99245328D01*
X26312865Y99214157D01*
X26312861Y99214152D01*
X26244780Y99103052D01*
X26151168Y98950291D01*
X26005478Y98636430D01*
X25896828Y98307903D01*
X25826658Y97969065D01*
X25823409Y97932658D01*
X25823408Y97932653D01*
X25810185Y97784494D01*
X25795898Y97624408D01*
X25804956Y97278499D01*
X25853712Y96935924D01*
X25862989Y96900563D01*
X25925761Y96661290D01*
X25941519Y96601223D01*
X25954791Y96567182D01*
X25954795Y96567170D01*
X25962816Y96546598D01*
X26026125Y96328079D01*
X26049500Y96085632D01*
X26049500Y92470049D01*
X26049461Y92460081D01*
X26048249Y92305786D01*
X26055053Y92245608D01*
X26060785Y92179421D01*
X26064430Y92118960D01*
X26071298Y92081354D01*
X26072745Y92069399D01*
X26079142Y92026081D01*
X26081211Y92014223D01*
X26085505Y91976244D01*
X26094330Y91939059D01*
X26094332Y91939045D01*
X26099487Y91917323D01*
X26113129Y91852310D01*
X26124013Y91792715D01*
X26135345Y91756220D01*
X26138208Y91744563D01*
X26149784Y91702252D01*
X26153255Y91690755D01*
X26162081Y91653565D01*
X26175310Y91617706D01*
X26175311Y91617703D01*
X26183047Y91596732D01*
X26204396Y91533839D01*
X26211025Y91512491D01*
X26222359Y91475991D01*
X26237990Y91441129D01*
X26242230Y91429907D01*
X26258806Y91389287D01*
X26263641Y91378273D01*
X26276867Y91342423D01*
X26304500Y91288540D01*
X26333249Y91228671D01*
X26358042Y91173375D01*
X26377749Y91140643D01*
X26383318Y91129989D01*
X26404628Y91091703D01*
X26410762Y91081332D01*
X26428202Y91047323D01*
X26449600Y91015658D01*
X26449607Y91015647D01*
X26462112Y90997142D01*
X26497853Y90941148D01*
X26509383Y90921997D01*
X26509390Y90921987D01*
X26529098Y90889252D01*
X26552593Y90859126D01*
X26559410Y90849207D01*
X26585143Y90813789D01*
X26592490Y90804214D01*
X26613894Y90772541D01*
X26638949Y90743668D01*
X26653581Y90726806D01*
X26695790Y90675511D01*
X26709541Y90657879D01*
X26709548Y90657871D01*
X26733049Y90627737D01*
X26760001Y90600644D01*
X26783952Y90576567D01*
X26782500Y90575123D01*
X26784574Y90572772D01*
X26786004Y90574202D01*
X26842506Y90517700D01*
X26844852Y90515347D01*
X26966940Y90392618D01*
X26969832Y90390339D01*
X26970472Y90389734D01*
X27158319Y90201887D01*
X27304121Y90027244D01*
X27416396Y89829374D01*
X27491536Y89614636D01*
X27527126Y89389932D01*
X27530000Y89304568D01*
X27530000Y76836706D01*
X27509607Y76610117D01*
X27449082Y76390811D01*
X27350372Y76185837D01*
X27216648Y76001782D01*
X27054436Y75846343D01*
X26788871Y75633585D01*
X26763159Y75607602D01*
X26763152Y75607596D01*
X26725267Y75569312D01*
X26545477Y75387629D01*
X26331966Y75115328D01*
X26312865Y75084157D01*
X26312861Y75084152D01*
X26283942Y75036959D01*
X26151168Y74820291D01*
X26005478Y74506430D01*
X25896828Y74177903D01*
X25826658Y73839065D01*
X25795898Y73494408D01*
X25804956Y73148499D01*
X25853712Y72805924D01*
X25862989Y72770563D01*
X25925761Y72531290D01*
X25941519Y72471223D01*
X25954793Y72437177D01*
X26067214Y72148833D01*
X26065192Y72148045D01*
X26125104Y71978453D01*
X26161365Y71753857D01*
X26164500Y71664709D01*
X26164500Y71003816D01*
X26164151Y70983830D01*
X26161101Y70952152D01*
X26162116Y70913393D01*
X26164065Y70838957D01*
X26164500Y70805740D01*
X26164500Y70778120D01*
X26165682Y70758795D01*
X26166022Y70747665D01*
X26167105Y70722856D01*
X26169540Y70629865D01*
X26175270Y70591527D01*
X26175910Y70584206D01*
X26176807Y70576898D01*
X26179174Y70538203D01*
X26186238Y70500089D01*
X26186240Y70500072D01*
X26196131Y70446706D01*
X26203439Y70403041D01*
X26217193Y70311008D01*
X26227550Y70273661D01*
X26229083Y70266449D01*
X26230864Y70259304D01*
X26237926Y70221203D01*
X26249580Y70184242D01*
X26249583Y70184229D01*
X26265904Y70132466D01*
X26278482Y70090006D01*
X26303350Y70000335D01*
X26318184Y69964522D01*
X26320582Y69957558D01*
X26323218Y69950692D01*
X26334873Y69913727D01*
X26373477Y69829019D01*
X26391129Y69788421D01*
X26426728Y69702478D01*
X26445813Y69668745D01*
X26449055Y69662097D01*
X26452500Y69655617D01*
X26468570Y69620357D01*
X26488822Y69587309D01*
X26517192Y69541013D01*
X26539659Y69502871D01*
X26585484Y69421876D01*
X26608541Y69390716D01*
X26612554Y69384537D01*
X26616768Y69378518D01*
X26637022Y69345467D01*
X26661160Y69315122D01*
X26661161Y69315120D01*
X26694950Y69272641D01*
X26721906Y69237513D01*
X26777254Y69162714D01*
X26799699Y69138220D01*
X26816186Y69120227D01*
X26815792Y69119866D01*
X26818701Y69117065D01*
X26837720Y69093155D01*
X26865382Y69065972D01*
X26947235Y68985535D01*
X26955101Y68977739D01*
X27158319Y68774521D01*
X27304121Y68599878D01*
X27416396Y68402008D01*
X27491536Y68187270D01*
X27527126Y67962566D01*
X27530000Y67877202D01*
X27530000Y55246706D01*
X27509607Y55020117D01*
X27449082Y54800811D01*
X27350372Y54595837D01*
X27216648Y54411782D01*
X27054436Y54256343D01*
X26788871Y54043585D01*
X26763159Y54017602D01*
X26763152Y54017596D01*
X26725267Y53979312D01*
X26545477Y53797629D01*
X26331966Y53525328D01*
X26312865Y53494157D01*
X26312861Y53494152D01*
X26283942Y53446959D01*
X26151168Y53230291D01*
X26005478Y52916430D01*
X25896828Y52587903D01*
X25826658Y52249065D01*
X25795898Y51904408D01*
X25804956Y51558499D01*
X25853712Y51215924D01*
X25862989Y51180563D01*
X25925761Y50941290D01*
X25941519Y50881223D01*
X25954791Y50847182D01*
X25954795Y50847170D01*
X25962816Y50826598D01*
X26026125Y50608079D01*
X26049500Y50365632D01*
X26049500Y48020049D01*
X26049461Y48010081D01*
X26048249Y47855786D01*
X26055053Y47795608D01*
X26060785Y47729421D01*
X26064430Y47668960D01*
X26071298Y47631354D01*
X26072745Y47619399D01*
X26079142Y47576081D01*
X26081211Y47564223D01*
X26085505Y47526244D01*
X26094330Y47489059D01*
X26094332Y47489045D01*
X26099487Y47467323D01*
X26113129Y47402310D01*
X26124013Y47342715D01*
X26135345Y47306220D01*
X26138208Y47294563D01*
X26149784Y47252252D01*
X26153255Y47240755D01*
X26162081Y47203565D01*
X26175310Y47167706D01*
X26175311Y47167703D01*
X26183047Y47146732D01*
X26204396Y47083839D01*
X26211025Y47062491D01*
X26222359Y47025991D01*
X26237990Y46991129D01*
X26242230Y46979907D01*
X26258806Y46939287D01*
X26263641Y46928273D01*
X26276867Y46892423D01*
X26304500Y46838540D01*
X26333249Y46778671D01*
X26358042Y46723375D01*
X26377749Y46690643D01*
X26383318Y46679989D01*
X26404628Y46641703D01*
X26410762Y46631332D01*
X26428202Y46597323D01*
X26449600Y46565658D01*
X26449607Y46565647D01*
X26462112Y46547142D01*
X26497853Y46491148D01*
X26509383Y46471997D01*
X26509390Y46471987D01*
X26529098Y46439252D01*
X26552593Y46409126D01*
X26559410Y46399207D01*
X26585143Y46363789D01*
X26592490Y46354214D01*
X26613894Y46322541D01*
X26638949Y46293668D01*
X26653581Y46276806D01*
X26695790Y46225511D01*
X26709541Y46207879D01*
X26709548Y46207871D01*
X26733049Y46177737D01*
X26760001Y46150644D01*
X26783952Y46126567D01*
X26782500Y46125123D01*
X26784574Y46122772D01*
X26786004Y46124202D01*
X26842506Y46067700D01*
X26844852Y46065347D01*
X26966940Y45942618D01*
X26969832Y45940339D01*
X26970472Y45939734D01*
X27158319Y45751887D01*
X27304121Y45577244D01*
X27416396Y45379374D01*
X27491536Y45164636D01*
X27527126Y44939932D01*
X27530000Y44854568D01*
X27530000Y18790000D01*
X28713069Y17391828D01*
X28722065Y17381196D01*
X28722075Y17381184D01*
X30693474Y15051349D01*
X34442457Y10620733D01*
X34517767Y10531730D01*
X34554007Y10486871D01*
X34778633Y10195522D01*
X34844832Y10101074D01*
X35026590Y9814912D01*
X35083937Y9714849D01*
X35156712Y9573323D01*
X35238961Y9413370D01*
X35286977Y9308534D01*
X35413992Y8994214D01*
X35452298Y8885428D01*
X35550246Y8560885D01*
X35578520Y8449058D01*
X35646594Y8116963D01*
X35664596Y8003041D01*
X35702235Y7666156D01*
X35709820Y7551061D01*
X35716715Y7212118D01*
X35713817Y7096815D01*
X35689911Y6758678D01*
X35676557Y6644115D01*
X35622046Y6309530D01*
X35598346Y6196654D01*
X35513675Y5868382D01*
X35479832Y5758152D01*
X35365706Y5438922D01*
X35321986Y5332202D01*
X35179355Y5024674D01*
X35126121Y4922354D01*
X34956149Y4629034D01*
X34893855Y4531986D01*
X34697949Y4255305D01*
X34627096Y4164309D01*
X34406891Y3906575D01*
X34328065Y3822383D01*
X34085349Y3585687D01*
X33999227Y3509021D01*
X33736008Y3295331D01*
X33643285Y3226805D01*
X33361773Y3037911D01*
X33263177Y2978066D01*
X32965697Y2815524D01*
X32862070Y2764876D01*
X32551051Y2630012D01*
X32443258Y2588984D01*
X32121277Y2482915D01*
X32010213Y2451845D01*
X31679917Y2375448D01*
X31566490Y2354592D01*
X31230650Y2308503D01*
X31115788Y2298030D01*
X30816117Y2284397D01*
X30748284Y2281311D01*
X30690614Y2280000D01*
X10967687Y2280000D01*
X10912333Y2281208D01*
X10894516Y2281986D01*
X10559576Y2296610D01*
X10449295Y2306258D01*
X10432243Y2308503D01*
X10126686Y2348730D01*
X10017675Y2367951D01*
X9699982Y2438382D01*
X9593067Y2467031D01*
X9282737Y2564878D01*
X9178710Y2602740D01*
X9168317Y2607045D01*
X8878089Y2727262D01*
X8777767Y2774043D01*
X8489140Y2924293D01*
X8393266Y2979646D01*
X8118851Y3154468D01*
X8028167Y3217965D01*
X7770016Y3416051D01*
X7685213Y3487210D01*
X7445318Y3707032D01*
X7367032Y3785318D01*
X7147210Y4025213D01*
X7076051Y4110016D01*
X6877965Y4368167D01*
X6814468Y4458851D01*
X6639646Y4733266D01*
X6584293Y4829140D01*
X6434043Y5117767D01*
X6387262Y5218089D01*
X6262739Y5518714D01*
X6224878Y5622737D01*
X6127031Y5933067D01*
X6098382Y6039982D01*
X6027951Y6357675D01*
X6008730Y6466685D01*
X5966258Y6789295D01*
X5956610Y6899577D01*
X5941208Y7252333D01*
X5940000Y7307687D01*
X5940000Y8581179D01*
X5960393Y8807768D01*
X6020918Y9027074D01*
X6119628Y9232048D01*
X6253352Y9416103D01*
X6417791Y9573323D01*
X6607661Y9698655D01*
X6816857Y9788070D01*
X6914909Y9815631D01*
X7181831Y9879221D01*
X7569230Y10009595D01*
X7595577Y10021215D01*
X7595581Y10021217D01*
X7916866Y10162921D01*
X7916872Y10162924D01*
X7943218Y10174544D01*
X7981064Y10195522D01*
X8082769Y10251898D01*
X8300717Y10372709D01*
X8324538Y10388898D01*
X8324545Y10388902D01*
X8614967Y10586272D01*
X8614972Y10586276D01*
X8638785Y10602459D01*
X8661024Y10620726D01*
X8661033Y10620733D01*
X8932385Y10843624D01*
X8932390Y10843628D01*
X8954639Y10861904D01*
X8975140Y10882121D01*
X8975148Y10882128D01*
X9225164Y11128678D01*
X9225168Y11128683D01*
X9245678Y11148908D01*
X9509508Y11461109D01*
X9743957Y11795936D01*
X9758260Y11820911D01*
X9758266Y11820920D01*
X9932783Y12125646D01*
X9947094Y12150634D01*
X10117248Y12522282D01*
X10253018Y12907823D01*
X10260084Y12935747D01*
X10346222Y13276160D01*
X10346224Y13276167D01*
X10353287Y13304082D01*
X10417230Y13707798D01*
X10444319Y14115648D01*
X10445307Y14210000D01*
X10426765Y14618328D01*
X10422858Y14646850D01*
X10375199Y14994768D01*
X10375197Y14994776D01*
X10371291Y15023294D01*
X10279343Y15421566D01*
X10151677Y15809866D01*
X9989343Y16184997D01*
X9793679Y16543871D01*
X9566294Y16883534D01*
X9509246Y16953982D01*
X9327180Y17178815D01*
X9327177Y17178818D01*
X9309060Y17201191D01*
X9134025Y17381184D01*
X9044177Y17473576D01*
X9024095Y17494227D01*
X8999509Y17515299D01*
X8735598Y17741499D01*
X8735596Y17741500D01*
X8713744Y17760230D01*
X8503661Y17909529D01*
X8404028Y17980335D01*
X8404021Y17980340D01*
X8380562Y17997011D01*
X8027291Y18202619D01*
X7656839Y18375364D01*
X7629738Y18385121D01*
X7299358Y18504065D01*
X7299352Y18504067D01*
X7272256Y18513822D01*
X7244391Y18521080D01*
X7244379Y18521084D01*
X6889125Y18613620D01*
X6674994Y18690470D01*
X6478026Y18804321D01*
X6304552Y18951511D01*
X6160147Y19127312D01*
X6049454Y19326071D01*
X5976030Y19541402D01*
X5942234Y19766382D01*
X5940000Y19841643D01*
X5940000Y29331179D01*
X5960393Y29557768D01*
X6020918Y29777074D01*
X6119628Y29982048D01*
X6253352Y30166103D01*
X6417791Y30323323D01*
X6607661Y30448655D01*
X6816857Y30538070D01*
X6914909Y30565631D01*
X7181831Y30629221D01*
X7569230Y30759595D01*
X7595577Y30771215D01*
X7595581Y30771217D01*
X7916866Y30912921D01*
X7916872Y30912924D01*
X7943218Y30924544D01*
X8300717Y31122709D01*
X8324538Y31138898D01*
X8324545Y31138902D01*
X8614967Y31336272D01*
X8614972Y31336276D01*
X8638785Y31352459D01*
X8661024Y31370726D01*
X8661033Y31370733D01*
X8932385Y31593624D01*
X8932390Y31593628D01*
X8954639Y31611904D01*
X8975140Y31632121D01*
X8975148Y31632128D01*
X9225164Y31878678D01*
X9225168Y31878683D01*
X9245678Y31898908D01*
X9509508Y32211109D01*
X9743957Y32545936D01*
X9758260Y32570911D01*
X9758266Y32570920D01*
X9932783Y32875646D01*
X9947094Y32900634D01*
X10117248Y33272282D01*
X10253018Y33657823D01*
X10260084Y33685747D01*
X10346222Y34026160D01*
X10346224Y34026167D01*
X10353287Y34054082D01*
X10417230Y34457798D01*
X10444319Y34865648D01*
X10445307Y34960000D01*
X10426765Y35368328D01*
X10422858Y35396850D01*
X10375199Y35744768D01*
X10375197Y35744776D01*
X10371291Y35773294D01*
X10279343Y36171566D01*
X10151677Y36559866D01*
X9989343Y36934997D01*
X9793679Y37293871D01*
X9566294Y37633534D01*
X9509246Y37703982D01*
X9327180Y37928815D01*
X9327177Y37928818D01*
X9309060Y37951191D01*
X9024095Y38244227D01*
X8830914Y38409803D01*
X8735598Y38491499D01*
X8735596Y38491500D01*
X8713744Y38510230D01*
X8435650Y38707862D01*
X8404028Y38730335D01*
X8404021Y38730340D01*
X8380562Y38747011D01*
X8027291Y38952619D01*
X7656839Y39125364D01*
X7600973Y39145477D01*
X7299358Y39254065D01*
X7299352Y39254067D01*
X7272256Y39263822D01*
X7244391Y39271080D01*
X7244379Y39271084D01*
X6889125Y39363620D01*
X6674994Y39440470D01*
X6478026Y39554321D01*
X6304552Y39701511D01*
X6160147Y39877312D01*
X6049454Y40076071D01*
X5976030Y40291402D01*
X5942234Y40516382D01*
X5940000Y40591643D01*
X5940000Y75831179D01*
X5960393Y76057768D01*
X6020918Y76277074D01*
X6119628Y76482048D01*
X6253352Y76666103D01*
X6417791Y76823323D01*
X6607661Y76948655D01*
X6816857Y77038070D01*
X6914909Y77065631D01*
X7181831Y77129221D01*
X7569230Y77259595D01*
X7595577Y77271215D01*
X7595581Y77271217D01*
X7916866Y77412921D01*
X7916872Y77412924D01*
X7943218Y77424544D01*
X8300717Y77622709D01*
X8324538Y77638898D01*
X8324545Y77638902D01*
X8614967Y77836272D01*
X8614972Y77836276D01*
X8638785Y77852459D01*
X8661024Y77870726D01*
X8661033Y77870733D01*
X8932385Y78093624D01*
X8932390Y78093628D01*
X8954639Y78111904D01*
X8975140Y78132121D01*
X8975148Y78132128D01*
X9225164Y78378678D01*
X9225168Y78378683D01*
X9245678Y78398908D01*
X9509508Y78711109D01*
X9743957Y79045936D01*
X9758260Y79070911D01*
X9758266Y79070920D01*
X9932783Y79375646D01*
X9947094Y79400634D01*
X10117248Y79772282D01*
X10253018Y80157823D01*
X10260084Y80185747D01*
X10346222Y80526160D01*
X10346224Y80526167D01*
X10353287Y80554082D01*
X10417230Y80957798D01*
X10444319Y81365648D01*
X10445307Y81460000D01*
X10426765Y81868328D01*
X10411276Y81981402D01*
X10375199Y82244768D01*
X10375197Y82244776D01*
X10371291Y82273294D01*
X10314476Y82519387D01*
X10285823Y82643499D01*
X10285822Y82643504D01*
X10279343Y82671566D01*
X10270345Y82698934D01*
X10160670Y83032514D01*
X10160669Y83032517D01*
X10151677Y83059866D01*
X10051019Y83292473D01*
X10000779Y83408571D01*
X10000775Y83408579D01*
X9989343Y83434997D01*
X9793679Y83793871D01*
X9566294Y84133534D01*
X9509246Y84203982D01*
X9327180Y84428815D01*
X9327177Y84428818D01*
X9309060Y84451191D01*
X9232676Y84529739D01*
X9044177Y84723576D01*
X9024095Y84744227D01*
X8879893Y84867823D01*
X8735598Y84991499D01*
X8735596Y84991500D01*
X8713744Y85010230D01*
X8503661Y85159529D01*
X8404028Y85230335D01*
X8404021Y85230340D01*
X8380562Y85247011D01*
X8027291Y85452619D01*
X7656839Y85625364D01*
X7629738Y85635121D01*
X7299358Y85754065D01*
X7299352Y85754067D01*
X7272256Y85763822D01*
X7244391Y85771080D01*
X7244379Y85771084D01*
X6889125Y85863620D01*
X6674994Y85940470D01*
X6478026Y86054321D01*
X6304552Y86201511D01*
X6160147Y86377312D01*
X6049454Y86576071D01*
X5976030Y86791402D01*
X5942234Y87016382D01*
X5940000Y87091643D01*
X5940000Y96581179D01*
X5960393Y96807768D01*
X6020918Y97027074D01*
X6119628Y97232048D01*
X6253352Y97416103D01*
X6417791Y97573323D01*
X6607661Y97698655D01*
X6816857Y97788070D01*
X6914909Y97815631D01*
X7181831Y97879221D01*
X7569230Y98009595D01*
X7595577Y98021215D01*
X7595581Y98021217D01*
X7916866Y98162921D01*
X7916872Y98162924D01*
X7943218Y98174544D01*
X8300717Y98372709D01*
X8324538Y98388898D01*
X8324545Y98388902D01*
X8614967Y98586272D01*
X8614972Y98586276D01*
X8638785Y98602459D01*
X8661024Y98620726D01*
X8661033Y98620733D01*
X8932385Y98843624D01*
X8932390Y98843628D01*
X8954639Y98861904D01*
X8975140Y98882121D01*
X8975148Y98882128D01*
X9225164Y99128678D01*
X9225168Y99128683D01*
X9245678Y99148908D01*
X9509508Y99461109D01*
X9549084Y99517629D01*
X9727443Y99772351D01*
X9727447Y99772358D01*
X9743957Y99795936D01*
X9758260Y99820911D01*
X9758266Y99820920D01*
X9915167Y100094886D01*
X9947094Y100150634D01*
X10117248Y100522282D01*
X10253018Y100907823D01*
X10267918Y100966706D01*
X10346222Y101276160D01*
X10346224Y101276167D01*
X10353287Y101304082D01*
X10417230Y101707798D01*
X10444319Y102115648D01*
X10445307Y102210000D01*
X10426765Y102618328D01*
X10422858Y102646850D01*
X10375199Y102994768D01*
X10375197Y102994776D01*
X10371291Y103023294D01*
X10279343Y103421566D01*
X10200324Y103661906D01*
X10160670Y103782514D01*
X10160669Y103782517D01*
X10151677Y103809866D01*
X10051019Y104042473D01*
X10000779Y104158571D01*
X10000775Y104158579D01*
X9989343Y104184997D01*
X9793679Y104543871D01*
X9681661Y104711201D01*
X9582310Y104859610D01*
X9582307Y104859614D01*
X9566294Y104883534D01*
X9441572Y105037553D01*
X9327180Y105178815D01*
X9327177Y105178818D01*
X9309060Y105201191D01*
X9256587Y105255151D01*
X9044177Y105473576D01*
X9024095Y105494227D01*
X8831943Y105658921D01*
X8735598Y105741499D01*
X8735596Y105741500D01*
X8713744Y105760230D01*
X8503661Y105909529D01*
X8404028Y105980335D01*
X8404021Y105980340D01*
X8380562Y105997011D01*
X8027291Y106202619D01*
X7656839Y106375364D01*
X7559842Y106410285D01*
X7299358Y106504065D01*
X7299352Y106504067D01*
X7272256Y106513822D01*
X7244391Y106521080D01*
X7244379Y106521084D01*
X6889125Y106613620D01*
X6674994Y106690470D01*
X6478026Y106804321D01*
X6304552Y106951511D01*
X6160147Y107127312D01*
X6049454Y107326071D01*
X5976030Y107541402D01*
X5942234Y107766382D01*
X5940000Y107841643D01*
X5940000Y111552313D01*
X5941208Y111607667D01*
X5956610Y111960423D01*
X5966258Y112070705D01*
X6008730Y112393315D01*
X6027951Y112502325D01*
X6098382Y112820018D01*
X6127031Y112926933D01*
X6224878Y113237263D01*
X6262740Y113341290D01*
X6387262Y113641911D01*
X6434043Y113742233D01*
X6584293Y114030860D01*
X6639646Y114126734D01*
X6814468Y114401149D01*
X6877965Y114491833D01*
X7076051Y114749984D01*
X7147210Y114834787D01*
X7367032Y115074682D01*
X7445318Y115152968D01*
X7685213Y115372790D01*
X7770016Y115443949D01*
X8028167Y115642035D01*
X8118851Y115705532D01*
X8393266Y115880354D01*
X8489140Y115935707D01*
X8777767Y116085957D01*
X8878089Y116132738D01*
X9178714Y116257261D01*
X9282737Y116295122D01*
X9593067Y116392969D01*
X9699982Y116421618D01*
X10017675Y116492049D01*
X10126685Y116511270D01*
X10449295Y116553742D01*
X10559576Y116563390D01*
X10912333Y116578792D01*
X10967687Y116580000D01*
X22502313Y116580000D01*
X22557667Y116578792D01*
G37*
%TD.AperFunction*%
%TD*%
%TA.AperFunction,Conductor*%
%TO.N,/-60V*%
G36*
X133041780Y116579049D02*
G01*
X133115306Y116575839D01*
X133412202Y116562876D01*
X133499010Y116555282D01*
X133845008Y116509731D01*
X133930835Y116494596D01*
X134271509Y116419070D01*
X134355690Y116396514D01*
X134688495Y116291581D01*
X134770389Y116261774D01*
X135092794Y116128230D01*
X135171777Y116091400D01*
X135481315Y115930265D01*
X135556781Y115886695D01*
X135851102Y115699191D01*
X135922486Y115649207D01*
X136199333Y115436775D01*
X136266096Y115380755D01*
X136523376Y115145001D01*
X136585001Y115083376D01*
X136820755Y114826096D01*
X136876775Y114759333D01*
X137089207Y114482486D01*
X137139195Y114411097D01*
X137326692Y114116786D01*
X137370268Y114041310D01*
X137531398Y113731782D01*
X137568230Y113652794D01*
X137701774Y113330389D01*
X137731581Y113248495D01*
X137836514Y112915690D01*
X137859070Y112831509D01*
X137934596Y112490835D01*
X137949731Y112405006D01*
X137995281Y112059017D01*
X138002876Y111972198D01*
X138019049Y111601780D01*
X138020000Y111558204D01*
X138020000Y107223754D01*
X137999550Y107022657D01*
X137939039Y106829793D01*
X137840943Y106653057D01*
X137709278Y106499686D01*
X137549435Y106375958D01*
X137440103Y106317414D01*
X137428838Y106312909D01*
X137408639Y106302617D01*
X137408632Y106302614D01*
X137084841Y106137635D01*
X137064640Y106127342D01*
X136718760Y105909529D01*
X136394044Y105661265D01*
X136377362Y105645925D01*
X136109856Y105399941D01*
X136109848Y105399933D01*
X136093166Y105384593D01*
X136077939Y105367800D01*
X136077937Y105367798D01*
X135937868Y105213324D01*
X135818601Y105081791D01*
X135804958Y105063686D01*
X135669204Y104883534D01*
X135572610Y104755350D01*
X135560671Y104736094D01*
X135560666Y104736087D01*
X135452721Y104561989D01*
X135357218Y104407958D01*
X135347065Y104387682D01*
X135236327Y104166543D01*
X135174197Y104042473D01*
X135165927Y104021370D01*
X135165925Y104021366D01*
X135046422Y103716430D01*
X135025054Y103661906D01*
X134911017Y103269387D01*
X134833024Y102868149D01*
X134791718Y102461493D01*
X134791481Y102438820D01*
X134791480Y102438810D01*
X134787675Y102075431D01*
X134787438Y102052767D01*
X134820219Y101645335D01*
X134889792Y101242551D01*
X134895660Y101220650D01*
X134895661Y101220647D01*
X134979482Y100907823D01*
X134995583Y100847731D01*
X135003409Y100826462D01*
X135003411Y100826454D01*
X135024971Y100767856D01*
X135136723Y100464123D01*
X135312050Y100094886D01*
X135323579Y100075391D01*
X135323582Y100075386D01*
X135408378Y99932004D01*
X135520120Y99743060D01*
X135759220Y99411539D01*
X135774081Y99394444D01*
X135774086Y99394437D01*
X136012508Y99120163D01*
X136012516Y99120155D01*
X136027383Y99103052D01*
X136152366Y98983198D01*
X136306044Y98835826D01*
X136306052Y98835819D01*
X136322402Y98820140D01*
X136641847Y98565130D01*
X136660768Y98552654D01*
X136660772Y98552651D01*
X136964167Y98352599D01*
X136964173Y98352595D01*
X136983090Y98340122D01*
X137343321Y98146968D01*
X137364194Y98138108D01*
X137411343Y98118094D01*
X137588463Y98020695D01*
X137742352Y97889635D01*
X137866708Y97730281D01*
X137956441Y97549156D01*
X138007876Y97353675D01*
X138020000Y97198511D01*
X138020000Y86473754D01*
X137999550Y86272657D01*
X137939039Y86079793D01*
X137840943Y85903057D01*
X137709278Y85749686D01*
X137549435Y85625958D01*
X137440103Y85567414D01*
X137428838Y85562909D01*
X137408639Y85552617D01*
X137408632Y85552614D01*
X137212380Y85452619D01*
X137064640Y85377342D01*
X136718760Y85159529D01*
X136700738Y85145750D01*
X136483513Y84979669D01*
X136394044Y84911265D01*
X136377362Y84895925D01*
X136109856Y84649941D01*
X136109848Y84649933D01*
X136093166Y84634593D01*
X135818601Y84331791D01*
X135804958Y84313686D01*
X135669204Y84133534D01*
X135572610Y84005350D01*
X135560671Y83986094D01*
X135560666Y83986087D01*
X135497321Y83883921D01*
X135357218Y83657958D01*
X135347065Y83637682D01*
X135245568Y83434997D01*
X135174197Y83292473D01*
X135025054Y82911906D01*
X134911017Y82519387D01*
X134833024Y82118149D01*
X134791718Y81711493D01*
X134787438Y81302767D01*
X134820219Y80895335D01*
X134889792Y80492551D01*
X134895660Y80470650D01*
X134895661Y80470647D01*
X134979482Y80157823D01*
X134995583Y80097731D01*
X135136723Y79714123D01*
X135312050Y79344886D01*
X135323579Y79325391D01*
X135323582Y79325386D01*
X135417649Y79166328D01*
X135520120Y78993060D01*
X135759220Y78661539D01*
X135774081Y78644444D01*
X135774086Y78644437D01*
X136012508Y78370163D01*
X136012516Y78370155D01*
X136027383Y78353052D01*
X136068637Y78313491D01*
X136306044Y78085826D01*
X136306052Y78085819D01*
X136322402Y78070140D01*
X136641847Y77815130D01*
X136660768Y77802654D01*
X136660772Y77802651D01*
X136964167Y77602599D01*
X136964173Y77602595D01*
X136983090Y77590122D01*
X137343321Y77396968D01*
X137364194Y77388108D01*
X137411343Y77368094D01*
X137588463Y77270695D01*
X137742352Y77139635D01*
X137866708Y76980281D01*
X137956441Y76799156D01*
X138007876Y76603675D01*
X138020000Y76448511D01*
X138020000Y39973754D01*
X137999550Y39772657D01*
X137939039Y39579793D01*
X137840943Y39403057D01*
X137709278Y39249686D01*
X137549435Y39125958D01*
X137440103Y39067414D01*
X137428838Y39062909D01*
X137408639Y39052617D01*
X137408632Y39052614D01*
X137309200Y39001951D01*
X137064640Y38877342D01*
X137045456Y38865261D01*
X137045454Y38865260D01*
X136991595Y38831343D01*
X136718760Y38659529D01*
X136394044Y38411265D01*
X136377362Y38395925D01*
X136109856Y38149941D01*
X136109848Y38149933D01*
X136093166Y38134593D01*
X135818601Y37831791D01*
X135804958Y37813686D01*
X135669204Y37633534D01*
X135572610Y37505350D01*
X135357218Y37157958D01*
X135347065Y37137682D01*
X135245568Y36934997D01*
X135174197Y36792473D01*
X135165927Y36771370D01*
X135165925Y36771366D01*
X135087011Y36570000D01*
X135025054Y36411906D01*
X134911017Y36019387D01*
X134906691Y35997129D01*
X134906689Y35997123D01*
X134868487Y35800590D01*
X134833024Y35618149D01*
X134791718Y35211493D01*
X134791481Y35188820D01*
X134791480Y35188810D01*
X134789084Y34960000D01*
X134787438Y34802767D01*
X134820219Y34395335D01*
X134889792Y33992551D01*
X134895660Y33970650D01*
X134895661Y33970647D01*
X134985115Y33636799D01*
X134995583Y33597731D01*
X135136723Y33214123D01*
X135312050Y32844886D01*
X135520120Y32493060D01*
X135759220Y32161539D01*
X135774081Y32144444D01*
X135774086Y32144437D01*
X136012508Y31870163D01*
X136012516Y31870155D01*
X136027383Y31853052D01*
X136152366Y31733198D01*
X136306044Y31585826D01*
X136306052Y31585819D01*
X136322402Y31570140D01*
X136641847Y31315130D01*
X136660768Y31302654D01*
X136660772Y31302651D01*
X136964167Y31102599D01*
X136964173Y31102595D01*
X136983090Y31090122D01*
X137343321Y30896968D01*
X137364194Y30888108D01*
X137411343Y30868094D01*
X137588463Y30770695D01*
X137742352Y30639635D01*
X137866708Y30480281D01*
X137956441Y30299156D01*
X138007876Y30103675D01*
X138020000Y29948511D01*
X138020000Y19223754D01*
X137999550Y19022657D01*
X137939039Y18829793D01*
X137840943Y18653057D01*
X137709278Y18499686D01*
X137549435Y18375958D01*
X137440103Y18317414D01*
X137428838Y18312909D01*
X137408639Y18302617D01*
X137408632Y18302614D01*
X137212380Y18202619D01*
X137064640Y18127342D01*
X136718760Y17909529D01*
X136394044Y17661265D01*
X136377362Y17645925D01*
X136109856Y17399941D01*
X136109848Y17399933D01*
X136093166Y17384593D01*
X135818601Y17081791D01*
X135804958Y17063686D01*
X135669204Y16883534D01*
X135572610Y16755350D01*
X135357218Y16407958D01*
X135347065Y16387682D01*
X135245568Y16184997D01*
X135174197Y16042473D01*
X135025054Y15661906D01*
X134911017Y15269387D01*
X134833024Y14868149D01*
X134791718Y14461493D01*
X134787438Y14052767D01*
X134820219Y13645335D01*
X134889792Y13242551D01*
X134895660Y13220650D01*
X134895661Y13220647D01*
X134979482Y12907823D01*
X134995583Y12847731D01*
X135136723Y12464123D01*
X135312050Y12094886D01*
X135520120Y11743060D01*
X135759220Y11411539D01*
X135774081Y11394444D01*
X135774086Y11394437D01*
X136012508Y11120163D01*
X136012516Y11120155D01*
X136027383Y11103052D01*
X136152366Y10983198D01*
X136306044Y10835826D01*
X136306052Y10835819D01*
X136322402Y10820140D01*
X136641847Y10565130D01*
X136660768Y10552654D01*
X136660772Y10552651D01*
X136964167Y10352599D01*
X136964173Y10352595D01*
X136983090Y10340122D01*
X137003066Y10329411D01*
X137290195Y10175454D01*
X137343321Y10146968D01*
X137364194Y10138108D01*
X137411343Y10118094D01*
X137588463Y10020695D01*
X137742352Y9889635D01*
X137866708Y9730281D01*
X137956441Y9549156D01*
X138007876Y9353675D01*
X138020000Y9198511D01*
X138020000Y7301796D01*
X138019049Y7258220D01*
X138002876Y6887802D01*
X137995281Y6800983D01*
X137949731Y6454994D01*
X137934596Y6369165D01*
X137859070Y6028491D01*
X137836514Y5944310D01*
X137731581Y5611505D01*
X137701774Y5529611D01*
X137568230Y5207206D01*
X137531398Y5128218D01*
X137370268Y4818690D01*
X137326695Y4743219D01*
X137141968Y4453255D01*
X137139195Y4448903D01*
X137089207Y4377514D01*
X136876775Y4100667D01*
X136820755Y4033904D01*
X136585001Y3776624D01*
X136523376Y3714999D01*
X136284510Y3496118D01*
X136266096Y3479245D01*
X136199333Y3423225D01*
X135922486Y3210793D01*
X135851102Y3160809D01*
X135556786Y2973308D01*
X135481315Y2929735D01*
X135212180Y2789632D01*
X135171782Y2768602D01*
X135092794Y2731770D01*
X134770389Y2598226D01*
X134688495Y2568419D01*
X134355690Y2463486D01*
X134271509Y2440930D01*
X133930835Y2365404D01*
X133845008Y2350269D01*
X133499010Y2304718D01*
X133412202Y2297124D01*
X133115306Y2284161D01*
X133041780Y2280951D01*
X132998204Y2280000D01*
X114156978Y2280000D01*
X114111729Y2281025D01*
X114060305Y2283357D01*
X113741953Y2297792D01*
X113651824Y2305983D01*
X113307558Y2353071D01*
X113218546Y2369382D01*
X112879926Y2447439D01*
X112792775Y2471734D01*
X112462612Y2580115D01*
X112378014Y2612198D01*
X112059012Y2750014D01*
X111977644Y2789632D01*
X111672446Y2955740D01*
X111594999Y3002558D01*
X111306066Y3195617D01*
X111233183Y3249246D01*
X110985036Y3449778D01*
X110962920Y3467651D01*
X110895183Y3527660D01*
X110645793Y3769628D01*
X110583766Y3835521D01*
X110357293Y4099072D01*
X110301482Y4170309D01*
X110099790Y4453272D01*
X110050662Y4529258D01*
X109875409Y4829307D01*
X109833352Y4909439D01*
X109685968Y5224124D01*
X109651342Y5307718D01*
X109533035Y5634468D01*
X109506118Y5720852D01*
X109417876Y6056934D01*
X109398881Y6145420D01*
X109341415Y6488118D01*
X109330506Y6577958D01*
X109313631Y6800983D01*
X109304289Y6924456D01*
X109301556Y7014911D01*
X109306804Y7362340D01*
X109312268Y7452678D01*
X109348939Y7798227D01*
X109362556Y7887695D01*
X109430348Y8228504D01*
X109451998Y8316344D01*
X109550361Y8649647D01*
X109579877Y8735177D01*
X109707992Y9058186D01*
X109745132Y9140709D01*
X109901944Y9450784D01*
X109946406Y9529616D01*
X110130642Y9824234D01*
X110182050Y9898713D01*
X110274678Y10020695D01*
X110392196Y10175454D01*
X110450131Y10244970D01*
X110699737Y10518286D01*
X110731008Y10551008D01*
X118970000Y18790000D01*
X118970000Y34705044D01*
X118990450Y34906141D01*
X119050961Y35099005D01*
X119076523Y35153915D01*
X119175454Y35350616D01*
X119175459Y35350629D01*
X119188390Y35376338D01*
X119198277Y35403356D01*
X119198281Y35403365D01*
X119297417Y35674269D01*
X119297418Y35674273D01*
X119307305Y35701290D01*
X119314021Y35729264D01*
X119314024Y35729274D01*
X119381364Y36009765D01*
X119381365Y36009770D01*
X119388084Y36037757D01*
X119391542Y36066331D01*
X119426985Y36359218D01*
X119426986Y36359229D01*
X119429654Y36381278D01*
X119435585Y36570000D01*
X119415666Y36915453D01*
X119356174Y37256328D01*
X119329048Y37347903D01*
X119266069Y37560519D01*
X119266067Y37560525D01*
X119257897Y37588106D01*
X119246610Y37614568D01*
X119239560Y37634150D01*
X119190681Y37830286D01*
X119180500Y37972548D01*
X119180500Y38212259D01*
X119200950Y38413356D01*
X119261461Y38606220D01*
X119359557Y38782956D01*
X119491222Y38936327D01*
X119651065Y39060055D01*
X119786751Y39130817D01*
X119948483Y39199969D01*
X119948484Y39199969D01*
X119977760Y39212487D01*
X120005198Y39228617D01*
X120005206Y39228621D01*
X120222732Y39356498D01*
X120222737Y39356501D01*
X120250171Y39372629D01*
X120301371Y39412272D01*
X120474852Y39546596D01*
X120474853Y39546597D01*
X120500026Y39566088D01*
X120723274Y39789726D01*
X120916296Y40039918D01*
X121075963Y40312608D01*
X121156191Y40501155D01*
X121187224Y40574087D01*
X121187227Y40574095D01*
X121199686Y40603376D01*
X121285460Y40907508D01*
X121308930Y41065492D01*
X121328019Y41193980D01*
X121328020Y41193990D01*
X121331895Y41220074D01*
X121332999Y41246417D01*
X121333000Y41246427D01*
X121335062Y41295648D01*
X121335500Y41306089D01*
X121335499Y42501910D01*
X121331529Y42592242D01*
X121284549Y42904726D01*
X121258622Y42996048D01*
X121206936Y43178094D01*
X121206935Y43178097D01*
X121198244Y43208708D01*
X121185736Y43237963D01*
X121185733Y43237970D01*
X121086530Y43469986D01*
X121086528Y43469990D01*
X121074013Y43499260D01*
X121057883Y43526698D01*
X121057879Y43526706D01*
X120930002Y43744232D01*
X120929999Y43744237D01*
X120913871Y43771671D01*
X120753768Y43978447D01*
X120739904Y43996352D01*
X120739903Y43996353D01*
X120720412Y44021526D01*
X120496774Y44244774D01*
X120401680Y44318139D01*
X120271776Y44418359D01*
X120271775Y44418359D01*
X120246582Y44437796D01*
X119973892Y44597463D01*
X119920541Y44620164D01*
X119712403Y44708728D01*
X119712398Y44708730D01*
X119683124Y44721186D01*
X119652500Y44729823D01*
X119637171Y44735221D01*
X119454284Y44821306D01*
X119292470Y44942444D01*
X119158353Y45093675D01*
X119057424Y45268808D01*
X118993814Y45460673D01*
X118970000Y45677500D01*
X118970000Y55025044D01*
X118990450Y55226141D01*
X119050961Y55419005D01*
X119076523Y55473915D01*
X119175454Y55670616D01*
X119175459Y55670629D01*
X119188390Y55696338D01*
X119198277Y55723356D01*
X119198281Y55723365D01*
X119297417Y55994269D01*
X119297418Y55994273D01*
X119307305Y56021290D01*
X119314021Y56049264D01*
X119314024Y56049274D01*
X119381364Y56329765D01*
X119381365Y56329770D01*
X119388084Y56357757D01*
X119422057Y56638499D01*
X119426985Y56679218D01*
X119426986Y56679229D01*
X119429654Y56701278D01*
X119435585Y56890000D01*
X119415666Y57235453D01*
X119356174Y57576328D01*
X119257897Y57908106D01*
X119246610Y57934568D01*
X119239560Y57954150D01*
X119190681Y58150286D01*
X119180500Y58292548D01*
X119180500Y60183259D01*
X119200950Y60384356D01*
X119261461Y60577220D01*
X119359557Y60753956D01*
X119491222Y60907327D01*
X119651065Y61031055D01*
X119786751Y61101817D01*
X119948483Y61170969D01*
X119948484Y61170969D01*
X119977760Y61183487D01*
X120005198Y61199617D01*
X120005206Y61199621D01*
X120222732Y61327498D01*
X120222737Y61327501D01*
X120250171Y61343629D01*
X120500026Y61537088D01*
X120723274Y61760726D01*
X120916296Y62010918D01*
X121075963Y62283608D01*
X121156191Y62472155D01*
X121187224Y62545087D01*
X121187227Y62545095D01*
X121199686Y62574376D01*
X121285460Y62878508D01*
X121308930Y63036492D01*
X121328019Y63164980D01*
X121328020Y63164990D01*
X121331895Y63191074D01*
X121332999Y63217417D01*
X121333000Y63217427D01*
X121335062Y63266648D01*
X121335500Y63277089D01*
X121335499Y64472910D01*
X121331529Y64563242D01*
X121284549Y64875726D01*
X121258622Y64967048D01*
X121206936Y65149094D01*
X121206935Y65149097D01*
X121198244Y65179708D01*
X121185736Y65208963D01*
X121185733Y65208970D01*
X121086530Y65440986D01*
X121086528Y65440990D01*
X121074013Y65470260D01*
X121057883Y65497698D01*
X121057879Y65497706D01*
X120930002Y65715232D01*
X120929999Y65715237D01*
X120913871Y65742671D01*
X120720412Y65992526D01*
X120496774Y66215774D01*
X120401680Y66289139D01*
X120271776Y66389359D01*
X120271775Y66389359D01*
X120246582Y66408796D01*
X119973892Y66568463D01*
X119920541Y66591164D01*
X119712403Y66679728D01*
X119712398Y66679730D01*
X119683124Y66692186D01*
X119652500Y66700823D01*
X119637171Y66706221D01*
X119454284Y66792306D01*
X119292470Y66913444D01*
X119158353Y67064675D01*
X119057424Y67239808D01*
X118993814Y67431673D01*
X118970000Y67648500D01*
X118970000Y76615044D01*
X118990450Y76816141D01*
X119050961Y77009005D01*
X119076523Y77063915D01*
X119175454Y77260616D01*
X119175459Y77260629D01*
X119188390Y77286338D01*
X119198277Y77313356D01*
X119198281Y77313365D01*
X119297417Y77584269D01*
X119297418Y77584273D01*
X119307305Y77611290D01*
X119314021Y77639264D01*
X119314024Y77639274D01*
X119381364Y77919765D01*
X119381365Y77919770D01*
X119388084Y77947757D01*
X119422057Y78228499D01*
X119426985Y78269218D01*
X119426986Y78269229D01*
X119429654Y78291278D01*
X119435585Y78480000D01*
X119415666Y78825453D01*
X119356174Y79166328D01*
X119297220Y79365353D01*
X119266069Y79470519D01*
X119266067Y79470525D01*
X119257897Y79498106D01*
X119246610Y79524568D01*
X119239560Y79544150D01*
X119190681Y79740286D01*
X119180500Y79882548D01*
X119180500Y82281259D01*
X119200950Y82482356D01*
X119261461Y82675220D01*
X119359557Y82851956D01*
X119491222Y83005327D01*
X119651065Y83129055D01*
X119786751Y83199817D01*
X119948483Y83268969D01*
X119948484Y83268969D01*
X119977760Y83281487D01*
X120005198Y83297617D01*
X120005206Y83297621D01*
X120222732Y83425498D01*
X120222737Y83425501D01*
X120250171Y83441629D01*
X120500026Y83635088D01*
X120723274Y83858726D01*
X120821533Y83986087D01*
X120896859Y84083724D01*
X120896859Y84083725D01*
X120916296Y84108918D01*
X121075963Y84381608D01*
X121176463Y84617798D01*
X121187224Y84643087D01*
X121187227Y84643095D01*
X121199686Y84672376D01*
X121285460Y84976508D01*
X121314445Y85171615D01*
X121328019Y85262980D01*
X121328020Y85262990D01*
X121331895Y85289074D01*
X121332999Y85315417D01*
X121333000Y85315427D01*
X121335062Y85364648D01*
X121335500Y85375089D01*
X121335499Y86570910D01*
X121331529Y86661242D01*
X121284549Y86973726D01*
X121258622Y87065048D01*
X121206936Y87247094D01*
X121206935Y87247097D01*
X121198244Y87277708D01*
X121185736Y87306963D01*
X121185733Y87306970D01*
X121086530Y87538986D01*
X121086528Y87538990D01*
X121074013Y87568260D01*
X121057883Y87595698D01*
X121057879Y87595706D01*
X120930002Y87813232D01*
X120929999Y87813237D01*
X120913871Y87840671D01*
X120720412Y88090526D01*
X120496774Y88313774D01*
X120401680Y88387139D01*
X120271776Y88487359D01*
X120271775Y88487359D01*
X120246582Y88506796D01*
X119973892Y88666463D01*
X119920541Y88689164D01*
X119712403Y88777728D01*
X119712398Y88777730D01*
X119683124Y88790186D01*
X119652500Y88798823D01*
X119637171Y88804221D01*
X119454284Y88890306D01*
X119292470Y89011444D01*
X119158353Y89162675D01*
X119057424Y89337808D01*
X118993814Y89529673D01*
X118970000Y89746500D01*
X118970000Y100745044D01*
X118990450Y100946141D01*
X119050961Y101139005D01*
X119076523Y101193915D01*
X119175454Y101390616D01*
X119175459Y101390629D01*
X119188390Y101416338D01*
X119198277Y101443356D01*
X119198281Y101443365D01*
X119297417Y101714269D01*
X119297418Y101714273D01*
X119307305Y101741290D01*
X119314021Y101769264D01*
X119314024Y101769274D01*
X119381364Y102049765D01*
X119381365Y102049770D01*
X119388084Y102077757D01*
X119422057Y102358499D01*
X119426985Y102399218D01*
X119426986Y102399229D01*
X119429654Y102421278D01*
X119435585Y102610000D01*
X119415666Y102955453D01*
X119356174Y103296328D01*
X119257897Y103628106D01*
X119246610Y103654568D01*
X119239560Y103674150D01*
X119190681Y103870286D01*
X119180500Y104012548D01*
X119180500Y104252259D01*
X119200950Y104453356D01*
X119261461Y104646220D01*
X119359557Y104822956D01*
X119491222Y104976327D01*
X119651065Y105100055D01*
X119786751Y105170817D01*
X119948483Y105239969D01*
X119948484Y105239969D01*
X119977760Y105252487D01*
X120005198Y105268617D01*
X120005206Y105268621D01*
X120222732Y105396498D01*
X120222737Y105396501D01*
X120250171Y105412629D01*
X120500026Y105606088D01*
X120723274Y105829726D01*
X120916296Y106079918D01*
X121075963Y106352608D01*
X121125709Y106469518D01*
X121187224Y106614087D01*
X121187227Y106614095D01*
X121199686Y106643376D01*
X121285460Y106947508D01*
X121316641Y107157396D01*
X121328019Y107233980D01*
X121328020Y107233990D01*
X121331895Y107260074D01*
X121332999Y107286417D01*
X121333000Y107286427D01*
X121335062Y107335648D01*
X121335500Y107346089D01*
X121335499Y108541910D01*
X121331529Y108632242D01*
X121284549Y108944726D01*
X121258622Y109036048D01*
X121206936Y109218094D01*
X121206935Y109218097D01*
X121198244Y109248708D01*
X121185736Y109277963D01*
X121185733Y109277970D01*
X121086530Y109509986D01*
X121086528Y109509990D01*
X121074013Y109539260D01*
X121057883Y109566698D01*
X121057879Y109566706D01*
X120930002Y109784232D01*
X120929999Y109784237D01*
X120913871Y109811671D01*
X120720412Y110061526D01*
X120694823Y110087071D01*
X120519295Y110262292D01*
X120496774Y110284774D01*
X120401680Y110358139D01*
X120271776Y110458359D01*
X120271775Y110458359D01*
X120246582Y110477796D01*
X119973892Y110637463D01*
X119843628Y110692891D01*
X119712412Y110748724D01*
X119712410Y110748725D01*
X119683124Y110761186D01*
X119652493Y110769825D01*
X119644019Y110772809D01*
X119461132Y110858895D01*
X119299318Y110980033D01*
X119165201Y111131265D01*
X119064273Y111306398D01*
X119000664Y111498263D01*
X118976979Y111699005D01*
X118977801Y111758663D01*
X118987124Y111972197D01*
X118994719Y112059017D01*
X119040269Y112405006D01*
X119055404Y112490835D01*
X119130930Y112831509D01*
X119153486Y112915690D01*
X119258419Y113248495D01*
X119288226Y113330389D01*
X119421770Y113652794D01*
X119458602Y113731782D01*
X119619732Y114041310D01*
X119663308Y114116786D01*
X119850805Y114411097D01*
X119900793Y114482486D01*
X120113225Y114759333D01*
X120169245Y114826096D01*
X120404999Y115083376D01*
X120466624Y115145001D01*
X120723904Y115380755D01*
X120790667Y115436775D01*
X121067514Y115649207D01*
X121138898Y115699191D01*
X121433219Y115886695D01*
X121508685Y115930265D01*
X121818223Y116091400D01*
X121897206Y116128230D01*
X122219611Y116261774D01*
X122301505Y116291581D01*
X122634310Y116396514D01*
X122718491Y116419070D01*
X123059165Y116494596D01*
X123144992Y116509731D01*
X123490990Y116555282D01*
X123577798Y116562876D01*
X123874694Y116575839D01*
X123948220Y116579049D01*
X123991796Y116580000D01*
X132998204Y116580000D01*
X133041780Y116579049D01*
G37*
%TD.AperFunction*%
%TD*%
M02*
