%TF.GenerationSoftware,KiCad,Pcbnew,6.0.11+dfsg-1*%
%TF.CreationDate,2024-07-30T13:46:45+04:00*%
%TF.ProjectId,pwm,70776d2e-6b69-4636-9164-5f7063625858,rev?*%
%TF.SameCoordinates,PX14fb180PYa6e49c0*%
%TF.FileFunction,Copper,L2,Bot*%
%TF.FilePolarity,Positive*%
%FSLAX46Y46*%
G04 Gerber Fmt 4.6, Leading zero omitted, Abs format (unit mm)*
G04 Created by KiCad (PCBNEW 6.0.11+dfsg-1) date 2024-07-30 13:46:45*
%MOMM*%
%LPD*%
G01*
G04 APERTURE LIST*
G04 Aperture macros list*
%AMRoundRect*
0 Rectangle with rounded corners*
0 $1 Rounding radius*
0 $2 $3 $4 $5 $6 $7 $8 $9 X,Y pos of 4 corners*
0 Add a 4 corners polygon primitive as box body*
4,1,4,$2,$3,$4,$5,$6,$7,$8,$9,$2,$3,0*
0 Add four circle primitives for the rounded corners*
1,1,$1+$1,$2,$3*
1,1,$1+$1,$4,$5*
1,1,$1+$1,$6,$7*
1,1,$1+$1,$8,$9*
0 Add four rect primitives between the rounded corners*
20,1,$1+$1,$2,$3,$4,$5,0*
20,1,$1+$1,$4,$5,$6,$7,0*
20,1,$1+$1,$6,$7,$8,$9,0*
20,1,$1+$1,$8,$9,$2,$3,0*%
G04 Aperture macros list end*
%TA.AperFunction,Profile*%
%ADD10C,0.100000*%
%TD*%
%TA.AperFunction,Profile*%
%ADD11C,0.120000*%
%TD*%
%TA.AperFunction,ComponentPad*%
%ADD12C,11.000000*%
%TD*%
%TA.AperFunction,ComponentPad*%
%ADD13C,5.000000*%
%TD*%
%TA.AperFunction,ComponentPad*%
%ADD14RoundRect,0.476250X0.523750X-0.476250X0.523750X0.476250X-0.523750X0.476250X-0.523750X-0.476250X0*%
%TD*%
%TA.AperFunction,ComponentPad*%
%ADD15O,2.000000X1.905000*%
%TD*%
%TA.AperFunction,ComponentPad*%
%ADD16RoundRect,0.476250X-0.523750X0.476250X-0.523750X-0.476250X0.523750X-0.476250X0.523750X0.476250X0*%
%TD*%
%TA.AperFunction,ComponentPad*%
%ADD17RoundRect,0.381000X0.381000X-0.381000X0.381000X0.381000X-0.381000X0.381000X-0.381000X-0.381000X0*%
%TD*%
%TA.AperFunction,ComponentPad*%
%ADD18C,1.524000*%
%TD*%
%TA.AperFunction,WasherPad*%
%ADD19C,5.000000*%
%TD*%
%TA.AperFunction,ComponentPad*%
%ADD20RoundRect,0.381000X-0.381000X-0.381000X0.381000X-0.381000X0.381000X0.381000X-0.381000X0.381000X0*%
%TD*%
%TA.AperFunction,ComponentPad*%
%ADD21C,2.400000*%
%TD*%
%TA.AperFunction,ComponentPad*%
%ADD22O,2.400000X2.400000*%
%TD*%
%TA.AperFunction,ComponentPad*%
%ADD23C,3.000000*%
%TD*%
%TA.AperFunction,ComponentPad*%
%ADD24R,3.000000X1.524000*%
%TD*%
%TA.AperFunction,ComponentPad*%
%ADD25O,3.000000X1.524000*%
%TD*%
%TA.AperFunction,ViaPad*%
%ADD26C,2.000000*%
%TD*%
%TA.AperFunction,Conductor*%
%ADD27C,1.270000*%
%TD*%
%TA.AperFunction,Conductor*%
%ADD28C,2.000000*%
%TD*%
G04 APERTURE END LIST*
D10*
X19370000Y14250000D02*
G75*
G03*
X19370000Y14250000I-2000000J0D01*
G01*
X144000000Y145000000D02*
X1000000Y145000000D01*
X0Y144000000D02*
X0Y1000000D01*
X144000000Y145000000D02*
X145000000Y144000000D01*
X1000000Y145000000D02*
X0Y144000000D01*
X145000000Y1000000D02*
X145000000Y144000000D01*
X144000000Y0D02*
X145000000Y1000000D01*
X1000000Y0D02*
X144000000Y0D01*
X0Y1000000D02*
X1000000Y0D01*
D11*
%TO.C,REF\u002A\u002A*%
X137080000Y125630000D02*
G75*
G03*
X137080000Y125630000I-2000000J0D01*
G01*
X87080000Y125630000D02*
G75*
G03*
X87080000Y125630000I-2000000J0D01*
G01*
X10880000Y125630000D02*
G75*
G03*
X10880000Y125630000I-2000000J0D01*
G01*
X60880000Y125630000D02*
G75*
G03*
X60880000Y125630000I-2000000J0D01*
G01*
%TO.C,J3*%
X131130000Y14980000D02*
G75*
G03*
X131130000Y14980000I-2000000J0D01*
G01*
%TO.C,J2*%
X75250000Y12440000D02*
G75*
G03*
X75250000Y12440000I-2000000J0D01*
G01*
%TO.C,J1*%
X19370000Y14250000D02*
G75*
G03*
X19370000Y14250000I-2000000J0D01*
G01*
%TO.C,REF\u002A\u002A*%
X105889000Y46984000D02*
G75*
G03*
X105889000Y46984000I-1778000J0D01*
G01*
X105889000Y107944000D02*
G75*
G03*
X105889000Y107944000I-1778000J0D01*
G01*
%TO.C,U1*%
X61750000Y102820000D02*
G75*
G03*
X61750000Y102820000I-1000000J0D01*
G01*
X86750000Y37820000D02*
G75*
G03*
X86750000Y37820000I-1000000J0D01*
G01*
X86750000Y102820000D02*
G75*
G03*
X86750000Y102820000I-1000000J0D01*
G01*
X61750000Y37820000D02*
G75*
G03*
X61750000Y37820000I-1000000J0D01*
G01*
%TO.C,REF\u002A\u002A*%
X44167000Y46476000D02*
G75*
G03*
X44167000Y46476000I-1778000J0D01*
G01*
X44167000Y107436000D02*
G75*
G03*
X44167000Y107436000I-1778000J0D01*
G01*
%TD*%
D12*
%TO.P,,1,Pin_1*%
%TO.N,/+60V*%
X28800000Y7360000D03*
%TD*%
%TO.P,,1,Pin_1*%
%TO.N,/-60V*%
X116430000Y7360000D03*
%TD*%
D13*
%TO.P,REF\u002A\u002A,*%
%TO.N,*%
X139290000Y102210000D03*
X139290000Y34960000D03*
X139290000Y81460000D03*
X139290000Y14210000D03*
%TD*%
%TO.P,REF\u002A\u002A,*%
%TO.N,*%
X5940000Y14210000D03*
X5940000Y81460000D03*
X5940000Y34960000D03*
X5940000Y102210000D03*
%TD*%
D14*
%TO.P,Q8,1,G*%
%TO.N,/G8*%
X118335000Y41904000D03*
D15*
%TO.P,Q8,2,D*%
%TO.N,/phase*%
X115795000Y44444000D03*
%TO.P,Q8,3,S*%
%TO.N,/-60V*%
X118335000Y46984000D03*
%TD*%
D14*
%TO.P,Q6,1,G*%
%TO.N,/G6*%
X118335000Y85973000D03*
D15*
%TO.P,Q6,2,D*%
%TO.N,/phase*%
X115795000Y88513000D03*
%TO.P,Q6,3,S*%
%TO.N,/-60V*%
X118335000Y91053000D03*
%TD*%
D16*
%TO.P,Q1,1,G*%
%TO.N,/G1*%
X30705000Y112480000D03*
D15*
%TO.P,Q1,2,D*%
%TO.N,/+60V*%
X28165000Y109940000D03*
%TO.P,Q1,3,S*%
%TO.N,/phase*%
X30705000Y107400000D03*
%TD*%
D17*
%TO.P,X3,1,Pin_1*%
%TO.N,/fan-*%
X79600000Y111246000D03*
D18*
%TO.P,X3,2,Pin_2*%
%TO.N,/fan+*%
X79600000Y113786000D03*
%TD*%
D19*
%TO.P,REF\u002A\u002A,*%
%TO.N,*%
X85080000Y125630000D03*
X135080000Y125630000D03*
%TD*%
%TO.P,REF\u002A\u002A,*%
%TO.N,*%
X8880000Y125630000D03*
X58880000Y125630000D03*
%TD*%
D20*
%TO.P,X2,1,Pin_1*%
%TO.N,unconnected-(X2-Pad1)*%
X60550000Y27680000D03*
D18*
%TO.P,X2,2,Pin_2*%
%TO.N,/-24V*%
X63090000Y27680000D03*
%TO.P,X2,3,Pin_3*%
%TO.N,unconnected-(X2-Pad3)*%
X65630000Y27680000D03*
%TO.P,X2,4,Pin_4*%
%TO.N,/+24V*%
X68170000Y27680000D03*
%TD*%
D21*
%TO.P,R1,1*%
%TO.N,/t1+*%
X54200000Y83150000D03*
D22*
%TO.P,R1,2*%
%TO.N,/t1-*%
X54200000Y90770000D03*
%TD*%
D17*
%TO.P,X4,1,Pin_1*%
%TO.N,/fan-*%
X64360000Y111246000D03*
D18*
%TO.P,X4,2,Pin_2*%
%TO.N,/fan+*%
X64360000Y113786000D03*
%TD*%
D12*
%TO.P,J3,1,Pin_1*%
%TO.N,/-60V*%
X129130000Y14980000D03*
%TD*%
D14*
%TO.P,Q7,1,G*%
%TO.N,/G7*%
X118335000Y63875000D03*
D15*
%TO.P,Q7,2,D*%
%TO.N,/phase*%
X115795000Y66415000D03*
%TO.P,Q7,3,S*%
%TO.N,/-60V*%
X118335000Y68955000D03*
%TD*%
D20*
%TO.P,X1,1,Pin_1*%
%TO.N,/-12V*%
X78330000Y27680000D03*
D18*
%TO.P,X1,2,Pin_2*%
%TO.N,unconnected-(X1-Pad2)*%
X80870000Y27680000D03*
%TO.P,X1,3,Pin_3*%
%TO.N,/+12V*%
X83410000Y27680000D03*
%TO.P,X1,4,Pin_4*%
%TO.N,unconnected-(X1-Pad4)*%
X85950000Y27680000D03*
%TD*%
D12*
%TO.P,J2,1,Pin_1*%
%TO.N,/phase*%
X73250000Y12440000D03*
%TD*%
D14*
%TO.P,Q5,1,G*%
%TO.N,/G5*%
X118335000Y107944000D03*
D15*
%TO.P,Q5,2,D*%
%TO.N,/phase*%
X115795000Y110484000D03*
%TO.P,Q5,3,S*%
%TO.N,/-60V*%
X118335000Y113024000D03*
%TD*%
D21*
%TO.P,R2,1*%
%TO.N,/t2+*%
X92300000Y85130000D03*
D22*
%TO.P,R2,2*%
%TO.N,/t2-*%
X92300000Y92750000D03*
%TD*%
D16*
%TO.P,Q2,1,G*%
%TO.N,/G2*%
X30762500Y90418000D03*
D15*
%TO.P,Q2,2,D*%
%TO.N,/+60V*%
X28222500Y87878000D03*
%TO.P,Q2,3,S*%
%TO.N,/phase*%
X30762500Y85338000D03*
%TD*%
D12*
%TO.P,J1,1,Pin_1*%
%TO.N,/+60V*%
X17370000Y14250000D03*
%TD*%
D23*
%TO.P,U1,*%
%TO.N,*%
X60750000Y102820000D03*
X85750000Y37820000D03*
X60750000Y37820000D03*
X85750000Y102820000D03*
D24*
%TO.P,U1,1A,Q1*%
%TO.N,/G1*%
X61820000Y100070000D03*
D25*
%TO.P,U1,1J,Q5*%
%TO.N,/G5*%
X84680000Y100070000D03*
%TO.P,U1,2A*%
%TO.N,N/C*%
X61820000Y97530000D03*
%TO.P,U1,2J*%
X84680000Y97530000D03*
%TO.P,U1,3A,Q2*%
%TO.N,/G2*%
X61820000Y94990000D03*
%TO.P,U1,3J,-60V*%
%TO.N,/-60V*%
X84680000Y94990000D03*
%TO.P,U1,4A*%
%TO.N,N/C*%
X61820000Y92450000D03*
%TO.P,U1,4J*%
X84680000Y92450000D03*
%TO.P,U1,5A,t1-*%
%TO.N,/t1-*%
X61820000Y89910000D03*
%TO.P,U1,5J,t2-*%
%TO.N,/t2-*%
X84680000Y89910000D03*
%TO.P,U1,6A*%
%TO.N,N/C*%
X61820000Y87370000D03*
%TO.P,U1,6J*%
X84680000Y87370000D03*
%TO.P,U1,7A,t1+*%
%TO.N,/t1+*%
X61820000Y84830000D03*
%TO.P,U1,7J,t2+*%
%TO.N,/t2+*%
X84680000Y84830000D03*
%TO.P,U1,8A*%
%TO.N,N/C*%
X61820000Y82290000D03*
%TO.P,U1,8J*%
X84680000Y82290000D03*
%TO.P,U1,9A*%
X61820000Y79750000D03*
%TO.P,U1,9J,Q6*%
%TO.N,/G6*%
X84680000Y79750000D03*
%TO.P,U1,10A,+60V*%
%TO.N,/+60V*%
X61820000Y77210000D03*
%TO.P,U1,10J*%
%TO.N,N/C*%
X84680000Y77210000D03*
%TO.P,U1,11A*%
X61820000Y74670000D03*
%TO.P,U1,11J*%
X84680000Y74670000D03*
%TO.P,U1,12A,Q3*%
%TO.N,/G3*%
X61820000Y72130000D03*
%TO.P,U1,12J,phase*%
%TO.N,/phase*%
X84680000Y72130000D03*
%TO.P,U1,13A*%
%TO.N,N/C*%
X61820000Y69590000D03*
%TO.P,U1,13J*%
X84680000Y69590000D03*
%TO.P,U1,14A,fan+*%
%TO.N,/fan+*%
X61820000Y67050000D03*
%TO.P,U1,14J,fan-*%
%TO.N,/fan-*%
X84680000Y67050000D03*
%TO.P,U1,15A*%
%TO.N,N/C*%
X61820000Y64510000D03*
%TO.P,U1,15J*%
X84680000Y64510000D03*
%TO.P,U1,16A,-24V*%
%TO.N,/-24V*%
X61820000Y61970000D03*
%TO.P,U1,16J,+24V*%
%TO.N,/+24V*%
X84680000Y61970000D03*
%TO.P,U1,17A*%
%TO.N,N/C*%
X61820000Y59430000D03*
%TO.P,U1,17J*%
X84680000Y59430000D03*
%TO.P,U1,18A*%
X61820000Y56890000D03*
%TO.P,U1,18J,Q7*%
%TO.N,/G7*%
X84680000Y56890000D03*
%TO.P,U1,19A*%
%TO.N,N/C*%
X61820000Y54350000D03*
%TO.P,U1,19J*%
X84680000Y54350000D03*
%TO.P,U1,20A,Q4*%
%TO.N,/G4*%
X61820000Y51810000D03*
%TO.P,U1,20J,-12V*%
%TO.N,/-12V*%
X84680000Y51810000D03*
%TO.P,U1,21A*%
%TO.N,N/C*%
X61820000Y49270000D03*
%TO.P,U1,21J*%
X84680000Y49270000D03*
%TO.P,U1,22A*%
X61820000Y46730000D03*
%TO.P,U1,22J,+12V*%
%TO.N,/+12V*%
X84680000Y46730000D03*
%TO.P,U1,23A*%
%TO.N,N/C*%
X61820000Y44190000D03*
%TO.P,U1,23J*%
X84680000Y44190000D03*
%TO.P,U1,24A*%
X61820000Y41650000D03*
%TO.P,U1,24J,Q8*%
%TO.N,/G8*%
X84680000Y41650000D03*
%TD*%
D16*
%TO.P,Q4,1,G*%
%TO.N,/G4*%
X30705000Y46480000D03*
D15*
%TO.P,Q4,2,D*%
%TO.N,/+60V*%
X28165000Y43940000D03*
%TO.P,Q4,3,S*%
%TO.N,/phase*%
X30705000Y41400000D03*
%TD*%
D16*
%TO.P,Q3,1,G*%
%TO.N,/G3*%
X30705000Y68480000D03*
D15*
%TO.P,Q3,2,D*%
%TO.N,/+60V*%
X28165000Y65940000D03*
%TO.P,Q3,3,S*%
%TO.N,/phase*%
X30705000Y63400000D03*
%TD*%
D26*
%TO.N,*%
X54200000Y72130000D03*
X54200000Y51810000D03*
X54200000Y97530000D03*
X54200000Y77210000D03*
%TO.N,/+60V*%
X27530000Y77210000D03*
%TO.N,/G2*%
X28800000Y97530000D03*
%TO.N,/G3*%
X28800000Y73400000D03*
%TO.N,/G4*%
X28800000Y51810000D03*
%TO.N,/-60V*%
X118970000Y97530000D03*
X92300000Y97530000D03*
%TO.N,/fan+*%
X69440000Y107690000D03*
X70710000Y114040000D03*
%TO.N,/G5*%
X116430000Y102610000D03*
X92300000Y102610000D03*
%TO.N,/G6*%
X116430000Y78480000D03*
X91030000Y78480000D03*
%TO.N,/G7*%
X91030000Y56890000D03*
X116430000Y56890000D03*
%TO.N,/G8*%
X116430000Y36570000D03*
X91030000Y36570000D03*
%TD*%
D27*
%TO.N,/G1*%
X30705000Y112480000D02*
X30705000Y113750000D01*
X61820000Y100070000D02*
X58010000Y100070000D01*
X58010000Y100070000D02*
X54200000Y103880000D01*
X49120000Y115310000D02*
X32265000Y115310000D01*
X54200000Y110230000D02*
X49120000Y115310000D01*
X54200000Y103880000D02*
X54200000Y110230000D01*
X30705000Y113750000D02*
X32265000Y115310000D01*
%TO.N,/+60V*%
X27530000Y77210000D02*
X27210000Y77210000D01*
D28*
X24990000Y110230000D02*
X25280000Y109940000D01*
X26420000Y65940000D02*
X26260000Y65780000D01*
D27*
X61820000Y77210000D02*
X54200000Y77210000D01*
X27530000Y77210000D02*
X27530000Y77470000D01*
D28*
X28165000Y65940000D02*
X26420000Y65940000D01*
X26510000Y43940000D02*
X26260000Y44190000D01*
X28165000Y43940000D02*
X26510000Y43940000D01*
X28165000Y109940000D02*
X25280000Y109940000D01*
X24990000Y87370000D02*
X25498000Y87878000D01*
X28222500Y87878000D02*
X25498000Y87878000D01*
%TO.N,/phase*%
X115795000Y44444000D02*
X112112000Y44444000D01*
D27*
X92300000Y74670000D02*
X97380000Y74670000D01*
X89760000Y72130000D02*
X92300000Y74670000D01*
D28*
X115795000Y88513000D02*
X112239000Y88513000D01*
X32450000Y63400000D02*
X32610000Y63240000D01*
D27*
X84680000Y72130000D02*
X89760000Y72130000D01*
X89760000Y72130000D02*
X92300000Y69590000D01*
X92300000Y69590000D02*
X97380000Y69590000D01*
D28*
X32610000Y107690000D02*
X32320000Y107400000D01*
X30705000Y107400000D02*
X32320000Y107400000D01*
X32610000Y84830000D02*
X32102000Y85338000D01*
X115795000Y66415000D02*
X111731000Y66415000D01*
X30705000Y63400000D02*
X32450000Y63400000D01*
X30705000Y41400000D02*
X32360000Y41400000D01*
X30762500Y85338000D02*
X32102000Y85338000D01*
X115795000Y110484000D02*
X112239000Y110484000D01*
X32360000Y41400000D02*
X32610000Y41650000D01*
D27*
%TO.N,/G2*%
X30762500Y90418000D02*
X30762500Y90487500D01*
X30762500Y90487500D02*
X28800000Y92450000D01*
X61820000Y94990000D02*
X56740000Y94990000D01*
X28800000Y92450000D02*
X28800000Y97530000D01*
X56740000Y94990000D02*
X54200000Y97530000D01*
%TO.N,/G3*%
X30705000Y68480000D02*
X30705000Y68955000D01*
X61820000Y72130000D02*
X54200000Y72130000D01*
X28800000Y70860000D02*
X28800000Y73400000D01*
X30705000Y68955000D02*
X28800000Y70860000D01*
%TO.N,/G4*%
X61820000Y51810000D02*
X54200000Y51810000D01*
X28800000Y48000000D02*
X28800000Y51810000D01*
X30705000Y46480000D02*
X30320000Y46480000D01*
X30320000Y46480000D02*
X28800000Y48000000D01*
%TO.N,/-60V*%
X91030000Y97530000D02*
X92300000Y97530000D01*
X88490000Y94990000D02*
X91030000Y97530000D01*
D28*
X118335000Y46984000D02*
X120494000Y46984000D01*
X118335000Y113024000D02*
X121510000Y113024000D01*
X118970000Y97530000D02*
X120240000Y97530000D01*
X120494000Y46984000D02*
X120621000Y47111000D01*
X118335000Y91053000D02*
X120875000Y91053000D01*
D27*
X84680000Y94990000D02*
X88490000Y94990000D01*
D28*
X118335000Y68955000D02*
X121256000Y68955000D01*
D27*
%TO.N,/fan-*%
X71726000Y111246000D02*
X69694000Y111246000D01*
X64360000Y111246000D02*
X69694000Y111246000D01*
X75536000Y111246000D02*
X73504000Y109214000D01*
X84680000Y67050000D02*
X77060000Y67050000D01*
X79600000Y111246000D02*
X75536000Y111246000D01*
X73504000Y109468000D02*
X71726000Y111246000D01*
X73504000Y70606000D02*
X73504000Y109214000D01*
X77060000Y67050000D02*
X73504000Y70606000D01*
X73504000Y109214000D02*
X73504000Y109468000D01*
%TO.N,/fan+*%
X69440000Y70860000D02*
X69440000Y103880000D01*
X69440000Y107690000D02*
X69440000Y103880000D01*
X65630000Y67050000D02*
X69440000Y70860000D01*
X61820000Y67050000D02*
X65630000Y67050000D01*
X64360000Y113786000D02*
X79600000Y113786000D01*
%TO.N,/G5*%
X116430000Y102610000D02*
X116430000Y106039000D01*
X116430000Y106039000D02*
X118335000Y107944000D01*
X88490000Y100070000D02*
X91030000Y102610000D01*
X91030000Y102610000D02*
X92300000Y102610000D01*
X84680000Y100070000D02*
X88490000Y100070000D01*
%TO.N,/G6*%
X84680000Y79750000D02*
X89760000Y79750000D01*
X89760000Y79750000D02*
X91030000Y78480000D01*
X116430000Y78480000D02*
X116430000Y84068000D01*
X116430000Y84068000D02*
X118335000Y85973000D01*
%TO.N,/G7*%
X116430000Y56890000D02*
X116430000Y61970000D01*
X84680000Y56890000D02*
X91030000Y56890000D01*
X116430000Y61970000D02*
X118335000Y63875000D01*
%TO.N,/G8*%
X116430000Y39999000D02*
X118335000Y41904000D01*
X89760000Y41650000D02*
X91030000Y40380000D01*
X91030000Y36570000D02*
X91030000Y40380000D01*
X116430000Y36570000D02*
X116430000Y39999000D01*
X84680000Y41650000D02*
X89760000Y41650000D01*
%TO.N,/+12V*%
X82140000Y46730000D02*
X84680000Y46730000D01*
X80870000Y35300000D02*
X80870000Y45460000D01*
X83410000Y32760000D02*
X80870000Y35300000D01*
X83410000Y27680000D02*
X83410000Y32760000D01*
X80870000Y45460000D02*
X82140000Y46730000D01*
%TO.N,/-12V*%
X77060000Y48000000D02*
X77060000Y28950000D01*
X84680000Y51810000D02*
X80870000Y51810000D01*
X80870000Y51810000D02*
X77060000Y48000000D01*
X77060000Y28950000D02*
X78330000Y27680000D01*
%TO.N,/+24V*%
X71980000Y56890000D02*
X71980000Y31490000D01*
X77060000Y61970000D02*
X71980000Y56890000D01*
X71980000Y31490000D02*
X68170000Y27680000D01*
X84680000Y61970000D02*
X77060000Y61970000D01*
%TO.N,/-24V*%
X63090000Y27680000D02*
X63090000Y31490000D01*
X63090000Y31490000D02*
X68170000Y36570000D01*
X68170000Y36570000D02*
X68170000Y58160000D01*
X64360000Y61970000D02*
X61820000Y61970000D01*
X68170000Y58160000D02*
X64360000Y61970000D01*
%TO.N,/t1+*%
X61820000Y84830000D02*
X55880000Y84830000D01*
X55880000Y84830000D02*
X54200000Y83150000D01*
%TO.N,/t2+*%
X92000000Y84830000D02*
X92300000Y85130000D01*
X84680000Y84830000D02*
X92000000Y84830000D01*
%TO.N,/t1-*%
X54200000Y90770000D02*
X54610000Y90770000D01*
X54610000Y90770000D02*
X55470000Y89910000D01*
X55470000Y89910000D02*
X56740000Y89910000D01*
X56740000Y89910000D02*
X61820000Y89910000D01*
%TO.N,/t2-*%
X84680000Y89910000D02*
X89460000Y89910000D01*
X89460000Y89910000D02*
X92300000Y92750000D01*
%TD*%
%TA.AperFunction,Conductor*%
%TO.N,/phase*%
G36*
X108892749Y116579880D02*
G01*
X109320284Y116561213D01*
X109331233Y116560255D01*
X109752787Y116504757D01*
X109763613Y116502848D01*
X110178726Y116410819D01*
X110189343Y116407974D01*
X110376029Y116349112D01*
X110594858Y116280116D01*
X110605171Y116276363D01*
X110998024Y116113638D01*
X111007968Y116109000D01*
X111385117Y115912669D01*
X111394637Y115907173D01*
X111753237Y115678719D01*
X111762241Y115672415D01*
X112099579Y115413567D01*
X112107999Y115406501D01*
X112421478Y115119251D01*
X112429251Y115111478D01*
X112716501Y114797999D01*
X112723567Y114789579D01*
X112982415Y114452241D01*
X112988719Y114443237D01*
X113217173Y114084637D01*
X113222669Y114075117D01*
X113418996Y113697977D01*
X113423642Y113688015D01*
X113586360Y113295179D01*
X113590119Y113284850D01*
X113717974Y112879343D01*
X113720819Y112868726D01*
X113812848Y112453613D01*
X113814757Y112442787D01*
X113870255Y112021233D01*
X113871213Y112010283D01*
X113889880Y111582748D01*
X113890000Y111577252D01*
X113890000Y106763986D01*
X113886519Y106734572D01*
X113878489Y106701125D01*
X113877387Y106696866D01*
X113874126Y106685108D01*
X113847193Y106587992D01*
X113846624Y106584184D01*
X113841189Y106547818D01*
X113839091Y106537026D01*
X113830506Y106501267D01*
X113830504Y106501258D01*
X113829607Y106497520D01*
X113829172Y106493701D01*
X113816814Y106385239D01*
X113816240Y106380882D01*
X113799540Y106269135D01*
X113799396Y106265839D01*
X113799396Y106265838D01*
X113797219Y106215968D01*
X113796529Y106207198D01*
X113793110Y106177193D01*
X113793621Y106118636D01*
X113794495Y106018521D01*
X113794500Y106017421D01*
X113794500Y104086362D01*
X113780497Y104030603D01*
X113781168Y104030291D01*
X113635478Y103716430D01*
X113634338Y103712983D01*
X113580038Y103548794D01*
X113526828Y103387903D01*
X113526092Y103384348D01*
X113526091Y103384345D01*
X113473697Y103131342D01*
X113456658Y103049065D01*
X113425898Y102704408D01*
X113425993Y102700778D01*
X113425993Y102700777D01*
X113434861Y102362124D01*
X113434956Y102358499D01*
X113483712Y102015924D01*
X113571519Y101681223D01*
X113697214Y101358833D01*
X113859130Y101053026D01*
X113867841Y101040352D01*
X113890000Y100968986D01*
X113890000Y84792986D01*
X113886519Y84763572D01*
X113878489Y84730125D01*
X113877387Y84725866D01*
X113847193Y84616992D01*
X113846624Y84613184D01*
X113841189Y84576818D01*
X113839091Y84566026D01*
X113830506Y84530267D01*
X113830504Y84530258D01*
X113829607Y84526520D01*
X113829172Y84522701D01*
X113816814Y84414239D01*
X113816240Y84409882D01*
X113799540Y84298135D01*
X113799396Y84294839D01*
X113799396Y84294838D01*
X113797219Y84244968D01*
X113796529Y84236198D01*
X113793110Y84206193D01*
X113793550Y84155784D01*
X113794495Y84047521D01*
X113794500Y84046421D01*
X113794500Y79956362D01*
X113780497Y79900603D01*
X113781168Y79900291D01*
X113635478Y79586430D01*
X113634338Y79582983D01*
X113574859Y79403134D01*
X113526828Y79257903D01*
X113526092Y79254348D01*
X113526091Y79254345D01*
X113489113Y79075784D01*
X113456658Y78919065D01*
X113425898Y78574408D01*
X113434956Y78228499D01*
X113483712Y77885924D01*
X113571519Y77551223D01*
X113697214Y77228833D01*
X113859130Y76923026D01*
X113867841Y76910352D01*
X113890000Y76838986D01*
X113890000Y62694986D01*
X113886519Y62665572D01*
X113878489Y62632125D01*
X113877387Y62627866D01*
X113847193Y62518992D01*
X113846624Y62515184D01*
X113841189Y62478818D01*
X113839091Y62468026D01*
X113830506Y62432267D01*
X113830504Y62432258D01*
X113829607Y62428520D01*
X113829172Y62424701D01*
X113816814Y62316239D01*
X113816240Y62311882D01*
X113799540Y62200135D01*
X113799396Y62196839D01*
X113799396Y62196838D01*
X113797219Y62146968D01*
X113796529Y62138198D01*
X113793110Y62108193D01*
X113794190Y61984491D01*
X113794495Y61949521D01*
X113794500Y61948421D01*
X113794500Y58366362D01*
X113780497Y58310603D01*
X113781168Y58310291D01*
X113635478Y57996430D01*
X113526828Y57667903D01*
X113456658Y57329065D01*
X113425898Y56984408D01*
X113434956Y56638499D01*
X113483712Y56295924D01*
X113571519Y55961223D01*
X113697214Y55638833D01*
X113859130Y55333026D01*
X113867841Y55320352D01*
X113890000Y55248986D01*
X113890000Y40723986D01*
X113886519Y40694572D01*
X113878489Y40661125D01*
X113877387Y40656866D01*
X113847193Y40547992D01*
X113846624Y40544184D01*
X113841189Y40507818D01*
X113839091Y40497026D01*
X113830506Y40461267D01*
X113830504Y40461258D01*
X113829607Y40457520D01*
X113829172Y40453701D01*
X113816814Y40345239D01*
X113816240Y40340882D01*
X113799540Y40229135D01*
X113799396Y40225839D01*
X113799396Y40225838D01*
X113797219Y40175968D01*
X113796529Y40167198D01*
X113793110Y40137193D01*
X113793692Y40070522D01*
X113794495Y39978521D01*
X113794500Y39977421D01*
X113794500Y38046362D01*
X113780497Y37990603D01*
X113781168Y37990291D01*
X113635478Y37676430D01*
X113634338Y37672983D01*
X113561783Y37453596D01*
X113526828Y37347903D01*
X113526092Y37344348D01*
X113526091Y37344345D01*
X113457393Y37012615D01*
X113456658Y37009065D01*
X113425898Y36664408D01*
X113434956Y36318499D01*
X113483712Y35975924D01*
X113571519Y35641223D01*
X113697214Y35318833D01*
X113698911Y35315628D01*
X113769329Y35182632D01*
X113859130Y35013026D01*
X113867841Y35000352D01*
X113890000Y34928986D01*
X113890000Y27303226D01*
X113889871Y27297518D01*
X113869736Y26853521D01*
X113868702Y26842152D01*
X113808856Y26404655D01*
X113806798Y26393426D01*
X113707600Y25963141D01*
X113704535Y25952145D01*
X113566794Y25532585D01*
X113562745Y25521911D01*
X113387601Y25116552D01*
X113382603Y25106289D01*
X113171491Y24718449D01*
X113165585Y24708680D01*
X112920228Y24341527D01*
X112913469Y24332343D01*
X112635888Y23988904D01*
X112628318Y23980360D01*
X112486641Y23834361D01*
X112318796Y23661396D01*
X112314752Y23657414D01*
X102803161Y14705328D01*
X93746103Y6181038D01*
X93741678Y6177066D01*
X93390052Y5876109D01*
X93380666Y5868813D01*
X93004658Y5604038D01*
X92994625Y5597660D01*
X92595360Y5369515D01*
X92584771Y5364110D01*
X92165771Y5174605D01*
X92154721Y5170222D01*
X91719702Y5021044D01*
X91708310Y5017729D01*
X91261175Y4910216D01*
X91249517Y4907989D01*
X90794240Y4843095D01*
X90782426Y4841976D01*
X90332843Y4820743D01*
X90320078Y4820140D01*
X90314134Y4820000D01*
X56103856Y4820000D01*
X56098136Y4820130D01*
X56097916Y4820140D01*
X55653184Y4840351D01*
X55641796Y4841389D01*
X55532911Y4856316D01*
X55203352Y4901498D01*
X55192111Y4903562D01*
X54760891Y5003199D01*
X54749911Y5006268D01*
X54329537Y5144600D01*
X54318848Y5148663D01*
X54269074Y5170222D01*
X53912752Y5324556D01*
X53902471Y5329575D01*
X53514008Y5541574D01*
X53504225Y5547505D01*
X53136588Y5793870D01*
X53127399Y5800652D01*
X52781404Y6081148D01*
X52777066Y6084830D01*
X45564587Y12495923D01*
X69245065Y12495923D01*
X69258722Y12104843D01*
X69310477Y11716962D01*
X69399834Y11335983D01*
X69400823Y11333077D01*
X69400825Y11333071D01*
X69524950Y10968457D01*
X69524955Y10968445D01*
X69525943Y10965542D01*
X69687598Y10609174D01*
X69883258Y10270283D01*
X69885047Y10267784D01*
X69885049Y10267781D01*
X69982831Y10131201D01*
X70111053Y9952101D01*
X70368810Y9657667D01*
X70654069Y9389792D01*
X70964107Y9151031D01*
X70966710Y9149404D01*
X70966715Y9149401D01*
X71085687Y9075059D01*
X71295964Y8943663D01*
X71646472Y8769669D01*
X72012287Y8630710D01*
X72389915Y8528110D01*
X72392958Y8527595D01*
X72392964Y8527594D01*
X72772713Y8463364D01*
X72772720Y8463363D01*
X72775754Y8462850D01*
X72778825Y8462635D01*
X72778827Y8462635D01*
X73163053Y8435767D01*
X73163061Y8435767D01*
X73166119Y8435553D01*
X73419704Y8442637D01*
X73554211Y8446394D01*
X73554214Y8446394D01*
X73557285Y8446480D01*
X73560338Y8446866D01*
X73560342Y8446866D01*
X73746145Y8470338D01*
X73945517Y8495525D01*
X73948521Y8496207D01*
X73948524Y8496208D01*
X74324115Y8581540D01*
X74324121Y8581542D01*
X74327111Y8582221D01*
X74472875Y8630710D01*
X74695500Y8704767D01*
X74695506Y8704769D01*
X74698424Y8705740D01*
X74839551Y8768574D01*
X75053111Y8863657D01*
X75053117Y8863660D01*
X75055911Y8864904D01*
X75131188Y8907667D01*
X75393492Y9056676D01*
X75393498Y9056680D01*
X75396160Y9058192D01*
X75715924Y9283761D01*
X76012150Y9539456D01*
X76014271Y9541683D01*
X76014277Y9541689D01*
X76279894Y9820615D01*
X76282011Y9822838D01*
X76373033Y9939340D01*
X76521021Y10128756D01*
X76521023Y10128759D01*
X76522931Y10131201D01*
X76524587Y10133811D01*
X76524593Y10133819D01*
X76730957Y10458997D01*
X76730959Y10459000D01*
X76732610Y10461602D01*
X76909046Y10810888D01*
X77050557Y11175723D01*
X77155790Y11552626D01*
X77223742Y11938000D01*
X77236580Y12104843D01*
X77253613Y12326211D01*
X77253613Y12326222D01*
X77253763Y12328165D01*
X77255325Y12440000D01*
X77236209Y12830851D01*
X77179044Y13217972D01*
X77084376Y13597666D01*
X77053979Y13683032D01*
X76954139Y13963412D01*
X76953107Y13966311D01*
X76786492Y14320386D01*
X76757167Y14369580D01*
X76587700Y14653862D01*
X76586120Y14656513D01*
X76353905Y14971483D01*
X76092061Y15262289D01*
X75803090Y15526156D01*
X75489749Y15760565D01*
X75436075Y15793071D01*
X75157658Y15961687D01*
X75157649Y15961692D01*
X75155030Y15963278D01*
X74802126Y16132362D01*
X74799237Y16133414D01*
X74799231Y16133416D01*
X74437306Y16265145D01*
X74437303Y16265146D01*
X74434407Y16266200D01*
X74157326Y16337342D01*
X74058366Y16362751D01*
X74058363Y16362752D01*
X74055382Y16363517D01*
X73668670Y16423383D01*
X73665613Y16423554D01*
X73665612Y16423554D01*
X73635120Y16425259D01*
X73277962Y16445227D01*
X73274883Y16445098D01*
X73274880Y16445098D01*
X73018770Y16434364D01*
X72886987Y16428841D01*
X72883943Y16428413D01*
X72883941Y16428413D01*
X72849368Y16423554D01*
X72499477Y16374380D01*
X72119131Y16282364D01*
X71749579Y16153673D01*
X71746781Y16152380D01*
X71397146Y15990826D01*
X71397136Y15990821D01*
X71394349Y15989533D01*
X71285829Y15925865D01*
X71059486Y15793071D01*
X71059481Y15793068D01*
X71056831Y15791513D01*
X71016433Y15762162D01*
X70742730Y15563306D01*
X70742721Y15563299D01*
X70740248Y15561502D01*
X70737958Y15559469D01*
X70737952Y15559464D01*
X70449924Y15303740D01*
X70447621Y15301695D01*
X70181743Y15014573D01*
X69945152Y14702876D01*
X69861863Y14567491D01*
X69747122Y14380982D01*
X69740107Y14369580D01*
X69568564Y14017865D01*
X69432162Y13651090D01*
X69332201Y13272754D01*
X69269637Y12886469D01*
X69245065Y12495923D01*
X45564587Y12495923D01*
X33858271Y22901537D01*
X33020380Y23646330D01*
X33016067Y23650348D01*
X32895475Y23768114D01*
X32687005Y23971697D01*
X32678951Y23980337D01*
X32678932Y23980360D01*
X32383358Y24328821D01*
X32376146Y24338179D01*
X32114482Y24712831D01*
X32108179Y24722823D01*
X31968350Y24969394D01*
X31882750Y25120338D01*
X31877415Y25130869D01*
X31690213Y25547738D01*
X31685884Y25558731D01*
X31538549Y25991301D01*
X31535268Y26002649D01*
X31429091Y26447121D01*
X31426888Y26458728D01*
X31362807Y26911193D01*
X31361701Y26922955D01*
X31340139Y27382368D01*
X31340000Y27388275D01*
X31340000Y43407352D01*
X31360002Y43475473D01*
X31413658Y43521966D01*
X31447267Y43531952D01*
X31502161Y43540205D01*
X31753226Y43577951D01*
X31757086Y43579047D01*
X31757091Y43579048D01*
X31908088Y43621919D01*
X32057208Y43664256D01*
X32077065Y43672746D01*
X32118682Y43690540D01*
X32347760Y43788487D01*
X32620171Y43948629D01*
X32623342Y43951084D01*
X32866861Y44139637D01*
X32866865Y44139640D01*
X32870026Y44142088D01*
X33062202Y44334600D01*
X33090438Y44362885D01*
X33093274Y44365726D01*
X33095729Y44368908D01*
X33283842Y44612737D01*
X33283843Y44612738D01*
X33286296Y44615918D01*
X33445963Y44888608D01*
X33447531Y44892293D01*
X33447535Y44892301D01*
X33560861Y45158636D01*
X33569686Y45179376D01*
X33650660Y45466489D01*
X33654370Y45479642D01*
X33654371Y45479647D01*
X33655460Y45483508D01*
X33701895Y45796074D01*
X33705500Y45882089D01*
X33705499Y46489206D01*
X38605667Y46489206D01*
X38605817Y46486025D01*
X38619574Y46194312D01*
X38623700Y46106809D01*
X38680285Y45728192D01*
X38774842Y45357231D01*
X38906402Y44997725D01*
X39073620Y44653354D01*
X39075292Y44650647D01*
X39075293Y44650645D01*
X39232049Y44396837D01*
X39232907Y44395426D01*
X39262906Y44345400D01*
X39264856Y44342799D01*
X39265974Y44341134D01*
X39271055Y44333680D01*
X39274782Y44327645D01*
X39276733Y44325102D01*
X39276734Y44325101D01*
X39335765Y44248171D01*
X39336624Y44247038D01*
X39494727Y44036081D01*
X39496926Y44033702D01*
X39496927Y44033701D01*
X39667954Y43848686D01*
X39757116Y43752231D01*
X39759550Y43750089D01*
X40025786Y43515784D01*
X40047293Y43496856D01*
X40049935Y43494975D01*
X40049940Y43494971D01*
X40287962Y43325505D01*
X40362183Y43272661D01*
X40364999Y43271064D01*
X40365003Y43271062D01*
X40484977Y43203046D01*
X40698450Y43082023D01*
X40701414Y43080725D01*
X40701418Y43080723D01*
X40726420Y43069774D01*
X41052533Y42926960D01*
X41055616Y42925973D01*
X41055619Y42925972D01*
X41107165Y42909472D01*
X41420679Y42809115D01*
X41609833Y42769426D01*
X41795808Y42730404D01*
X41795812Y42730403D01*
X41798988Y42729737D01*
X42183453Y42689668D01*
X42185879Y42689604D01*
X42185886Y42689604D01*
X42187477Y42689563D01*
X42189868Y42689500D01*
X42476620Y42689500D01*
X42478229Y42689583D01*
X42478232Y42689583D01*
X42535810Y42692550D01*
X42766035Y42704414D01*
X43010674Y42742505D01*
X43144771Y42763384D01*
X43144775Y42763385D01*
X43147981Y42763884D01*
X43314524Y42807731D01*
X43314584Y42807501D01*
X43315383Y42807903D01*
X43317085Y42808243D01*
X43320134Y42809181D01*
X43321414Y42809505D01*
X43323237Y42810025D01*
X43521790Y42862300D01*
X43646956Y42909472D01*
X43654343Y42911997D01*
X43679942Y42919872D01*
X43679945Y42919873D01*
X43682984Y42920808D01*
X43685912Y42922045D01*
X43685918Y42922047D01*
X43729907Y42940629D01*
X43734502Y42942465D01*
X43880465Y42997474D01*
X43880472Y42997477D01*
X43883502Y42998619D01*
X43969128Y43041403D01*
X43976410Y43044756D01*
X44032688Y43068529D01*
X44032697Y43068533D01*
X44035634Y43069774D01*
X44086864Y43097822D01*
X44135208Y43124289D01*
X44139397Y43126482D01*
X44226396Y43169953D01*
X44226395Y43169953D01*
X44229286Y43171397D01*
X44275584Y43200835D01*
X44282681Y43205028D01*
X44285448Y43206543D01*
X44371425Y43253614D01*
X44528259Y43361403D01*
X44531967Y43363856D01*
X44555478Y43378805D01*
X44564744Y43386135D01*
X44571515Y43391132D01*
X44686919Y43470447D01*
X44689358Y43472515D01*
X44689364Y43472520D01*
X44976445Y43715982D01*
X44976453Y43715990D01*
X44978885Y43718052D01*
X44981093Y43720347D01*
X44981101Y43720354D01*
X45179716Y43926746D01*
X45244335Y43993895D01*
X45249785Y44000845D01*
X45297912Y44062224D01*
X45480550Y44295151D01*
X45685112Y44618736D01*
X45686532Y44621584D01*
X45686537Y44621593D01*
X45854506Y44958489D01*
X45855926Y44961337D01*
X45991244Y45319446D01*
X46089681Y45689396D01*
X46096400Y45731340D01*
X46149722Y46064249D01*
X46150227Y46067400D01*
X46152500Y46106809D01*
X46172166Y46447894D01*
X46172264Y46449587D01*
X46172356Y46476000D01*
X46171877Y46485467D01*
X46153149Y46855159D01*
X46153148Y46855164D01*
X46152988Y46858332D01*
X46116357Y47097719D01*
X46095566Y47233589D01*
X46095564Y47233598D01*
X46095082Y47236749D01*
X46059051Y47376071D01*
X46000028Y47604298D01*
X46000025Y47604306D01*
X45999231Y47607378D01*
X45866416Y47966422D01*
X45865017Y47969278D01*
X45699399Y48307348D01*
X45699396Y48307354D01*
X45697998Y48310207D01*
X45495700Y48635213D01*
X45416407Y48737807D01*
X45263546Y48935586D01*
X45263541Y48935591D01*
X45261594Y48938111D01*
X44998076Y49215800D01*
X44707846Y49465438D01*
X44695255Y49474222D01*
X44396486Y49682645D01*
X44393873Y49684468D01*
X44059374Y49870648D01*
X44056454Y49871906D01*
X44056449Y49871908D01*
X43710706Y50020808D01*
X43710696Y50020812D01*
X43707772Y50022071D01*
X43342668Y50137188D01*
X43042033Y50199447D01*
X42970925Y50214173D01*
X42970922Y50214173D01*
X42967800Y50214820D01*
X42673909Y50245191D01*
X42590162Y50253845D01*
X42590159Y50253845D01*
X42587006Y50254171D01*
X42583840Y50254177D01*
X42583831Y50254177D01*
X42394879Y50254506D01*
X42204184Y50254839D01*
X42014326Y50235889D01*
X41826428Y50217134D01*
X41826422Y50217133D01*
X41823255Y50216817D01*
X41694615Y50190645D01*
X41451243Y50141131D01*
X41451239Y50141130D01*
X41448118Y50140495D01*
X41445076Y50139548D01*
X41445070Y50139546D01*
X41293881Y50092455D01*
X41082614Y50026653D01*
X41079686Y50025404D01*
X40733416Y49877708D01*
X40733412Y49877706D01*
X40730486Y49876458D01*
X40727707Y49874924D01*
X40727701Y49874921D01*
X40474170Y49734964D01*
X40395339Y49691447D01*
X40392718Y49689632D01*
X40392713Y49689629D01*
X40385260Y49684468D01*
X40080604Y49473514D01*
X39789503Y49224891D01*
X39787303Y49222589D01*
X39787300Y49222586D01*
X39741348Y49174500D01*
X39525018Y48948123D01*
X39523061Y48945609D01*
X39523060Y48945608D01*
X39421656Y48815348D01*
X39289856Y48646044D01*
X39288160Y48643340D01*
X39288157Y48643336D01*
X39281362Y48632504D01*
X39086425Y48321747D01*
X38916808Y47978552D01*
X38782740Y47619973D01*
X38685596Y47249681D01*
X38685103Y47246532D01*
X38685101Y47246523D01*
X38646557Y47000381D01*
X38626370Y46871468D01*
X38626199Y46868302D01*
X38626198Y46868297D01*
X38624800Y46842478D01*
X38605667Y46489206D01*
X33705499Y46489206D01*
X33705499Y47077910D01*
X33701529Y47168242D01*
X33654549Y47480726D01*
X33568244Y47784708D01*
X33444013Y48075260D01*
X33283871Y48347671D01*
X33185730Y48474422D01*
X33092863Y48594361D01*
X33092860Y48594365D01*
X33090412Y48597526D01*
X32882996Y48804580D01*
X32869615Y48817938D01*
X32866774Y48820774D01*
X32650451Y48987666D01*
X32619763Y49011342D01*
X32619762Y49011343D01*
X32616582Y49013796D01*
X32613123Y49015822D01*
X32613119Y49015824D01*
X32414698Y49132004D01*
X32343892Y49173463D01*
X32340207Y49175031D01*
X32340199Y49175035D01*
X32123203Y49267367D01*
X32053124Y49297186D01*
X31830537Y49359962D01*
X31752858Y49381870D01*
X31752853Y49381871D01*
X31748992Y49382960D01*
X31745025Y49383549D01*
X31745022Y49383550D01*
X31542984Y49413565D01*
X31478542Y49443360D01*
X31440439Y49503265D01*
X31435500Y49538197D01*
X31435500Y50342098D01*
X31448935Y50398712D01*
X31556763Y50613102D01*
X31556766Y50613110D01*
X31558390Y50616338D01*
X31569185Y50645836D01*
X31676057Y50937878D01*
X31676060Y50937888D01*
X31677305Y50941290D01*
X31678150Y50944812D01*
X31678153Y50944820D01*
X31757237Y51274228D01*
X31757238Y51274232D01*
X31758084Y51277757D01*
X31799654Y51621278D01*
X31805585Y51810000D01*
X31805424Y51812796D01*
X31785875Y52151833D01*
X31785874Y52151838D01*
X31785666Y52155453D01*
X31726174Y52496328D01*
X31627897Y52828106D01*
X31492138Y53146389D01*
X31356552Y53384097D01*
X31340000Y53446524D01*
X31340000Y65407352D01*
X31360002Y65475473D01*
X31413658Y65521966D01*
X31447267Y65531952D01*
X31479021Y65536726D01*
X31753226Y65577951D01*
X31757086Y65579047D01*
X31757091Y65579048D01*
X31908088Y65621919D01*
X32057208Y65664256D01*
X32347760Y65788487D01*
X32620171Y65948629D01*
X32665600Y65983804D01*
X32866861Y66139637D01*
X32866865Y66139640D01*
X32870026Y66142088D01*
X33093274Y66365726D01*
X33101034Y66375784D01*
X33283842Y66612737D01*
X33283843Y66612738D01*
X33286296Y66615918D01*
X33445963Y66888608D01*
X33447531Y66892293D01*
X33447535Y66892301D01*
X33568114Y67175682D01*
X33569686Y67179376D01*
X33622910Y67368094D01*
X33654370Y67479642D01*
X33654371Y67479647D01*
X33655460Y67483508D01*
X33676426Y67624639D01*
X33701405Y67792775D01*
X33701405Y67792777D01*
X33701895Y67796074D01*
X33705500Y67882089D01*
X33705499Y69077910D01*
X33701529Y69168242D01*
X33654549Y69480726D01*
X33650639Y69494500D01*
X33569343Y69780836D01*
X33568244Y69784708D01*
X33444013Y70075260D01*
X33283871Y70347671D01*
X33281416Y70350842D01*
X33092863Y70594361D01*
X33092860Y70594365D01*
X33090412Y70597526D01*
X32866774Y70820774D01*
X32696484Y70952152D01*
X32619763Y71011342D01*
X32619762Y71011343D01*
X32616582Y71013796D01*
X32613123Y71015822D01*
X32613119Y71015824D01*
X32347357Y71171434D01*
X32343892Y71173463D01*
X32340207Y71175031D01*
X32340199Y71175035D01*
X32139749Y71260327D01*
X32099987Y71287173D01*
X31496416Y71890744D01*
X31462390Y71953056D01*
X31467455Y72023871D01*
X31472941Y72036443D01*
X31558390Y72206338D01*
X31625304Y72389190D01*
X31676057Y72527878D01*
X31676060Y72527888D01*
X31677305Y72531290D01*
X31678150Y72534812D01*
X31678153Y72534820D01*
X31757237Y72864228D01*
X31757238Y72864232D01*
X31758084Y72867757D01*
X31785546Y73094690D01*
X31799318Y73208499D01*
X31799318Y73208505D01*
X31799654Y73211278D01*
X31800445Y73236430D01*
X31805497Y73397203D01*
X31805585Y73400000D01*
X31805424Y73402796D01*
X31785875Y73741833D01*
X31785874Y73741838D01*
X31785666Y73745453D01*
X31768235Y73845328D01*
X31726798Y74082755D01*
X31726796Y74082762D01*
X31726174Y74086328D01*
X31716903Y74117629D01*
X31647506Y74351906D01*
X31627897Y74418106D01*
X31526636Y74655509D01*
X31493562Y74733051D01*
X31493560Y74733054D01*
X31492138Y74736389D01*
X31356552Y74974097D01*
X31340000Y75036524D01*
X31340000Y87341433D01*
X31360002Y87409554D01*
X31413658Y87456047D01*
X31460462Y87467311D01*
X31498242Y87468971D01*
X31810726Y87515951D01*
X31814586Y87517047D01*
X31814591Y87517048D01*
X31999036Y87569415D01*
X32114708Y87602256D01*
X32405260Y87726487D01*
X32677671Y87886629D01*
X32717782Y87917686D01*
X32924361Y88077637D01*
X32924365Y88077640D01*
X32927526Y88080088D01*
X33150774Y88303726D01*
X33174663Y88334690D01*
X33341342Y88550737D01*
X33341343Y88550738D01*
X33343796Y88553918D01*
X33377746Y88611899D01*
X33501434Y88823143D01*
X33503463Y88826608D01*
X33505031Y88830293D01*
X33505035Y88830301D01*
X33625614Y89113682D01*
X33627186Y89117376D01*
X33712960Y89421508D01*
X33759395Y89734074D01*
X33763000Y89820089D01*
X33762999Y91015910D01*
X33759029Y91106242D01*
X33712049Y91418726D01*
X33625744Y91722708D01*
X33501513Y92013260D01*
X33341371Y92285671D01*
X33327276Y92303875D01*
X33150363Y92532361D01*
X33150360Y92532365D01*
X33147912Y92535526D01*
X32924274Y92758774D01*
X32674082Y92951796D01*
X32670623Y92953822D01*
X32670619Y92953824D01*
X32404857Y93109434D01*
X32401392Y93111463D01*
X32397707Y93113031D01*
X32397699Y93113035D01*
X32114318Y93233614D01*
X32110624Y93235186D01*
X31934065Y93284981D01*
X31810358Y93319870D01*
X31810353Y93319871D01*
X31806492Y93320960D01*
X31802525Y93321549D01*
X31802522Y93321550D01*
X31671133Y93341069D01*
X31606691Y93370864D01*
X31600554Y93376606D01*
X31472405Y93504755D01*
X31438379Y93567067D01*
X31435500Y93593850D01*
X31435500Y96062098D01*
X31448935Y96118712D01*
X31556763Y96333102D01*
X31556766Y96333110D01*
X31558390Y96336338D01*
X31559635Y96339740D01*
X31676057Y96657878D01*
X31676060Y96657888D01*
X31677305Y96661290D01*
X31678150Y96664812D01*
X31678153Y96664820D01*
X31757237Y96994228D01*
X31757238Y96994232D01*
X31758084Y96997757D01*
X31780517Y97183134D01*
X31799318Y97338499D01*
X31799318Y97338505D01*
X31799654Y97341278D01*
X31805585Y97530000D01*
X31805424Y97532796D01*
X31785875Y97871833D01*
X31785874Y97871838D01*
X31785666Y97875453D01*
X31726174Y98216328D01*
X31627897Y98548106D01*
X31626473Y98551445D01*
X31493562Y98863051D01*
X31493560Y98863054D01*
X31492138Y98866389D01*
X31356552Y99104097D01*
X31340000Y99166524D01*
X31340000Y107449206D01*
X38605667Y107449206D01*
X38605817Y107446025D01*
X38619593Y107153908D01*
X38623700Y107066809D01*
X38680285Y106688192D01*
X38681071Y106685110D01*
X38681071Y106685108D01*
X38706834Y106584038D01*
X38774842Y106317231D01*
X38906402Y105957725D01*
X39073620Y105613354D01*
X39274782Y105287645D01*
X39381303Y105148824D01*
X39437853Y105075127D01*
X39507829Y104983932D01*
X39770376Y104705324D01*
X39772781Y104703240D01*
X39772787Y104703235D01*
X39963801Y104537774D01*
X40059733Y104454675D01*
X40372939Y104234550D01*
X40494127Y104166543D01*
X40698157Y104052047D01*
X40706787Y104047204D01*
X40709701Y104045937D01*
X40709705Y104045935D01*
X40745684Y104030291D01*
X41057858Y103894554D01*
X41221453Y103842344D01*
X41419514Y103779134D01*
X41419522Y103779132D01*
X41422558Y103778163D01*
X41625958Y103735300D01*
X41794034Y103699880D01*
X41794039Y103699879D01*
X41797153Y103699223D01*
X42177807Y103658543D01*
X42180994Y103658526D01*
X42181000Y103658526D01*
X42354852Y103657616D01*
X42560624Y103656539D01*
X42705184Y103670459D01*
X42938519Y103692926D01*
X42938524Y103692927D01*
X42941684Y103693231D01*
X42944804Y103693854D01*
X42944808Y103693855D01*
X43313957Y103767618D01*
X43313956Y103767618D01*
X43317085Y103768243D01*
X43598105Y103854696D01*
X43679942Y103879872D01*
X43679945Y103879873D01*
X43682984Y103880808D01*
X43685912Y103882045D01*
X43685918Y103882047D01*
X43899224Y103972152D01*
X44035634Y104029774D01*
X44038437Y104031308D01*
X44038442Y104031311D01*
X44182948Y104110426D01*
X44371425Y104213614D01*
X44686919Y104430447D01*
X44689358Y104432515D01*
X44689364Y104432520D01*
X44976445Y104675982D01*
X44976453Y104675990D01*
X44978885Y104678052D01*
X44981093Y104680347D01*
X44981101Y104680354D01*
X45227724Y104936634D01*
X45244335Y104953895D01*
X45249785Y104960845D01*
X45364109Y105106649D01*
X45480550Y105255151D01*
X45502814Y105290368D01*
X45630237Y105491932D01*
X45685112Y105578736D01*
X45686532Y105581584D01*
X45686537Y105581593D01*
X45854506Y105918489D01*
X45855926Y105921337D01*
X45991244Y106279446D01*
X46018234Y106380879D01*
X46048253Y106493701D01*
X46089681Y106649396D01*
X46096400Y106691340D01*
X46149722Y107024249D01*
X46150227Y107027400D01*
X46152500Y107066809D01*
X46172166Y107407894D01*
X46172264Y107409587D01*
X46172356Y107436000D01*
X46172230Y107438499D01*
X46153149Y107815159D01*
X46153148Y107815164D01*
X46152988Y107818332D01*
X46095082Y108196749D01*
X46060756Y108329479D01*
X46000028Y108564298D01*
X46000025Y108564306D01*
X45999231Y108567378D01*
X45866416Y108926422D01*
X45865017Y108929278D01*
X45699399Y109267348D01*
X45699396Y109267354D01*
X45697998Y109270207D01*
X45495700Y109595213D01*
X45347828Y109786537D01*
X45263546Y109895586D01*
X45263541Y109895591D01*
X45261594Y109898111D01*
X44998076Y110175800D01*
X44707846Y110425438D01*
X44393873Y110644468D01*
X44152181Y110778992D01*
X44062159Y110829098D01*
X44062157Y110829099D01*
X44059374Y110830648D01*
X44056454Y110831906D01*
X44056449Y110831908D01*
X43710706Y110980808D01*
X43710696Y110980812D01*
X43707772Y110982071D01*
X43342668Y111097188D01*
X43034582Y111160990D01*
X42970925Y111174173D01*
X42970922Y111174173D01*
X42967800Y111174820D01*
X42673909Y111205191D01*
X42590162Y111213845D01*
X42590159Y111213845D01*
X42587006Y111214171D01*
X42583840Y111214177D01*
X42583831Y111214177D01*
X42394879Y111214506D01*
X42204184Y111214839D01*
X42014326Y111195889D01*
X41826428Y111177134D01*
X41826422Y111177133D01*
X41823255Y111176817D01*
X41678365Y111147339D01*
X41451243Y111101131D01*
X41451239Y111101130D01*
X41448118Y111100495D01*
X41445076Y111099548D01*
X41445070Y111099546D01*
X41313220Y111058479D01*
X41082614Y110986653D01*
X41079686Y110985404D01*
X40733416Y110837708D01*
X40733412Y110837706D01*
X40730486Y110836458D01*
X40727707Y110834924D01*
X40727701Y110834921D01*
X40626386Y110778992D01*
X40395339Y110651447D01*
X40392718Y110649632D01*
X40392713Y110649629D01*
X40338845Y110612329D01*
X40080604Y110433514D01*
X39789503Y110184891D01*
X39787303Y110182589D01*
X39787300Y110182586D01*
X39711450Y110103213D01*
X39525018Y109908123D01*
X39523061Y109905609D01*
X39523060Y109905608D01*
X39335173Y109664256D01*
X39289856Y109606044D01*
X39288160Y109603340D01*
X39288157Y109603336D01*
X39281362Y109592504D01*
X39086425Y109281747D01*
X38916808Y108938552D01*
X38782740Y108579973D01*
X38685596Y108209681D01*
X38685103Y108206532D01*
X38685101Y108206523D01*
X38683076Y108193589D01*
X38626370Y107831468D01*
X38626199Y107828302D01*
X38626198Y107828297D01*
X38624980Y107805807D01*
X38605667Y107449206D01*
X31340000Y107449206D01*
X31340000Y109407352D01*
X31360002Y109475473D01*
X31413658Y109521966D01*
X31447267Y109531952D01*
X31753226Y109577951D01*
X31757086Y109579047D01*
X31757091Y109579048D01*
X31908088Y109621919D01*
X32057208Y109664256D01*
X32074607Y109671695D01*
X32118682Y109690540D01*
X32347760Y109788487D01*
X32620171Y109948629D01*
X32624117Y109951684D01*
X32866861Y110139637D01*
X32866865Y110139640D01*
X32870026Y110142088D01*
X33039522Y110311880D01*
X33090438Y110362885D01*
X33093274Y110365726D01*
X33100120Y110374600D01*
X33283842Y110612737D01*
X33283843Y110612738D01*
X33286296Y110615918D01*
X33301946Y110642645D01*
X33443934Y110885143D01*
X33445963Y110888608D01*
X33447531Y110892293D01*
X33447535Y110892301D01*
X33556054Y111147339D01*
X33569686Y111179376D01*
X33637528Y111419926D01*
X33654370Y111479642D01*
X33654371Y111479647D01*
X33655460Y111483508D01*
X33688359Y111704962D01*
X33701405Y111792775D01*
X33701405Y111792777D01*
X33701895Y111796074D01*
X33705500Y111882089D01*
X33705499Y112548501D01*
X33725501Y112616621D01*
X33779157Y112663114D01*
X33831499Y112674500D01*
X47976150Y112674500D01*
X48044271Y112654498D01*
X48065245Y112637595D01*
X50353095Y110349745D01*
X50387121Y110287433D01*
X50390000Y110260650D01*
X50390000Y26410000D01*
X54200000Y22600000D01*
X92300000Y22600000D01*
X96110000Y26410000D01*
X96110000Y46997206D01*
X100327667Y46997206D01*
X100327817Y46994025D01*
X100336857Y46802337D01*
X100345700Y46614809D01*
X100402285Y46236192D01*
X100403071Y46233110D01*
X100403071Y46233108D01*
X100448271Y46055784D01*
X100496842Y45865231D01*
X100628402Y45505725D01*
X100795620Y45161354D01*
X100797299Y45158636D01*
X100961791Y44892301D01*
X100996782Y44835645D01*
X100998726Y44833112D01*
X101221414Y44542899D01*
X101229829Y44531932D01*
X101492376Y44253324D01*
X101494781Y44251240D01*
X101494787Y44251235D01*
X101666413Y44102568D01*
X101781733Y44002675D01*
X102094939Y43782550D01*
X102428787Y43595204D01*
X102431701Y43593937D01*
X102431705Y43593935D01*
X102546711Y43543929D01*
X102779858Y43442554D01*
X102940962Y43391139D01*
X103141514Y43327134D01*
X103141522Y43327132D01*
X103144558Y43326163D01*
X103347958Y43283300D01*
X103516034Y43247880D01*
X103516039Y43247879D01*
X103519153Y43247223D01*
X103899807Y43206543D01*
X103902994Y43206526D01*
X103903000Y43206526D01*
X104076852Y43205616D01*
X104282624Y43204539D01*
X104498339Y43225310D01*
X104660519Y43240926D01*
X104660524Y43240927D01*
X104663684Y43241231D01*
X104666804Y43241854D01*
X104666808Y43241855D01*
X105035957Y43315618D01*
X105035956Y43315618D01*
X105039085Y43316243D01*
X105335240Y43407352D01*
X105401942Y43427872D01*
X105401945Y43427873D01*
X105404984Y43428808D01*
X105407912Y43430045D01*
X105407918Y43430047D01*
X105610884Y43515784D01*
X105757634Y43577774D01*
X105760437Y43579308D01*
X105760442Y43579311D01*
X105915597Y43664256D01*
X106093425Y43761614D01*
X106408919Y43978447D01*
X106411358Y43980515D01*
X106411364Y43980520D01*
X106698445Y44223982D01*
X106698453Y44223990D01*
X106700885Y44226052D01*
X106703093Y44228347D01*
X106703101Y44228354D01*
X106832167Y44362474D01*
X106966335Y44501895D01*
X107202550Y44803151D01*
X107224814Y44838368D01*
X107405403Y45124033D01*
X107407112Y45126736D01*
X107408532Y45129584D01*
X107408537Y45129593D01*
X107573602Y45460665D01*
X107577926Y45469337D01*
X107713244Y45827446D01*
X107728135Y45883408D01*
X107752525Y45975075D01*
X107811681Y46197396D01*
X107818400Y46239340D01*
X107856306Y46476000D01*
X107872227Y46575400D01*
X107874500Y46614809D01*
X107888722Y46861479D01*
X107894264Y46957587D01*
X107894356Y46984000D01*
X107889669Y47076538D01*
X107875149Y47363159D01*
X107875148Y47363164D01*
X107874988Y47366332D01*
X107836646Y47616900D01*
X107817566Y47741589D01*
X107817564Y47741598D01*
X107817082Y47744749D01*
X107732561Y48071568D01*
X107722028Y48112298D01*
X107722025Y48112306D01*
X107721231Y48115378D01*
X107716765Y48127453D01*
X107643892Y48324452D01*
X107588416Y48474422D01*
X107587017Y48477278D01*
X107421399Y48815348D01*
X107421396Y48815354D01*
X107419998Y48818207D01*
X107217700Y49143213D01*
X107097853Y49298277D01*
X106985546Y49443586D01*
X106985541Y49443591D01*
X106983594Y49446111D01*
X106720076Y49723800D01*
X106429846Y49973438D01*
X106358755Y50023032D01*
X106118486Y50190645D01*
X106115873Y50192468D01*
X105781374Y50378648D01*
X105778454Y50379906D01*
X105778449Y50379908D01*
X105432706Y50528808D01*
X105432696Y50528812D01*
X105429772Y50530071D01*
X105064668Y50645188D01*
X104798085Y50700395D01*
X104692925Y50722173D01*
X104692922Y50722173D01*
X104689800Y50722820D01*
X104395909Y50753191D01*
X104312162Y50761845D01*
X104312159Y50761845D01*
X104309006Y50762171D01*
X104305840Y50762177D01*
X104305831Y50762177D01*
X104116879Y50762506D01*
X103926184Y50762839D01*
X103736326Y50743889D01*
X103548428Y50725134D01*
X103548422Y50725133D01*
X103545255Y50724817D01*
X103350592Y50685213D01*
X103173243Y50649131D01*
X103173239Y50649130D01*
X103170118Y50648495D01*
X103167076Y50647548D01*
X103167070Y50647546D01*
X103077796Y50619740D01*
X102804614Y50534653D01*
X102801686Y50533404D01*
X102455416Y50385708D01*
X102455412Y50385706D01*
X102452486Y50384458D01*
X102449707Y50382924D01*
X102449701Y50382921D01*
X102217109Y50254523D01*
X102117339Y50199447D01*
X102114718Y50197632D01*
X102114713Y50197629D01*
X102030831Y50139546D01*
X101802604Y49981514D01*
X101511503Y49732891D01*
X101509303Y49730589D01*
X101509300Y49730586D01*
X101409030Y49625659D01*
X101247018Y49456123D01*
X101245061Y49453609D01*
X101245060Y49453608D01*
X101025394Y49171434D01*
X101011856Y49154044D01*
X101010160Y49151340D01*
X101010157Y49151336D01*
X100907487Y48987666D01*
X100808425Y48829747D01*
X100638808Y48486552D01*
X100504740Y48127973D01*
X100407596Y47757681D01*
X100407103Y47754532D01*
X100407101Y47754523D01*
X100385550Y47616900D01*
X100348370Y47379468D01*
X100348199Y47376302D01*
X100348198Y47376297D01*
X100347381Y47361203D01*
X100327667Y46997206D01*
X96110000Y46997206D01*
X96110000Y107957206D01*
X100327667Y107957206D01*
X100327817Y107954025D01*
X100339834Y107699210D01*
X100345700Y107574809D01*
X100402285Y107196192D01*
X100403071Y107193110D01*
X100403071Y107193108D01*
X100489454Y106854217D01*
X100496842Y106825231D01*
X100561188Y106649396D01*
X100615396Y106501267D01*
X100628402Y106465725D01*
X100795620Y106121354D01*
X100996782Y105795645D01*
X100998726Y105793112D01*
X101219904Y105504867D01*
X101229829Y105491932D01*
X101492376Y105213324D01*
X101494781Y105211240D01*
X101494787Y105211235D01*
X101579995Y105137426D01*
X101781733Y104962675D01*
X102094939Y104742550D01*
X102209874Y104678052D01*
X102398358Y104572280D01*
X102428787Y104555204D01*
X102431701Y104553937D01*
X102431705Y104553935D01*
X102465338Y104539311D01*
X102779858Y104402554D01*
X102953656Y104347088D01*
X103141514Y104287134D01*
X103141522Y104287132D01*
X103144558Y104286163D01*
X103330593Y104246959D01*
X103516034Y104207880D01*
X103516039Y104207879D01*
X103519153Y104207223D01*
X103899807Y104166543D01*
X103902994Y104166526D01*
X103903000Y104166526D01*
X104076852Y104165616D01*
X104282624Y104164539D01*
X104427184Y104178459D01*
X104660519Y104200926D01*
X104660524Y104200927D01*
X104663684Y104201231D01*
X104666804Y104201854D01*
X104666808Y104201855D01*
X105035957Y104275618D01*
X105035956Y104275618D01*
X105039085Y104276243D01*
X105320105Y104362696D01*
X105401942Y104387872D01*
X105401945Y104387873D01*
X105404984Y104388808D01*
X105407912Y104390045D01*
X105407918Y104390047D01*
X105729363Y104525832D01*
X105757634Y104537774D01*
X105760437Y104539308D01*
X105760442Y104539311D01*
X106056251Y104701262D01*
X106093425Y104721614D01*
X106408919Y104938447D01*
X106411358Y104940515D01*
X106411364Y104940520D01*
X106698445Y105183982D01*
X106698453Y105183990D01*
X106700885Y105186052D01*
X106703093Y105188347D01*
X106703101Y105188354D01*
X106830339Y105320575D01*
X106966335Y105461895D01*
X107202550Y105763151D01*
X107224814Y105798368D01*
X107405403Y106084033D01*
X107407112Y106086736D01*
X107408532Y106089584D01*
X107408537Y106089593D01*
X107576506Y106426489D01*
X107577926Y106429337D01*
X107713244Y106787446D01*
X107811681Y107157396D01*
X107818400Y107199340D01*
X107856463Y107436983D01*
X107872227Y107535400D01*
X107874206Y107569711D01*
X107888722Y107821479D01*
X107894264Y107917587D01*
X107894356Y107944000D01*
X107885026Y108128193D01*
X107875149Y108323159D01*
X107875148Y108323164D01*
X107874988Y108326332D01*
X107836646Y108576900D01*
X107817566Y108701589D01*
X107817564Y108701598D01*
X107817082Y108704749D01*
X107755877Y108941411D01*
X107722028Y109072298D01*
X107722025Y109072306D01*
X107721231Y109075378D01*
X107588416Y109434422D01*
X107587017Y109437278D01*
X107421399Y109775348D01*
X107421396Y109775354D01*
X107419998Y109778207D01*
X107279361Y110004150D01*
X107278287Y110005907D01*
X107238765Y110071814D01*
X107238762Y110071818D01*
X107237094Y110074600D01*
X107231018Y110082707D01*
X107224867Y110091698D01*
X107219390Y110100498D01*
X107219389Y110100500D01*
X107217700Y110103213D01*
X107150653Y110189962D01*
X107149521Y110191449D01*
X107007220Y110381321D01*
X107005273Y110383919D01*
X106759653Y110649629D01*
X106745085Y110665388D01*
X106742884Y110667769D01*
X106495887Y110885143D01*
X106455141Y110921002D01*
X106455140Y110921003D01*
X106452707Y110923144D01*
X106450065Y110925025D01*
X106450060Y110925029D01*
X106202718Y111101131D01*
X106137817Y111147339D01*
X106090485Y111174173D01*
X105956650Y111250047D01*
X105801550Y111337977D01*
X105798586Y111339275D01*
X105798582Y111339277D01*
X105614421Y111419926D01*
X105447467Y111493040D01*
X105442429Y111494653D01*
X105213696Y111567871D01*
X105079321Y111610885D01*
X104806525Y111668124D01*
X104704192Y111689596D01*
X104704188Y111689597D01*
X104701012Y111690263D01*
X104316547Y111730332D01*
X104314121Y111730396D01*
X104314114Y111730396D01*
X104312523Y111730437D01*
X104310132Y111730500D01*
X104023380Y111730500D01*
X104021771Y111730417D01*
X104021768Y111730417D01*
X103964190Y111727450D01*
X103733965Y111715586D01*
X103489326Y111677495D01*
X103355229Y111656616D01*
X103355225Y111656615D01*
X103352019Y111656116D01*
X103348877Y111655289D01*
X103348878Y111655289D01*
X103178074Y111610320D01*
X103175938Y111609822D01*
X103173248Y111609132D01*
X103170118Y111608495D01*
X103167080Y111607549D01*
X103166979Y111607523D01*
X103161814Y111606039D01*
X102978210Y111557700D01*
X102975185Y111556560D01*
X102844386Y111507266D01*
X102837423Y111504872D01*
X102804614Y111494653D01*
X102759243Y111475300D01*
X102754253Y111473297D01*
X102619540Y111422528D01*
X102619531Y111422524D01*
X102616498Y111421381D01*
X102613594Y111419930D01*
X102613585Y111419926D01*
X102561609Y111393954D01*
X102524640Y111375482D01*
X102517764Y111372301D01*
X102455424Y111345712D01*
X102455410Y111345705D01*
X102452486Y111344458D01*
X102358683Y111292676D01*
X102354137Y111290287D01*
X102270714Y111248603D01*
X102220458Y111216648D01*
X102213746Y111212667D01*
X102146042Y111175292D01*
X102117339Y111159447D01*
X102026037Y111096226D01*
X101971523Y111058479D01*
X101967426Y111055758D01*
X101944522Y111041195D01*
X101941983Y111039186D01*
X101941977Y111039182D01*
X101933365Y111032368D01*
X101926919Y111027594D01*
X101802604Y110941514D01*
X101511503Y110692891D01*
X101509303Y110690589D01*
X101509300Y110690586D01*
X101484908Y110665061D01*
X101247018Y110416123D01*
X101245061Y110413609D01*
X101245060Y110413608D01*
X101030387Y110137848D01*
X101011856Y110114044D01*
X101010160Y110111340D01*
X101010157Y110111336D01*
X100906570Y109946204D01*
X100808425Y109789747D01*
X100638808Y109446552D01*
X100504740Y109087973D01*
X100407596Y108717681D01*
X100407103Y108714532D01*
X100407101Y108714523D01*
X100368482Y108467903D01*
X100348370Y108339468D01*
X100348199Y108336302D01*
X100348198Y108336297D01*
X100330807Y108015178D01*
X100327667Y107957206D01*
X96110000Y107957206D01*
X96110000Y111577252D01*
X96110120Y111582748D01*
X96128787Y112010283D01*
X96129745Y112021233D01*
X96185243Y112442787D01*
X96187152Y112453613D01*
X96279181Y112868726D01*
X96282026Y112879343D01*
X96409881Y113284850D01*
X96413640Y113295179D01*
X96576358Y113688015D01*
X96581004Y113697977D01*
X96777331Y114075117D01*
X96782827Y114084637D01*
X97011281Y114443237D01*
X97017585Y114452241D01*
X97276433Y114789579D01*
X97283499Y114797999D01*
X97570749Y115111478D01*
X97578522Y115119251D01*
X97892001Y115406501D01*
X97900421Y115413567D01*
X98237759Y115672415D01*
X98246763Y115678719D01*
X98605363Y115907173D01*
X98614883Y115912669D01*
X98992032Y116109000D01*
X99001976Y116113638D01*
X99394829Y116276363D01*
X99405142Y116280116D01*
X99623971Y116349112D01*
X99810657Y116407974D01*
X99821274Y116410819D01*
X100236387Y116502848D01*
X100247213Y116504757D01*
X100668767Y116560255D01*
X100679716Y116561213D01*
X101107251Y116579880D01*
X101112748Y116580000D01*
X108887252Y116580000D01*
X108892749Y116579880D01*
G37*
%TD.AperFunction*%
%TD*%
%TA.AperFunction,Conductor*%
%TO.N,/+60V*%
G36*
X22557667Y116578792D02*
G01*
X22910424Y116563390D01*
X23020705Y116553742D01*
X23343315Y116511270D01*
X23452325Y116492049D01*
X23770018Y116421618D01*
X23876933Y116392969D01*
X24187263Y116295122D01*
X24291286Y116257261D01*
X24591911Y116132738D01*
X24692233Y116085957D01*
X24980860Y115935707D01*
X25076734Y115880354D01*
X25351149Y115705532D01*
X25441833Y115642035D01*
X25699984Y115443949D01*
X25784787Y115372790D01*
X26024682Y115152968D01*
X26102968Y115074682D01*
X26322790Y114834787D01*
X26393949Y114749984D01*
X26592035Y114491833D01*
X26655532Y114401149D01*
X26830354Y114126734D01*
X26885707Y114030860D01*
X27035957Y113742233D01*
X27082738Y113641911D01*
X27207260Y113341290D01*
X27245122Y113237263D01*
X27342969Y112926933D01*
X27371618Y112820018D01*
X27442049Y112502325D01*
X27461270Y112393315D01*
X27503742Y112070705D01*
X27513390Y111960423D01*
X27528792Y111607667D01*
X27530000Y111552313D01*
X27530000Y100966706D01*
X27509607Y100740117D01*
X27449082Y100520811D01*
X27350372Y100315837D01*
X27216648Y100131782D01*
X27054436Y99976343D01*
X26989149Y99924038D01*
X26829252Y99795936D01*
X26788871Y99763585D01*
X26763159Y99737602D01*
X26763152Y99737596D01*
X26725267Y99699312D01*
X26545477Y99517629D01*
X26331966Y99245328D01*
X26312865Y99214157D01*
X26312861Y99214152D01*
X26244780Y99103052D01*
X26151168Y98950291D01*
X26005478Y98636430D01*
X25896828Y98307903D01*
X25826658Y97969065D01*
X25823409Y97932658D01*
X25823408Y97932653D01*
X25810185Y97784494D01*
X25795898Y97624408D01*
X25804956Y97278499D01*
X25853712Y96935924D01*
X25862989Y96900563D01*
X25925761Y96661290D01*
X25941519Y96601223D01*
X25954793Y96567177D01*
X26067214Y96278833D01*
X26065192Y96278045D01*
X26125104Y96108453D01*
X26161365Y95883857D01*
X26164500Y95794709D01*
X26164500Y92593816D01*
X26164151Y92573830D01*
X26161101Y92542152D01*
X26162116Y92503393D01*
X26164065Y92428957D01*
X26164500Y92395740D01*
X26164500Y92368120D01*
X26165682Y92348795D01*
X26166022Y92337665D01*
X26167105Y92312856D01*
X26169540Y92219865D01*
X26175270Y92181527D01*
X26175910Y92174206D01*
X26176807Y92166898D01*
X26179174Y92128203D01*
X26186238Y92090089D01*
X26186240Y92090072D01*
X26196131Y92036706D01*
X26203439Y91993041D01*
X26217193Y91901008D01*
X26227550Y91863661D01*
X26229083Y91856449D01*
X26230864Y91849304D01*
X26237926Y91811203D01*
X26249580Y91774242D01*
X26249583Y91774229D01*
X26265904Y91722466D01*
X26278482Y91680006D01*
X26303350Y91590335D01*
X26318184Y91554522D01*
X26320582Y91547558D01*
X26323218Y91540692D01*
X26334873Y91503727D01*
X26373477Y91419019D01*
X26391129Y91378421D01*
X26426728Y91292478D01*
X26445813Y91258745D01*
X26449055Y91252097D01*
X26452500Y91245617D01*
X26468570Y91210357D01*
X26488822Y91177309D01*
X26517192Y91131013D01*
X26539659Y91092871D01*
X26585484Y91011876D01*
X26608541Y90980716D01*
X26612554Y90974537D01*
X26616768Y90968518D01*
X26637022Y90935467D01*
X26661160Y90905122D01*
X26661161Y90905120D01*
X26694950Y90862641D01*
X26721906Y90827513D01*
X26777254Y90752714D01*
X26799699Y90728220D01*
X26816186Y90710227D01*
X26815792Y90709866D01*
X26818701Y90707065D01*
X26837720Y90683155D01*
X26865382Y90655972D01*
X26947235Y90575535D01*
X26955101Y90567739D01*
X27158319Y90364521D01*
X27304121Y90189878D01*
X27416396Y89992008D01*
X27491536Y89777270D01*
X27527126Y89552566D01*
X27530000Y89467202D01*
X27530000Y76836706D01*
X27509607Y76610117D01*
X27449082Y76390811D01*
X27350372Y76185837D01*
X27216648Y76001782D01*
X27054436Y75846343D01*
X26788871Y75633585D01*
X26763159Y75607602D01*
X26763152Y75607596D01*
X26725267Y75569312D01*
X26545477Y75387629D01*
X26331966Y75115328D01*
X26312865Y75084157D01*
X26312861Y75084152D01*
X26283942Y75036959D01*
X26151168Y74820291D01*
X26005478Y74506430D01*
X25896828Y74177903D01*
X25826658Y73839065D01*
X25795898Y73494408D01*
X25804956Y73148499D01*
X25853712Y72805924D01*
X25862989Y72770563D01*
X25925761Y72531290D01*
X25941519Y72471223D01*
X25954793Y72437177D01*
X26067214Y72148833D01*
X26065192Y72148045D01*
X26125104Y71978453D01*
X26161365Y71753857D01*
X26164500Y71664709D01*
X26164500Y71003816D01*
X26164151Y70983830D01*
X26161101Y70952152D01*
X26162116Y70913393D01*
X26164065Y70838957D01*
X26164500Y70805740D01*
X26164500Y70778120D01*
X26165682Y70758795D01*
X26166022Y70747665D01*
X26167105Y70722856D01*
X26169540Y70629865D01*
X26175270Y70591527D01*
X26175910Y70584206D01*
X26176807Y70576898D01*
X26179174Y70538203D01*
X26186238Y70500089D01*
X26186240Y70500072D01*
X26196131Y70446706D01*
X26203439Y70403041D01*
X26217193Y70311008D01*
X26227550Y70273661D01*
X26229083Y70266449D01*
X26230864Y70259304D01*
X26237926Y70221203D01*
X26249580Y70184242D01*
X26249583Y70184229D01*
X26265904Y70132466D01*
X26278482Y70090006D01*
X26303350Y70000335D01*
X26318184Y69964522D01*
X26320582Y69957558D01*
X26323218Y69950692D01*
X26334873Y69913727D01*
X26373477Y69829019D01*
X26391129Y69788421D01*
X26426728Y69702478D01*
X26445813Y69668745D01*
X26449055Y69662097D01*
X26452500Y69655617D01*
X26468570Y69620357D01*
X26488822Y69587309D01*
X26517192Y69541013D01*
X26539659Y69502871D01*
X26585484Y69421876D01*
X26608541Y69390716D01*
X26612554Y69384537D01*
X26616768Y69378518D01*
X26637022Y69345467D01*
X26661160Y69315122D01*
X26661161Y69315120D01*
X26694950Y69272641D01*
X26721906Y69237513D01*
X26777254Y69162714D01*
X26799699Y69138220D01*
X26816186Y69120227D01*
X26815792Y69119866D01*
X26818701Y69117065D01*
X26837720Y69093155D01*
X26865382Y69065972D01*
X26947235Y68985535D01*
X26955101Y68977739D01*
X27158319Y68774521D01*
X27304121Y68599878D01*
X27416396Y68402008D01*
X27491536Y68187270D01*
X27527126Y67962566D01*
X27530000Y67877202D01*
X27530000Y55246706D01*
X27509607Y55020117D01*
X27449082Y54800811D01*
X27350372Y54595837D01*
X27216648Y54411782D01*
X27054436Y54256343D01*
X26788871Y54043585D01*
X26763159Y54017602D01*
X26763152Y54017596D01*
X26725267Y53979312D01*
X26545477Y53797629D01*
X26331966Y53525328D01*
X26312865Y53494157D01*
X26312861Y53494152D01*
X26283942Y53446959D01*
X26151168Y53230291D01*
X26005478Y52916430D01*
X25896828Y52587903D01*
X25826658Y52249065D01*
X25795898Y51904408D01*
X25804956Y51558499D01*
X25853712Y51215924D01*
X25862989Y51180563D01*
X25925761Y50941290D01*
X25941519Y50881223D01*
X25954793Y50847177D01*
X26067214Y50558833D01*
X26065192Y50558045D01*
X26125104Y50388453D01*
X26161365Y50163857D01*
X26164500Y50074709D01*
X26164500Y48143816D01*
X26164151Y48123830D01*
X26161101Y48092152D01*
X26162116Y48053393D01*
X26164065Y47978957D01*
X26164500Y47945740D01*
X26164500Y47918120D01*
X26165682Y47898795D01*
X26166022Y47887665D01*
X26167105Y47862856D01*
X26169540Y47769865D01*
X26175270Y47731527D01*
X26175910Y47724206D01*
X26176807Y47716898D01*
X26179174Y47678203D01*
X26186238Y47640089D01*
X26186240Y47640072D01*
X26196131Y47586706D01*
X26203439Y47543041D01*
X26217193Y47451008D01*
X26227550Y47413661D01*
X26229083Y47406449D01*
X26230864Y47399304D01*
X26237926Y47361203D01*
X26249580Y47324242D01*
X26249583Y47324229D01*
X26265904Y47272466D01*
X26278482Y47230006D01*
X26303350Y47140335D01*
X26318184Y47104522D01*
X26320582Y47097558D01*
X26323218Y47090692D01*
X26334873Y47053727D01*
X26373477Y46969019D01*
X26391129Y46928421D01*
X26426728Y46842478D01*
X26445813Y46808745D01*
X26449055Y46802097D01*
X26452500Y46795617D01*
X26468570Y46760357D01*
X26488822Y46727309D01*
X26517192Y46681013D01*
X26539659Y46642871D01*
X26585484Y46561876D01*
X26608541Y46530716D01*
X26612554Y46524537D01*
X26616768Y46518518D01*
X26637022Y46485467D01*
X26661160Y46455122D01*
X26661161Y46455120D01*
X26694950Y46412641D01*
X26721906Y46377513D01*
X26777254Y46302714D01*
X26799699Y46278220D01*
X26816186Y46260227D01*
X26815792Y46259866D01*
X26818701Y46257065D01*
X26837720Y46233155D01*
X26865382Y46205972D01*
X26947235Y46125535D01*
X26955101Y46117739D01*
X27158319Y45914521D01*
X27304121Y45739878D01*
X27416396Y45542008D01*
X27491536Y45327270D01*
X27527126Y45102566D01*
X27530000Y45017202D01*
X27530000Y18790000D01*
X28713069Y17391828D01*
X28722065Y17381196D01*
X28722075Y17381184D01*
X30417426Y15377588D01*
X34442457Y10620733D01*
X34517767Y10531730D01*
X34554007Y10486871D01*
X34778633Y10195522D01*
X34844832Y10101074D01*
X35026590Y9814912D01*
X35083937Y9714849D01*
X35156712Y9573323D01*
X35238961Y9413370D01*
X35286977Y9308534D01*
X35413992Y8994214D01*
X35452298Y8885428D01*
X35550246Y8560885D01*
X35578520Y8449058D01*
X35646594Y8116963D01*
X35664596Y8003041D01*
X35702235Y7666156D01*
X35709820Y7551061D01*
X35716715Y7212118D01*
X35713817Y7096815D01*
X35689911Y6758678D01*
X35676557Y6644115D01*
X35622046Y6309530D01*
X35598346Y6196654D01*
X35513675Y5868382D01*
X35479832Y5758152D01*
X35365706Y5438922D01*
X35321986Y5332202D01*
X35179355Y5024674D01*
X35126121Y4922354D01*
X34956149Y4629034D01*
X34893855Y4531986D01*
X34697949Y4255305D01*
X34627096Y4164309D01*
X34406891Y3906575D01*
X34328065Y3822383D01*
X34085349Y3585687D01*
X33999227Y3509021D01*
X33736008Y3295331D01*
X33643285Y3226805D01*
X33361773Y3037911D01*
X33263177Y2978066D01*
X32965697Y2815524D01*
X32862070Y2764876D01*
X32551051Y2630012D01*
X32443258Y2588984D01*
X32121277Y2482915D01*
X32010213Y2451845D01*
X31679917Y2375448D01*
X31566490Y2354592D01*
X31230650Y2308503D01*
X31115788Y2298030D01*
X30816117Y2284397D01*
X30748284Y2281311D01*
X30690614Y2280000D01*
X10967687Y2280000D01*
X10912333Y2281208D01*
X10894516Y2281986D01*
X10559576Y2296610D01*
X10449295Y2306258D01*
X10432243Y2308503D01*
X10126686Y2348730D01*
X10017675Y2367951D01*
X9699982Y2438382D01*
X9593067Y2467031D01*
X9282737Y2564878D01*
X9178710Y2602740D01*
X9168317Y2607045D01*
X8878089Y2727262D01*
X8777767Y2774043D01*
X8489140Y2924293D01*
X8393266Y2979646D01*
X8118851Y3154468D01*
X8028167Y3217965D01*
X7770016Y3416051D01*
X7685213Y3487210D01*
X7445318Y3707032D01*
X7367032Y3785318D01*
X7147210Y4025213D01*
X7076051Y4110016D01*
X6877965Y4368167D01*
X6814468Y4458851D01*
X6639646Y4733266D01*
X6584293Y4829140D01*
X6434043Y5117767D01*
X6387262Y5218089D01*
X6262739Y5518714D01*
X6224878Y5622737D01*
X6127031Y5933067D01*
X6098382Y6039982D01*
X6027951Y6357675D01*
X6008730Y6466685D01*
X5966258Y6789295D01*
X5956610Y6899577D01*
X5941208Y7252333D01*
X5940000Y7307687D01*
X5940000Y8581179D01*
X5960393Y8807768D01*
X6020918Y9027074D01*
X6119628Y9232048D01*
X6253352Y9416103D01*
X6417791Y9573323D01*
X6607661Y9698655D01*
X6816857Y9788070D01*
X6914909Y9815631D01*
X7181831Y9879221D01*
X7569230Y10009595D01*
X7595577Y10021215D01*
X7595581Y10021217D01*
X7916866Y10162921D01*
X7916872Y10162924D01*
X7943218Y10174544D01*
X7981064Y10195522D01*
X8098043Y10260365D01*
X8300717Y10372709D01*
X8324538Y10388898D01*
X8324545Y10388902D01*
X8614967Y10586272D01*
X8614972Y10586276D01*
X8638785Y10602459D01*
X8661024Y10620726D01*
X8661033Y10620733D01*
X8932385Y10843624D01*
X8932390Y10843628D01*
X8954639Y10861904D01*
X8975140Y10882121D01*
X8975148Y10882128D01*
X9225164Y11128678D01*
X9225168Y11128683D01*
X9245678Y11148908D01*
X9509508Y11461109D01*
X9526027Y11484700D01*
X9727443Y11772351D01*
X9727447Y11772358D01*
X9743957Y11795936D01*
X9758260Y11820911D01*
X9758266Y11820920D01*
X9915167Y12094886D01*
X9947094Y12150634D01*
X10002478Y12271602D01*
X10105253Y12496082D01*
X10105255Y12496088D01*
X10117248Y12522282D01*
X10196490Y12747301D01*
X10243451Y12880656D01*
X10253018Y12907823D01*
X10320925Y13176187D01*
X10346222Y13276160D01*
X10346224Y13276167D01*
X10353287Y13304082D01*
X10367399Y13393177D01*
X10393459Y13557717D01*
X10417230Y13707798D01*
X10444319Y14115648D01*
X10445307Y14210000D01*
X10440951Y14305923D01*
X13365065Y14305923D01*
X13378722Y13914843D01*
X13382823Y13884104D01*
X13382824Y13884098D01*
X13410143Y13679358D01*
X13430477Y13526962D01*
X13519834Y13145983D01*
X13529830Y13116621D01*
X13529832Y13116613D01*
X13635949Y12804898D01*
X13645943Y12775542D01*
X13807598Y12419174D01*
X13823100Y12392324D01*
X13823102Y12392320D01*
X13977068Y12125646D01*
X14003258Y12080283D01*
X14021310Y12055068D01*
X14021312Y12055065D01*
X14120329Y11916759D01*
X14231053Y11762101D01*
X14488810Y11467667D01*
X14559341Y11401434D01*
X14751465Y11221018D01*
X14751471Y11221013D01*
X14774069Y11199792D01*
X14798637Y11180872D01*
X14798643Y11180867D01*
X14911753Y11093761D01*
X15084107Y10961031D01*
X15415964Y10753663D01*
X15766472Y10579669D01*
X16132287Y10440710D01*
X16162225Y10432576D01*
X16162228Y10432575D01*
X16336044Y10385350D01*
X16509915Y10338110D01*
X16540497Y10332937D01*
X16540499Y10332937D01*
X16865179Y10278021D01*
X16865187Y10278020D01*
X16895754Y10272850D01*
X17286119Y10245553D01*
X17317123Y10246419D01*
X17317127Y10246419D01*
X17646291Y10255614D01*
X17646295Y10255614D01*
X17677285Y10256480D01*
X17708035Y10260365D01*
X17708040Y10260365D01*
X18034756Y10301639D01*
X18065517Y10305525D01*
X18095748Y10312393D01*
X18095752Y10312394D01*
X18416868Y10385350D01*
X18416867Y10385350D01*
X18447111Y10392221D01*
X18476538Y10402010D01*
X18476545Y10402012D01*
X18788988Y10505948D01*
X18818424Y10515740D01*
X19175911Y10674904D01*
X19290278Y10739873D01*
X19489185Y10852868D01*
X19489186Y10852869D01*
X19516160Y10868192D01*
X19653245Y10964895D01*
X19810571Y11075876D01*
X19810576Y11075880D01*
X19835924Y11093761D01*
X20132150Y11349456D01*
X20153532Y11371910D01*
X20153539Y11371916D01*
X20380626Y11610382D01*
X20402011Y11632838D01*
X20642931Y11941201D01*
X20715192Y12055065D01*
X20835992Y12245417D01*
X20852610Y12271602D01*
X21029046Y12620888D01*
X21129804Y12880656D01*
X21159338Y12956798D01*
X21159340Y12956804D01*
X21170557Y12985723D01*
X21275790Y13362626D01*
X21310190Y13557717D01*
X21338356Y13717453D01*
X21338357Y13717458D01*
X21343742Y13748000D01*
X21372031Y14115648D01*
X21372233Y14118278D01*
X21372233Y14118284D01*
X21373763Y14138165D01*
X21375325Y14250000D01*
X21374106Y14274936D01*
X21357724Y14609874D01*
X21356209Y14640851D01*
X21299044Y15027972D01*
X21204376Y15407666D01*
X21073107Y15776311D01*
X20906492Y16130386D01*
X20706120Y16466513D01*
X20473905Y16781483D01*
X20435107Y16824573D01*
X20232811Y17049244D01*
X20232810Y17049245D01*
X20212061Y17072289D01*
X20189165Y17093196D01*
X20189157Y17093204D01*
X19945999Y17315237D01*
X19923090Y17336156D01*
X19609749Y17570565D01*
X19275030Y17773278D01*
X19220232Y17799533D01*
X18950086Y17928966D01*
X18950082Y17928968D01*
X18922126Y17942362D01*
X18554407Y18076200D01*
X18524365Y18083914D01*
X18524360Y18083915D01*
X18419294Y18110891D01*
X18175382Y18173517D01*
X17788670Y18233383D01*
X17757697Y18235115D01*
X17757694Y18235115D01*
X17428931Y18253496D01*
X17428922Y18253496D01*
X17397962Y18255227D01*
X17227051Y18248064D01*
X17037970Y18240140D01*
X17037960Y18240139D01*
X17006987Y18238841D01*
X16976279Y18234525D01*
X16976276Y18234525D01*
X16650185Y18188696D01*
X16650180Y18188695D01*
X16619477Y18184380D01*
X16239131Y18092364D01*
X15869579Y17963673D01*
X15841422Y17950663D01*
X15841423Y17950663D01*
X15542502Y17812542D01*
X15542495Y17812538D01*
X15514349Y17799533D01*
X15176831Y17601513D01*
X14860248Y17371502D01*
X14837064Y17350918D01*
X14837060Y17350915D01*
X14643220Y17178815D01*
X14567621Y17111695D01*
X14546545Y17088935D01*
X14546543Y17088933D01*
X14531131Y17072289D01*
X14301743Y16824573D01*
X14065152Y16512876D01*
X13860107Y16179580D01*
X13688564Y15827865D01*
X13677757Y15798805D01*
X13677752Y15798794D01*
X13562973Y15490161D01*
X13552162Y15461090D01*
X13452201Y15082754D01*
X13447242Y15052135D01*
X13447241Y15052131D01*
X13443328Y15027972D01*
X13389637Y14696469D01*
X13365065Y14305923D01*
X10440951Y14305923D01*
X10426765Y14618328D01*
X10422858Y14646850D01*
X10375199Y14994768D01*
X10375197Y14994776D01*
X10371291Y15023294D01*
X10279343Y15421566D01*
X10151677Y15809866D01*
X10025115Y16102333D01*
X10000779Y16158571D01*
X10000775Y16158579D01*
X9989343Y16184997D01*
X9793679Y16543871D01*
X9566294Y16883534D01*
X9509246Y16953982D01*
X9327180Y17178815D01*
X9327177Y17178818D01*
X9309060Y17201191D01*
X9134025Y17381184D01*
X9044177Y17473576D01*
X9024095Y17494227D01*
X8880606Y17617212D01*
X8735598Y17741499D01*
X8735596Y17741500D01*
X8713744Y17760230D01*
X8503661Y17909529D01*
X8404028Y17980335D01*
X8404021Y17980340D01*
X8380562Y17997011D01*
X8027291Y18202619D01*
X7656839Y18375364D01*
X7629738Y18385121D01*
X7299358Y18504065D01*
X7299352Y18504067D01*
X7272256Y18513822D01*
X7244391Y18521080D01*
X7244379Y18521084D01*
X6889125Y18613620D01*
X6674994Y18690470D01*
X6478026Y18804321D01*
X6304552Y18951511D01*
X6160147Y19127312D01*
X6049454Y19326071D01*
X5976030Y19541402D01*
X5942234Y19766382D01*
X5940000Y19841643D01*
X5940000Y29331179D01*
X5960393Y29557768D01*
X6020918Y29777074D01*
X6119628Y29982048D01*
X6253352Y30166103D01*
X6417791Y30323323D01*
X6607661Y30448655D01*
X6816857Y30538070D01*
X6914909Y30565631D01*
X7181831Y30629221D01*
X7569230Y30759595D01*
X7595577Y30771215D01*
X7595581Y30771217D01*
X7916866Y30912921D01*
X7916872Y30912924D01*
X7943218Y30924544D01*
X8300717Y31122709D01*
X8324538Y31138898D01*
X8324545Y31138902D01*
X8614967Y31336272D01*
X8614972Y31336276D01*
X8638785Y31352459D01*
X8661024Y31370726D01*
X8661033Y31370733D01*
X8932385Y31593624D01*
X8932390Y31593628D01*
X8954639Y31611904D01*
X8975140Y31632121D01*
X8975148Y31632128D01*
X9225164Y31878678D01*
X9225168Y31878683D01*
X9245678Y31898908D01*
X9509508Y32211109D01*
X9743957Y32545936D01*
X9758260Y32570911D01*
X9758266Y32570920D01*
X9932783Y32875646D01*
X9947094Y32900634D01*
X10117248Y33272282D01*
X10253018Y33657823D01*
X10260084Y33685747D01*
X10346222Y34026160D01*
X10346224Y34026167D01*
X10353287Y34054082D01*
X10417230Y34457798D01*
X10444319Y34865648D01*
X10445307Y34960000D01*
X10426765Y35368328D01*
X10422858Y35396850D01*
X10375199Y35744768D01*
X10375197Y35744776D01*
X10371291Y35773294D01*
X10279343Y36171566D01*
X10151677Y36559866D01*
X9989343Y36934997D01*
X9793679Y37293871D01*
X9566294Y37633534D01*
X9509246Y37703982D01*
X9327180Y37928815D01*
X9327177Y37928818D01*
X9309060Y37951191D01*
X9024095Y38244227D01*
X8830914Y38409803D01*
X8735598Y38491499D01*
X8735596Y38491500D01*
X8713744Y38510230D01*
X8435650Y38707862D01*
X8404028Y38730335D01*
X8404021Y38730340D01*
X8380562Y38747011D01*
X8027291Y38952619D01*
X7656839Y39125364D01*
X7600973Y39145477D01*
X7299358Y39254065D01*
X7299352Y39254067D01*
X7272256Y39263822D01*
X7244391Y39271080D01*
X7244379Y39271084D01*
X6889125Y39363620D01*
X6674994Y39440470D01*
X6478026Y39554321D01*
X6304552Y39701511D01*
X6160147Y39877312D01*
X6049454Y40076071D01*
X5976030Y40291402D01*
X5942234Y40516382D01*
X5940000Y40591643D01*
X5940000Y75831179D01*
X5960393Y76057768D01*
X6020918Y76277074D01*
X6119628Y76482048D01*
X6253352Y76666103D01*
X6417791Y76823323D01*
X6607661Y76948655D01*
X6816857Y77038070D01*
X6914909Y77065631D01*
X7181831Y77129221D01*
X7569230Y77259595D01*
X7595577Y77271215D01*
X7595581Y77271217D01*
X7916866Y77412921D01*
X7916872Y77412924D01*
X7943218Y77424544D01*
X8300717Y77622709D01*
X8324538Y77638898D01*
X8324545Y77638902D01*
X8614967Y77836272D01*
X8614972Y77836276D01*
X8638785Y77852459D01*
X8661024Y77870726D01*
X8661033Y77870733D01*
X8932385Y78093624D01*
X8932390Y78093628D01*
X8954639Y78111904D01*
X8975140Y78132121D01*
X8975148Y78132128D01*
X9225164Y78378678D01*
X9225168Y78378683D01*
X9245678Y78398908D01*
X9509508Y78711109D01*
X9743957Y79045936D01*
X9758260Y79070911D01*
X9758266Y79070920D01*
X9932783Y79375646D01*
X9947094Y79400634D01*
X10117248Y79772282D01*
X10253018Y80157823D01*
X10260084Y80185747D01*
X10346222Y80526160D01*
X10346224Y80526167D01*
X10353287Y80554082D01*
X10417230Y80957798D01*
X10444319Y81365648D01*
X10445307Y81460000D01*
X10426765Y81868328D01*
X10411276Y81981402D01*
X10375199Y82244768D01*
X10375197Y82244776D01*
X10371291Y82273294D01*
X10314476Y82519387D01*
X10285823Y82643499D01*
X10285822Y82643504D01*
X10279343Y82671566D01*
X10270345Y82698934D01*
X10160670Y83032514D01*
X10160669Y83032517D01*
X10151677Y83059866D01*
X10051019Y83292473D01*
X10000779Y83408571D01*
X10000775Y83408579D01*
X9989343Y83434997D01*
X9793679Y83793871D01*
X9566294Y84133534D01*
X9509246Y84203982D01*
X9327180Y84428815D01*
X9327177Y84428818D01*
X9309060Y84451191D01*
X9232676Y84529739D01*
X9044177Y84723576D01*
X9024095Y84744227D01*
X8879893Y84867823D01*
X8735598Y84991499D01*
X8735596Y84991500D01*
X8713744Y85010230D01*
X8503661Y85159529D01*
X8404028Y85230335D01*
X8404021Y85230340D01*
X8380562Y85247011D01*
X8027291Y85452619D01*
X7656839Y85625364D01*
X7629738Y85635121D01*
X7299358Y85754065D01*
X7299352Y85754067D01*
X7272256Y85763822D01*
X7244391Y85771080D01*
X7244379Y85771084D01*
X6889125Y85863620D01*
X6674994Y85940470D01*
X6478026Y86054321D01*
X6304552Y86201511D01*
X6160147Y86377312D01*
X6049454Y86576071D01*
X5976030Y86791402D01*
X5942234Y87016382D01*
X5940000Y87091643D01*
X5940000Y96581179D01*
X5960393Y96807768D01*
X6020918Y97027074D01*
X6119628Y97232048D01*
X6253352Y97416103D01*
X6417791Y97573323D01*
X6607661Y97698655D01*
X6816857Y97788070D01*
X6914909Y97815631D01*
X7181831Y97879221D01*
X7569230Y98009595D01*
X7595577Y98021215D01*
X7595581Y98021217D01*
X7916866Y98162921D01*
X7916872Y98162924D01*
X7943218Y98174544D01*
X8300717Y98372709D01*
X8324538Y98388898D01*
X8324545Y98388902D01*
X8614967Y98586272D01*
X8614972Y98586276D01*
X8638785Y98602459D01*
X8661024Y98620726D01*
X8661033Y98620733D01*
X8932385Y98843624D01*
X8932390Y98843628D01*
X8954639Y98861904D01*
X8975140Y98882121D01*
X8975148Y98882128D01*
X9225164Y99128678D01*
X9225168Y99128683D01*
X9245678Y99148908D01*
X9509508Y99461109D01*
X9549084Y99517629D01*
X9727443Y99772351D01*
X9727447Y99772358D01*
X9743957Y99795936D01*
X9758260Y99820911D01*
X9758266Y99820920D01*
X9915167Y100094886D01*
X9947094Y100150634D01*
X10117248Y100522282D01*
X10253018Y100907823D01*
X10267918Y100966706D01*
X10346222Y101276160D01*
X10346224Y101276167D01*
X10353287Y101304082D01*
X10417230Y101707798D01*
X10444319Y102115648D01*
X10445307Y102210000D01*
X10426765Y102618328D01*
X10422858Y102646850D01*
X10375199Y102994768D01*
X10375197Y102994776D01*
X10371291Y103023294D01*
X10279343Y103421566D01*
X10200324Y103661906D01*
X10160670Y103782514D01*
X10160669Y103782517D01*
X10151677Y103809866D01*
X10051019Y104042473D01*
X10000779Y104158571D01*
X10000775Y104158579D01*
X9989343Y104184997D01*
X9793679Y104543871D01*
X9681661Y104711201D01*
X9582310Y104859610D01*
X9582307Y104859614D01*
X9566294Y104883534D01*
X9441572Y105037553D01*
X9327180Y105178815D01*
X9327177Y105178818D01*
X9309060Y105201191D01*
X9256587Y105255151D01*
X9044177Y105473576D01*
X9024095Y105494227D01*
X8831943Y105658921D01*
X8735598Y105741499D01*
X8735596Y105741500D01*
X8713744Y105760230D01*
X8503661Y105909529D01*
X8404028Y105980335D01*
X8404021Y105980340D01*
X8380562Y105997011D01*
X8027291Y106202619D01*
X7656839Y106375364D01*
X7559842Y106410285D01*
X7299358Y106504065D01*
X7299352Y106504067D01*
X7272256Y106513822D01*
X7244391Y106521080D01*
X7244379Y106521084D01*
X6889125Y106613620D01*
X6674994Y106690470D01*
X6478026Y106804321D01*
X6304552Y106951511D01*
X6160147Y107127312D01*
X6049454Y107326071D01*
X5976030Y107541402D01*
X5942234Y107766382D01*
X5940000Y107841643D01*
X5940000Y111552313D01*
X5941208Y111607667D01*
X5956610Y111960423D01*
X5966258Y112070705D01*
X6008730Y112393315D01*
X6027951Y112502325D01*
X6098382Y112820018D01*
X6127031Y112926933D01*
X6224878Y113237263D01*
X6262740Y113341290D01*
X6387262Y113641911D01*
X6434043Y113742233D01*
X6584293Y114030860D01*
X6639646Y114126734D01*
X6814468Y114401149D01*
X6877965Y114491833D01*
X7076051Y114749984D01*
X7147210Y114834787D01*
X7367032Y115074682D01*
X7445318Y115152968D01*
X7685213Y115372790D01*
X7770016Y115443949D01*
X8028167Y115642035D01*
X8118851Y115705532D01*
X8393266Y115880354D01*
X8489140Y115935707D01*
X8777767Y116085957D01*
X8878089Y116132738D01*
X9178714Y116257261D01*
X9282737Y116295122D01*
X9593067Y116392969D01*
X9699982Y116421618D01*
X10017675Y116492049D01*
X10126685Y116511270D01*
X10449295Y116553742D01*
X10559576Y116563390D01*
X10912333Y116578792D01*
X10967687Y116580000D01*
X22502313Y116580000D01*
X22557667Y116578792D01*
G37*
%TD.AperFunction*%
%TD*%
%TA.AperFunction,Conductor*%
%TO.N,/-60V*%
G36*
X133041780Y116579049D02*
G01*
X133115306Y116575839D01*
X133412202Y116562876D01*
X133499010Y116555282D01*
X133845008Y116509731D01*
X133930835Y116494596D01*
X134271509Y116419070D01*
X134355690Y116396514D01*
X134688495Y116291581D01*
X134770389Y116261774D01*
X135092794Y116128230D01*
X135171777Y116091400D01*
X135481315Y115930265D01*
X135556781Y115886695D01*
X135851102Y115699191D01*
X135922486Y115649207D01*
X136199333Y115436775D01*
X136266096Y115380755D01*
X136523376Y115145001D01*
X136585001Y115083376D01*
X136820755Y114826096D01*
X136876775Y114759333D01*
X137089207Y114482486D01*
X137139195Y114411097D01*
X137326692Y114116786D01*
X137370268Y114041310D01*
X137531398Y113731782D01*
X137568230Y113652794D01*
X137701774Y113330389D01*
X137731581Y113248495D01*
X137836514Y112915690D01*
X137859070Y112831509D01*
X137934596Y112490835D01*
X137949731Y112405006D01*
X137995281Y112059017D01*
X138002876Y111972198D01*
X138019049Y111601780D01*
X138020000Y111558204D01*
X138020000Y107223754D01*
X137999550Y107022657D01*
X137939039Y106829793D01*
X137840943Y106653057D01*
X137709278Y106499686D01*
X137549435Y106375958D01*
X137440103Y106317414D01*
X137428838Y106312909D01*
X137408639Y106302617D01*
X137408632Y106302614D01*
X137084841Y106137635D01*
X137064640Y106127342D01*
X136718760Y105909529D01*
X136394044Y105661265D01*
X136377362Y105645925D01*
X136109856Y105399941D01*
X136109848Y105399933D01*
X136093166Y105384593D01*
X135818601Y105081791D01*
X135804958Y105063686D01*
X135669204Y104883534D01*
X135572610Y104755350D01*
X135560671Y104736094D01*
X135560666Y104736087D01*
X135483383Y104611442D01*
X135357218Y104407958D01*
X135347065Y104387682D01*
X135236327Y104166543D01*
X135174197Y104042473D01*
X135165927Y104021370D01*
X135165925Y104021366D01*
X135046422Y103716430D01*
X135025054Y103661906D01*
X134911017Y103269387D01*
X134833024Y102868149D01*
X134791718Y102461493D01*
X134791481Y102438820D01*
X134791480Y102438810D01*
X134787675Y102075431D01*
X134787438Y102052767D01*
X134820219Y101645335D01*
X134889792Y101242551D01*
X134895660Y101220650D01*
X134895661Y101220647D01*
X134979482Y100907823D01*
X134995583Y100847731D01*
X135003409Y100826462D01*
X135003411Y100826454D01*
X135024971Y100767856D01*
X135136723Y100464123D01*
X135312050Y100094886D01*
X135323579Y100075391D01*
X135323582Y100075386D01*
X135408378Y99932004D01*
X135520120Y99743060D01*
X135759220Y99411539D01*
X135774081Y99394444D01*
X135774086Y99394437D01*
X136012508Y99120163D01*
X136012516Y99120155D01*
X136027383Y99103052D01*
X136152366Y98983198D01*
X136306044Y98835826D01*
X136306052Y98835819D01*
X136322402Y98820140D01*
X136641847Y98565130D01*
X136660768Y98552654D01*
X136660772Y98552651D01*
X136964167Y98352599D01*
X136964173Y98352595D01*
X136983090Y98340122D01*
X137343321Y98146968D01*
X137364194Y98138108D01*
X137411343Y98118094D01*
X137588463Y98020695D01*
X137742352Y97889635D01*
X137866708Y97730281D01*
X137956441Y97549156D01*
X138007876Y97353675D01*
X138020000Y97198511D01*
X138020000Y86473754D01*
X137999550Y86272657D01*
X137939039Y86079793D01*
X137840943Y85903057D01*
X137709278Y85749686D01*
X137549435Y85625958D01*
X137440103Y85567414D01*
X137428838Y85562909D01*
X137408639Y85552617D01*
X137408632Y85552614D01*
X137212380Y85452619D01*
X137064640Y85377342D01*
X136718760Y85159529D01*
X136700738Y85145750D01*
X136554689Y85034087D01*
X136394044Y84911265D01*
X136377362Y84895925D01*
X136109856Y84649941D01*
X136109848Y84649933D01*
X136093166Y84634593D01*
X136077939Y84617800D01*
X136077937Y84617798D01*
X135995171Y84526520D01*
X135818601Y84331791D01*
X135804958Y84313686D01*
X135669204Y84133534D01*
X135572610Y84005350D01*
X135357218Y83657958D01*
X135347065Y83637682D01*
X135245568Y83434997D01*
X135174197Y83292473D01*
X135165927Y83271370D01*
X135165925Y83271366D01*
X135042841Y82957292D01*
X135025054Y82911906D01*
X134911017Y82519387D01*
X134833024Y82118149D01*
X134791718Y81711493D01*
X134787438Y81302767D01*
X134820219Y80895335D01*
X134889792Y80492551D01*
X134895660Y80470650D01*
X134895661Y80470647D01*
X134980685Y80153332D01*
X134995583Y80097731D01*
X135003409Y80076462D01*
X135003411Y80076454D01*
X135115325Y79772282D01*
X135136723Y79714123D01*
X135312050Y79344886D01*
X135323579Y79325391D01*
X135323582Y79325386D01*
X135417649Y79166328D01*
X135520120Y78993060D01*
X135759220Y78661539D01*
X135774081Y78644444D01*
X135774086Y78644437D01*
X136012508Y78370163D01*
X136012516Y78370155D01*
X136027383Y78353052D01*
X136068637Y78313491D01*
X136306044Y78085826D01*
X136306052Y78085819D01*
X136322402Y78070140D01*
X136641847Y77815130D01*
X136660768Y77802654D01*
X136660772Y77802651D01*
X136964167Y77602599D01*
X136964173Y77602595D01*
X136983090Y77590122D01*
X137343321Y77396968D01*
X137364194Y77388108D01*
X137411343Y77368094D01*
X137588463Y77270695D01*
X137742352Y77139635D01*
X137866708Y76980281D01*
X137956441Y76799156D01*
X138007876Y76603675D01*
X138020000Y76448511D01*
X138020000Y39973754D01*
X137999550Y39772657D01*
X137939039Y39579793D01*
X137840943Y39403057D01*
X137709278Y39249686D01*
X137549435Y39125958D01*
X137440103Y39067414D01*
X137428838Y39062909D01*
X137408639Y39052617D01*
X137408632Y39052614D01*
X137111156Y38901043D01*
X137064640Y38877342D01*
X136718760Y38659529D01*
X136394044Y38411265D01*
X136377362Y38395925D01*
X136109856Y38149941D01*
X136109848Y38149933D01*
X136093166Y38134593D01*
X136077939Y38117800D01*
X136077937Y38117798D01*
X135833827Y37848583D01*
X135818601Y37831791D01*
X135804958Y37813686D01*
X135669204Y37633534D01*
X135572610Y37505350D01*
X135357218Y37157958D01*
X135347065Y37137682D01*
X135245568Y36934997D01*
X135174197Y36792473D01*
X135165927Y36771370D01*
X135165925Y36771366D01*
X135087011Y36570000D01*
X135025054Y36411906D01*
X134911017Y36019387D01*
X134906691Y35997129D01*
X134906689Y35997123D01*
X134868487Y35800590D01*
X134833024Y35618149D01*
X134791718Y35211493D01*
X134791481Y35188820D01*
X134791480Y35188810D01*
X134789084Y34960000D01*
X134787438Y34802767D01*
X134820219Y34395335D01*
X134889792Y33992551D01*
X134895660Y33970650D01*
X134895661Y33970647D01*
X134985115Y33636799D01*
X134995583Y33597731D01*
X135136723Y33214123D01*
X135312050Y32844886D01*
X135520120Y32493060D01*
X135759220Y32161539D01*
X135774081Y32144444D01*
X135774086Y32144437D01*
X136012508Y31870163D01*
X136012516Y31870155D01*
X136027383Y31853052D01*
X136152366Y31733198D01*
X136306044Y31585826D01*
X136306052Y31585819D01*
X136322402Y31570140D01*
X136641847Y31315130D01*
X136660768Y31302654D01*
X136660772Y31302651D01*
X136964167Y31102599D01*
X136964173Y31102595D01*
X136983090Y31090122D01*
X137343321Y30896968D01*
X137364194Y30888108D01*
X137411343Y30868094D01*
X137588463Y30770695D01*
X137742352Y30639635D01*
X137866708Y30480281D01*
X137956441Y30299156D01*
X138007876Y30103675D01*
X138020000Y29948511D01*
X138020000Y19223754D01*
X137999550Y19022657D01*
X137939039Y18829793D01*
X137840943Y18653057D01*
X137709278Y18499686D01*
X137549435Y18375958D01*
X137440103Y18317414D01*
X137428838Y18312909D01*
X137408639Y18302617D01*
X137408632Y18302614D01*
X137212380Y18202619D01*
X137064640Y18127342D01*
X136718760Y17909529D01*
X136394044Y17661265D01*
X136377362Y17645925D01*
X136109856Y17399941D01*
X136109848Y17399933D01*
X136093166Y17384593D01*
X136077939Y17367800D01*
X136077937Y17367798D01*
X135940446Y17216167D01*
X135818601Y17081791D01*
X135804958Y17063686D01*
X135635114Y16838295D01*
X135572610Y16755350D01*
X135357218Y16407958D01*
X135347065Y16387682D01*
X135233385Y16160668D01*
X135174197Y16042473D01*
X135165927Y16021370D01*
X135165925Y16021366D01*
X135043853Y15709874D01*
X135025054Y15661906D01*
X135018728Y15640132D01*
X135018723Y15640117D01*
X135009263Y15607555D01*
X134933520Y15420148D01*
X134821603Y15251824D01*
X134678093Y15109475D01*
X134508867Y14998928D01*
X134320851Y14924709D01*
X134121744Y14889856D01*
X133919697Y14895797D01*
X133722982Y14942288D01*
X133539652Y15027426D01*
X133377213Y15147725D01*
X133242315Y15298260D01*
X133140481Y15472869D01*
X133075880Y15664402D01*
X133067358Y15709874D01*
X133067352Y15709873D01*
X133062610Y15733822D01*
X133059044Y15757972D01*
X133046106Y15809866D01*
X132970282Y16113978D01*
X132964376Y16137666D01*
X132833107Y16506311D01*
X132822713Y16528400D01*
X132822709Y16528409D01*
X132676887Y16838295D01*
X132666492Y16860386D01*
X132637167Y16909580D01*
X132478622Y17175540D01*
X132466120Y17196513D01*
X132431939Y17242876D01*
X132248393Y17491832D01*
X132248392Y17491833D01*
X132233905Y17511483D01*
X132217575Y17529620D01*
X132217567Y17529629D01*
X132009931Y17760230D01*
X131972061Y17802289D01*
X131683090Y18066156D01*
X131369749Y18300565D01*
X131035030Y18503278D01*
X131013023Y18513822D01*
X131013016Y18513826D01*
X130704143Y18661813D01*
X130682126Y18672362D01*
X130314407Y18806200D01*
X130290770Y18812269D01*
X129959025Y18897447D01*
X129959016Y18897449D01*
X129935382Y18903517D01*
X129548670Y18963383D01*
X129524304Y18964745D01*
X129524297Y18964746D01*
X129386447Y18972453D01*
X129157962Y18985227D01*
X128970548Y18977372D01*
X128791385Y18969864D01*
X128791376Y18969863D01*
X128766987Y18968841D01*
X128594211Y18944559D01*
X128403651Y18917778D01*
X128403640Y18917776D01*
X128379477Y18914380D01*
X128355754Y18908641D01*
X128355750Y18908640D01*
X128061325Y18837411D01*
X127999131Y18822364D01*
X127976089Y18814340D01*
X127976079Y18814337D01*
X127652651Y18701708D01*
X127652642Y18701704D01*
X127629579Y18693673D01*
X127607413Y18683431D01*
X127607406Y18683428D01*
X127541678Y18653057D01*
X127274349Y18529533D01*
X126936831Y18331513D01*
X126917073Y18317158D01*
X126759424Y18202619D01*
X126620248Y18101502D01*
X126327621Y17841695D01*
X126061743Y17554573D01*
X125825152Y17242876D01*
X125620107Y16909580D01*
X125448564Y16557865D01*
X125312162Y16191090D01*
X125212201Y15812754D01*
X125149637Y15426469D01*
X125125065Y15035923D01*
X125125917Y15011522D01*
X125125917Y15011513D01*
X125137869Y14669260D01*
X125138722Y14644843D01*
X125190477Y14256962D01*
X125279834Y13875983D01*
X125287701Y13852874D01*
X125347366Y13677611D01*
X125405943Y13505542D01*
X125567598Y13149174D01*
X125763258Y12810283D01*
X125991053Y12492101D01*
X126248810Y12197667D01*
X126336466Y12115353D01*
X126516273Y11946503D01*
X126516279Y11946498D01*
X126534069Y11929792D01*
X126553411Y11914897D01*
X126824766Y11705925D01*
X126824773Y11705920D01*
X126844107Y11691031D01*
X126864800Y11678100D01*
X126864808Y11678095D01*
X127029175Y11575387D01*
X127175964Y11483663D01*
X127197822Y11472812D01*
X127197832Y11472807D01*
X127355708Y11394437D01*
X127526472Y11309669D01*
X127892287Y11170710D01*
X128269915Y11068110D01*
X128293984Y11064039D01*
X128631684Y11006921D01*
X128631687Y11006921D01*
X128655754Y11002850D01*
X129046119Y10975553D01*
X129070534Y10976235D01*
X129070536Y10976235D01*
X129412881Y10985798D01*
X129412887Y10985798D01*
X129437285Y10986480D01*
X129636198Y11011609D01*
X129801296Y11032465D01*
X129801300Y11032466D01*
X129825517Y11035525D01*
X129849326Y11040934D01*
X129849330Y11040935D01*
X130122738Y11103052D01*
X130207111Y11122221D01*
X130230290Y11129932D01*
X130230295Y11129933D01*
X130555250Y11238031D01*
X130555251Y11238031D01*
X130578424Y11245740D01*
X130935911Y11404904D01*
X131276160Y11598192D01*
X131595924Y11823761D01*
X131892150Y12079456D01*
X132162011Y12362838D01*
X132402931Y12671201D01*
X132416015Y12691818D01*
X132416022Y12691828D01*
X132599520Y12980976D01*
X132612610Y13001602D01*
X132789046Y13350888D01*
X132852732Y13515080D01*
X132926905Y13706307D01*
X133018693Y13886400D01*
X133144854Y14044329D01*
X133300224Y14173629D01*
X133478441Y14269007D01*
X133672210Y14326558D01*
X133873597Y14343925D01*
X134074357Y14320398D01*
X134266272Y14256939D01*
X134441484Y14156148D01*
X134592821Y14022150D01*
X134714086Y13860430D01*
X134800314Y13677611D01*
X134842716Y13515092D01*
X134889792Y13242551D01*
X134895660Y13220650D01*
X134895661Y13220647D01*
X134979482Y12907823D01*
X134995583Y12847731D01*
X135136723Y12464123D01*
X135312050Y12094886D01*
X135323579Y12075391D01*
X135323582Y12075386D01*
X135462959Y11839714D01*
X135520120Y11743060D01*
X135533371Y11724686D01*
X135533373Y11724684D01*
X135557644Y11691031D01*
X135759220Y11411539D01*
X135774081Y11394444D01*
X135774086Y11394437D01*
X136012508Y11120163D01*
X136012516Y11120155D01*
X136027383Y11103052D01*
X136097800Y11035525D01*
X136306044Y10835826D01*
X136306052Y10835819D01*
X136322402Y10820140D01*
X136641847Y10565130D01*
X136660768Y10552654D01*
X136660772Y10552651D01*
X136964167Y10352599D01*
X136964173Y10352595D01*
X136983090Y10340122D01*
X137003066Y10329411D01*
X137290195Y10175454D01*
X137343321Y10146968D01*
X137364194Y10138108D01*
X137411343Y10118094D01*
X137588463Y10020695D01*
X137742352Y9889635D01*
X137866708Y9730281D01*
X137956441Y9549156D01*
X138007876Y9353675D01*
X138020000Y9198511D01*
X138020000Y7301796D01*
X138019049Y7258220D01*
X138002876Y6887802D01*
X137995281Y6800983D01*
X137949731Y6454994D01*
X137934596Y6369165D01*
X137859070Y6028491D01*
X137836514Y5944310D01*
X137731581Y5611505D01*
X137701774Y5529611D01*
X137568230Y5207206D01*
X137531398Y5128218D01*
X137370268Y4818690D01*
X137326695Y4743219D01*
X137141968Y4453255D01*
X137139195Y4448903D01*
X137089207Y4377514D01*
X136876775Y4100667D01*
X136820755Y4033904D01*
X136585001Y3776624D01*
X136523376Y3714999D01*
X136284510Y3496118D01*
X136266096Y3479245D01*
X136199333Y3423225D01*
X135922486Y3210793D01*
X135851102Y3160809D01*
X135556786Y2973308D01*
X135481315Y2929735D01*
X135212180Y2789632D01*
X135171782Y2768602D01*
X135092794Y2731770D01*
X134770389Y2598226D01*
X134688495Y2568419D01*
X134355690Y2463486D01*
X134271509Y2440930D01*
X133930835Y2365404D01*
X133845008Y2350269D01*
X133499010Y2304718D01*
X133412202Y2297124D01*
X133115306Y2284161D01*
X133041780Y2280951D01*
X132998204Y2280000D01*
X114156978Y2280000D01*
X114111729Y2281025D01*
X114060305Y2283357D01*
X113741953Y2297792D01*
X113651824Y2305983D01*
X113307558Y2353071D01*
X113218546Y2369382D01*
X112879926Y2447439D01*
X112792775Y2471734D01*
X112462612Y2580115D01*
X112378014Y2612198D01*
X112059012Y2750014D01*
X111977644Y2789632D01*
X111672446Y2955740D01*
X111594999Y3002558D01*
X111306066Y3195617D01*
X111233183Y3249246D01*
X110985036Y3449778D01*
X110962920Y3467651D01*
X110895183Y3527660D01*
X110645793Y3769628D01*
X110583766Y3835521D01*
X110357293Y4099072D01*
X110301482Y4170309D01*
X110099790Y4453272D01*
X110050662Y4529258D01*
X109875409Y4829307D01*
X109833352Y4909439D01*
X109685968Y5224124D01*
X109651342Y5307718D01*
X109533035Y5634468D01*
X109506118Y5720852D01*
X109417876Y6056934D01*
X109398881Y6145420D01*
X109341415Y6488118D01*
X109330506Y6577958D01*
X109313631Y6800983D01*
X109304289Y6924456D01*
X109301556Y7014911D01*
X109306804Y7362340D01*
X109312268Y7452678D01*
X109348939Y7798227D01*
X109362556Y7887695D01*
X109430348Y8228504D01*
X109451998Y8316344D01*
X109550361Y8649647D01*
X109579877Y8735177D01*
X109707992Y9058186D01*
X109745132Y9140709D01*
X109901944Y9450784D01*
X109946406Y9529616D01*
X110130642Y9824234D01*
X110182050Y9898713D01*
X110274678Y10020695D01*
X110392196Y10175454D01*
X110450131Y10244970D01*
X110699737Y10518286D01*
X110731008Y10551008D01*
X118970000Y18790000D01*
X118970000Y34705044D01*
X118990450Y34906141D01*
X119050961Y35099005D01*
X119076523Y35153915D01*
X119175454Y35350616D01*
X119175459Y35350629D01*
X119188390Y35376338D01*
X119198277Y35403356D01*
X119198281Y35403365D01*
X119297417Y35674269D01*
X119297418Y35674273D01*
X119307305Y35701290D01*
X119314021Y35729264D01*
X119314024Y35729274D01*
X119381364Y36009765D01*
X119381365Y36009770D01*
X119388084Y36037757D01*
X119391542Y36066331D01*
X119426985Y36359218D01*
X119426986Y36359229D01*
X119429654Y36381278D01*
X119435585Y36570000D01*
X119415666Y36915453D01*
X119356174Y37256328D01*
X119257897Y37588106D01*
X119174543Y37783526D01*
X119114457Y37976518D01*
X119094449Y38177659D01*
X119115340Y38378711D01*
X119176275Y38571442D01*
X119274759Y38747962D01*
X119406761Y38901043D01*
X119566875Y39024420D01*
X119700697Y39094024D01*
X119801939Y39137311D01*
X119948486Y39199970D01*
X119948490Y39199972D01*
X119977760Y39212487D01*
X120005198Y39228617D01*
X120005206Y39228621D01*
X120222732Y39356498D01*
X120222737Y39356501D01*
X120250171Y39372629D01*
X120301371Y39412272D01*
X120474852Y39546596D01*
X120474853Y39546597D01*
X120500026Y39566088D01*
X120723274Y39789726D01*
X120868487Y39977948D01*
X120896859Y40014724D01*
X120896859Y40014725D01*
X120916296Y40039918D01*
X121075963Y40312608D01*
X121137624Y40457520D01*
X121187224Y40574087D01*
X121187227Y40574095D01*
X121199686Y40603376D01*
X121285460Y40907508D01*
X121304290Y41034258D01*
X121328019Y41193980D01*
X121328020Y41193990D01*
X121331895Y41220074D01*
X121332999Y41246417D01*
X121333000Y41246427D01*
X121335062Y41295648D01*
X121335500Y41306089D01*
X121335499Y42501910D01*
X121331529Y42592242D01*
X121284549Y42904726D01*
X121258622Y42996048D01*
X121206936Y43178094D01*
X121206935Y43178097D01*
X121198244Y43208708D01*
X121185736Y43237963D01*
X121185733Y43237970D01*
X121086530Y43469986D01*
X121086528Y43469990D01*
X121074013Y43499260D01*
X121057883Y43526698D01*
X121057879Y43526706D01*
X120930002Y43744232D01*
X120929999Y43744237D01*
X120913871Y43771671D01*
X120753768Y43978447D01*
X120739904Y43996352D01*
X120739903Y43996353D01*
X120720412Y44021526D01*
X120496774Y44244774D01*
X120401680Y44318139D01*
X120271776Y44418359D01*
X120271775Y44418359D01*
X120246582Y44437796D01*
X119973892Y44597463D01*
X119920541Y44620164D01*
X119712403Y44708728D01*
X119712398Y44708730D01*
X119683124Y44721186D01*
X119652500Y44729823D01*
X119637171Y44735221D01*
X119454284Y44821306D01*
X119292470Y44942444D01*
X119158353Y45093675D01*
X119057424Y45268808D01*
X118993814Y45460673D01*
X118970000Y45677500D01*
X118970000Y55025044D01*
X118990450Y55226141D01*
X119050961Y55419005D01*
X119076523Y55473915D01*
X119175454Y55670616D01*
X119175459Y55670629D01*
X119188390Y55696338D01*
X119198277Y55723356D01*
X119198281Y55723365D01*
X119297417Y55994269D01*
X119297418Y55994273D01*
X119307305Y56021290D01*
X119314021Y56049264D01*
X119314024Y56049274D01*
X119381364Y56329765D01*
X119381365Y56329770D01*
X119388084Y56357757D01*
X119422057Y56638499D01*
X119426985Y56679218D01*
X119426986Y56679229D01*
X119429654Y56701278D01*
X119435585Y56890000D01*
X119415666Y57235453D01*
X119356174Y57576328D01*
X119257897Y57908106D01*
X119145598Y58171388D01*
X119085510Y58364385D01*
X119065500Y58563332D01*
X119065500Y60135224D01*
X119085950Y60336321D01*
X119146461Y60529185D01*
X119244557Y60705921D01*
X119376222Y60859292D01*
X119536065Y60983020D01*
X119688427Y61056405D01*
X119687208Y61059256D01*
X119948486Y61170970D01*
X119948490Y61170972D01*
X119977760Y61183487D01*
X120005198Y61199617D01*
X120005206Y61199621D01*
X120222732Y61327498D01*
X120222737Y61327501D01*
X120250171Y61343629D01*
X120500026Y61537088D01*
X120723274Y61760726D01*
X120868487Y61948948D01*
X120896859Y61985724D01*
X120896859Y61985725D01*
X120916296Y62010918D01*
X121075963Y62283608D01*
X121137624Y62428520D01*
X121187224Y62545087D01*
X121187227Y62545095D01*
X121199686Y62574376D01*
X121285460Y62878508D01*
X121304290Y63005258D01*
X121328019Y63164980D01*
X121328020Y63164990D01*
X121331895Y63191074D01*
X121332999Y63217417D01*
X121333000Y63217427D01*
X121335062Y63266648D01*
X121335500Y63277089D01*
X121335499Y64472910D01*
X121331529Y64563242D01*
X121284549Y64875726D01*
X121258622Y64967048D01*
X121206936Y65149094D01*
X121206935Y65149097D01*
X121198244Y65179708D01*
X121185736Y65208963D01*
X121185733Y65208970D01*
X121086530Y65440986D01*
X121086528Y65440990D01*
X121074013Y65470260D01*
X121057883Y65497698D01*
X121057879Y65497706D01*
X120930002Y65715232D01*
X120929999Y65715237D01*
X120913871Y65742671D01*
X120720412Y65992526D01*
X120496774Y66215774D01*
X120401680Y66289139D01*
X120271776Y66389359D01*
X120271775Y66389359D01*
X120246582Y66408796D01*
X119973892Y66568463D01*
X119920541Y66591164D01*
X119712403Y66679728D01*
X119712398Y66679730D01*
X119683124Y66692186D01*
X119652500Y66700823D01*
X119637171Y66706221D01*
X119454284Y66792306D01*
X119292470Y66913444D01*
X119158353Y67064675D01*
X119057424Y67239808D01*
X118993814Y67431673D01*
X118970000Y67648500D01*
X118970000Y76615044D01*
X118990450Y76816141D01*
X119050961Y77009005D01*
X119076523Y77063915D01*
X119175454Y77260616D01*
X119175459Y77260629D01*
X119188390Y77286338D01*
X119198277Y77313356D01*
X119198281Y77313365D01*
X119297417Y77584269D01*
X119297418Y77584273D01*
X119307305Y77611290D01*
X119314021Y77639264D01*
X119314024Y77639274D01*
X119381364Y77919765D01*
X119381365Y77919770D01*
X119388084Y77947757D01*
X119422057Y78228499D01*
X119426985Y78269218D01*
X119426986Y78269229D01*
X119429654Y78291278D01*
X119435585Y78480000D01*
X119415666Y78825453D01*
X119356174Y79166328D01*
X119257897Y79498106D01*
X119145598Y79761388D01*
X119085510Y79954385D01*
X119065500Y80153332D01*
X119065500Y82233224D01*
X119085950Y82434321D01*
X119146461Y82627185D01*
X119244557Y82803921D01*
X119376222Y82957292D01*
X119536065Y83081020D01*
X119688427Y83154405D01*
X119687208Y83157256D01*
X119948486Y83268970D01*
X119948490Y83268972D01*
X119977760Y83281487D01*
X120005198Y83297617D01*
X120005206Y83297621D01*
X120222732Y83425498D01*
X120222737Y83425501D01*
X120250171Y83441629D01*
X120500026Y83635088D01*
X120723274Y83858726D01*
X120821533Y83986087D01*
X120896859Y84083724D01*
X120896859Y84083725D01*
X120916296Y84108918D01*
X121075963Y84381608D01*
X121137624Y84526520D01*
X121187224Y84643087D01*
X121187227Y84643095D01*
X121199686Y84672376D01*
X121285460Y84976508D01*
X121304290Y85103258D01*
X121328019Y85262980D01*
X121328020Y85262990D01*
X121331895Y85289074D01*
X121332999Y85315417D01*
X121333000Y85315427D01*
X121335062Y85364648D01*
X121335500Y85375089D01*
X121335499Y86570910D01*
X121331529Y86661242D01*
X121284549Y86973726D01*
X121258622Y87065048D01*
X121206936Y87247094D01*
X121206935Y87247097D01*
X121198244Y87277708D01*
X121185736Y87306963D01*
X121185733Y87306970D01*
X121086530Y87538986D01*
X121086528Y87538990D01*
X121074013Y87568260D01*
X121057883Y87595698D01*
X121057879Y87595706D01*
X120930002Y87813232D01*
X120929999Y87813237D01*
X120913871Y87840671D01*
X120720412Y88090526D01*
X120496774Y88313774D01*
X120401680Y88387139D01*
X120271776Y88487359D01*
X120271775Y88487359D01*
X120246582Y88506796D01*
X119973892Y88666463D01*
X119920541Y88689164D01*
X119712403Y88777728D01*
X119712398Y88777730D01*
X119683124Y88790186D01*
X119652500Y88798823D01*
X119637171Y88804221D01*
X119454284Y88890306D01*
X119292470Y89011444D01*
X119158353Y89162675D01*
X119057424Y89337808D01*
X118993814Y89529673D01*
X118970000Y89746500D01*
X118970000Y100745044D01*
X118990450Y100946141D01*
X119050961Y101139005D01*
X119076523Y101193915D01*
X119175454Y101390616D01*
X119175459Y101390629D01*
X119188390Y101416338D01*
X119198277Y101443356D01*
X119198281Y101443365D01*
X119297417Y101714269D01*
X119297418Y101714273D01*
X119307305Y101741290D01*
X119314021Y101769264D01*
X119314024Y101769274D01*
X119381364Y102049765D01*
X119381365Y102049770D01*
X119388084Y102077757D01*
X119422057Y102358499D01*
X119426985Y102399218D01*
X119426986Y102399229D01*
X119429654Y102421278D01*
X119435585Y102610000D01*
X119415666Y102955453D01*
X119356174Y103296328D01*
X119257897Y103628106D01*
X119174543Y103823526D01*
X119114457Y104016518D01*
X119094449Y104217659D01*
X119115340Y104418711D01*
X119176275Y104611442D01*
X119274759Y104787962D01*
X119406761Y104941043D01*
X119566875Y105064420D01*
X119700697Y105134024D01*
X119857789Y105201191D01*
X119948486Y105239970D01*
X119948490Y105239972D01*
X119977760Y105252487D01*
X120005198Y105268617D01*
X120005206Y105268621D01*
X120222732Y105396498D01*
X120222737Y105396501D01*
X120250171Y105412629D01*
X120500026Y105606088D01*
X120723274Y105829726D01*
X120868487Y106017948D01*
X120896859Y106054724D01*
X120896859Y106054725D01*
X120916296Y106079918D01*
X121075963Y106352608D01*
X121137624Y106497520D01*
X121187224Y106614087D01*
X121187227Y106614095D01*
X121199686Y106643376D01*
X121285460Y106947508D01*
X121304290Y107074258D01*
X121328019Y107233980D01*
X121328020Y107233990D01*
X121331895Y107260074D01*
X121332999Y107286417D01*
X121333000Y107286427D01*
X121335062Y107335648D01*
X121335500Y107346089D01*
X121335499Y108541910D01*
X121331529Y108632242D01*
X121284549Y108944726D01*
X121258622Y109036048D01*
X121206936Y109218094D01*
X121206935Y109218097D01*
X121198244Y109248708D01*
X121185736Y109277963D01*
X121185733Y109277970D01*
X121086530Y109509986D01*
X121086528Y109509990D01*
X121074013Y109539260D01*
X121057883Y109566698D01*
X121057879Y109566706D01*
X120930002Y109784232D01*
X120929999Y109784237D01*
X120913871Y109811671D01*
X120720412Y110061526D01*
X120694823Y110087071D01*
X120519295Y110262292D01*
X120496774Y110284774D01*
X120401680Y110358139D01*
X120271776Y110458359D01*
X120271775Y110458359D01*
X120246582Y110477796D01*
X119973892Y110637463D01*
X119843628Y110692891D01*
X119712412Y110748724D01*
X119712410Y110748725D01*
X119683124Y110761186D01*
X119652493Y110769825D01*
X119644019Y110772809D01*
X119461132Y110858895D01*
X119299318Y110980033D01*
X119165201Y111131265D01*
X119064273Y111306398D01*
X119000664Y111498263D01*
X118976979Y111699005D01*
X118977801Y111758663D01*
X118987124Y111972197D01*
X118994719Y112059017D01*
X119040269Y112405006D01*
X119055404Y112490835D01*
X119130930Y112831509D01*
X119153486Y112915690D01*
X119258419Y113248495D01*
X119288226Y113330389D01*
X119421770Y113652794D01*
X119458602Y113731782D01*
X119619732Y114041310D01*
X119663308Y114116786D01*
X119850805Y114411097D01*
X119900793Y114482486D01*
X120113225Y114759333D01*
X120169245Y114826096D01*
X120404999Y115083376D01*
X120466624Y115145001D01*
X120723904Y115380755D01*
X120790667Y115436775D01*
X121067514Y115649207D01*
X121138898Y115699191D01*
X121433219Y115886695D01*
X121508685Y115930265D01*
X121818223Y116091400D01*
X121897206Y116128230D01*
X122219611Y116261774D01*
X122301505Y116291581D01*
X122634310Y116396514D01*
X122718491Y116419070D01*
X123059165Y116494596D01*
X123144992Y116509731D01*
X123490990Y116555282D01*
X123577798Y116562876D01*
X123874694Y116575839D01*
X123948220Y116579049D01*
X123991796Y116580000D01*
X132998204Y116580000D01*
X133041780Y116579049D01*
G37*
%TD.AperFunction*%
%TD*%
M02*
