M48
; DRILL file {KiCad 6.0.11+dfsg-1} date Tue Jul 30 17:37:04 2024
; FORMAT={-:-/ absolute / metric / decimal}
; #@! TF.CreationDate,2024-07-30T17:37:04+04:00
; #@! TF.GenerationSoftware,Kicad,Pcbnew,6.0.11+dfsg-1
; #@! TF.FileFunction,Plated,1,2,PTH
FMAT,2
METRIC
; #@! TA.AperFunction,Plated,PTH,ComponentDrill
T3C0.800
; #@! TA.AperFunction,Plated,PTH,ComponentDrill
T4C1.100
%
G90
G05
T3
X54.2Y90.77
X54.2Y83.15
X61.82Y100.07
X61.82Y97.53
X61.82Y94.99
X61.82Y92.45
X61.82Y89.91
X61.82Y87.37
X61.82Y84.83
X61.82Y82.29
X61.82Y79.75
X61.82Y77.21
X61.82Y74.67
X61.82Y72.13
X61.82Y69.59
X61.82Y67.05
X61.82Y64.51
X61.82Y61.97
X61.82Y59.43
X61.82Y56.89
X61.82Y54.35
X61.82Y51.81
X61.82Y49.27
X61.82Y46.73
X61.82Y44.19
X61.82Y41.65
X84.68Y100.07
X84.68Y97.53
X84.68Y94.99
X84.68Y92.45
X84.68Y89.91
X84.68Y87.37
X84.68Y84.83
X84.68Y82.29
X84.68Y79.75
X84.68Y77.21
X84.68Y74.67
X84.68Y72.13
X84.68Y69.59
X84.68Y67.05
X84.68Y64.51
X84.68Y61.97
X84.68Y59.43
X84.68Y56.89
X84.68Y54.35
X84.68Y51.81
X84.68Y49.27
X84.68Y46.73
X84.68Y44.19
X84.68Y41.65
X92.3Y92.75
X92.3Y85.13
T4
X28.165Y109.94
X28.165Y65.94
X28.165Y43.94
X28.223Y87.878
X30.705Y112.48
X30.705Y107.4
X30.705Y68.48
X30.705Y63.4
X30.705Y46.48
X30.705Y41.4
X30.762Y90.418
X30.762Y85.338
X115.795Y110.484
X115.795Y88.513
X115.795Y66.415
X115.795Y44.444
X118.335Y113.024
X118.335Y107.944
X118.335Y91.053
X118.335Y85.973
X118.335Y68.955
X118.335Y63.875
X118.335Y46.984
X118.335Y41.904
T0
M30
