M48
; DRILL file {KiCad 6.0.11+dfsg-1} date Thu 01 Aug 2024 06:35:17 PM +04
; FORMAT={-:-/ absolute / metric / decimal}
; #@! TF.CreationDate,2024-08-01T18:35:17+04:00
; #@! TF.GenerationSoftware,Kicad,Pcbnew,6.0.11+dfsg-1
; #@! TF.FileFunction,Plated,1,2,PTH
FMAT,2
METRIC
; #@! TA.AperFunction,Plated,PTH,ViaDrill
T1C0.700
; #@! TA.AperFunction,Plated,PTH,ComponentDrill
T2C0.800
; #@! TA.AperFunction,Plated,PTH,ComponentDrill
T3C1.100
; #@! TA.AperFunction,Plated,PTH,ComponentDrill
T4C2.000
; #@! TA.AperFunction,Plated,PTH,ComponentDrill
T5C3.000
; #@! TA.AperFunction,Plated,PTH,ComponentDrill
T6C3.500
; #@! TA.AperFunction,Plated,PTH,ComponentDrill
T7C4.000
%
G90
G05
T1
X27.53Y77.21
X28.8Y97.53
X28.8Y73.4
X28.8Y51.81
X54.2Y97.53
X54.2Y77.21
X54.2Y72.13
X54.2Y51.81
X69.44Y107.69
X70.71Y114.04
X91.03Y78.48
X91.03Y56.89
X91.03Y36.57
X92.3Y102.61
X92.3Y97.53
X116.43Y102.61
X116.43Y78.48
X116.43Y56.89
X116.43Y36.57
X118.97Y97.53
T2
X54.2Y90.77
X54.2Y83.15
X60.55Y27.68
X61.82Y100.07
X61.82Y97.53
X61.82Y94.99
X61.82Y92.45
X61.82Y89.91
X61.82Y87.37
X61.82Y84.83
X61.82Y82.29
X61.82Y79.75
X61.82Y77.21
X61.82Y74.67
X61.82Y72.13
X61.82Y69.59
X61.82Y67.05
X61.82Y64.51
X61.82Y61.97
X61.82Y59.43
X61.82Y56.89
X61.82Y54.35
X61.82Y51.81
X61.82Y49.27
X61.82Y46.73
X61.82Y44.19
X61.82Y41.65
X63.09Y27.68
X64.36Y113.786
X64.36Y111.246
X65.63Y27.68
X68.17Y27.68
X78.33Y27.68
X79.6Y113.786
X79.6Y111.246
X80.87Y27.68
X83.41Y27.68
X84.68Y100.07
X84.68Y97.53
X84.68Y94.99
X84.68Y92.45
X84.68Y89.91
X84.68Y87.37
X84.68Y84.83
X84.68Y82.29
X84.68Y79.75
X84.68Y77.21
X84.68Y74.67
X84.68Y72.13
X84.68Y69.59
X84.68Y67.05
X84.68Y64.51
X84.68Y61.97
X84.68Y59.43
X84.68Y56.89
X84.68Y54.35
X84.68Y51.81
X84.68Y49.27
X84.68Y46.73
X84.68Y44.19
X84.68Y41.65
X85.95Y27.68
X92.3Y92.75
X92.3Y85.13
T3
X28.165Y109.94
X28.165Y65.94
X28.165Y43.94
X28.223Y87.878
X30.705Y112.48
X30.705Y107.4
X30.705Y68.48
X30.705Y63.4
X30.705Y46.48
X30.705Y41.4
X30.762Y90.418
X30.762Y85.338
X115.795Y110.484
X115.795Y88.513
X115.795Y66.415
X115.795Y44.444
X118.335Y113.024
X118.335Y107.944
X118.335Y91.053
X118.335Y85.973
X118.335Y68.955
X118.335Y63.875
X118.335Y46.984
X118.335Y41.904
T4
X60.75Y102.82
X60.75Y37.82
X85.75Y102.82
X85.75Y37.82
T5
X5.94Y102.21
X5.94Y81.46
X5.94Y34.96
X5.94Y14.21
X139.29Y102.21
X139.29Y81.46
X139.29Y34.96
X139.29Y14.21
T6
X42.38Y107.44
X42.38Y46.44
X104.12Y107.98
X104.12Y46.98
T7
X8.88Y125.63
X28.8Y7.36
X58.88Y125.63
X73.25Y10.63
X85.08Y125.63
X116.43Y7.36
X135.08Y125.63
T0
M30
