%TF.GenerationSoftware,KiCad,Pcbnew,6.0.11+dfsg-1*%
%TF.CreationDate,2024-07-19T09:55:35+04:00*%
%TF.ProjectId,pwm,70776d2e-6b69-4636-9164-5f7063625858,rev?*%
%TF.SameCoordinates,PX14fb180PYa6e49c0*%
%TF.FileFunction,Profile,NP*%
%FSLAX46Y46*%
G04 Gerber Fmt 4.6, Leading zero omitted, Abs format (unit mm)*
G04 Created by KiCad (PCBNEW 6.0.11+dfsg-1) date 2024-07-19 09:55:35*
%MOMM*%
%LPD*%
G01*
G04 APERTURE LIST*
%TA.AperFunction,Profile*%
%ADD10C,0.100000*%
%TD*%
%TA.AperFunction,Profile*%
%ADD11C,0.120000*%
%TD*%
G04 APERTURE END LIST*
D10*
X19370000Y14250000D02*
G75*
G03*
X19370000Y14250000I-2000000J0D01*
G01*
X144000000Y145000000D02*
X1000000Y145000000D01*
X0Y144000000D02*
X0Y1000000D01*
X144000000Y145000000D02*
X145000000Y144000000D01*
X1000000Y145000000D02*
X0Y144000000D01*
X145000000Y1000000D02*
X145000000Y144000000D01*
X144000000Y0D02*
X145000000Y1000000D01*
X1000000Y0D02*
X144000000Y0D01*
X0Y1000000D02*
X1000000Y0D01*
D11*
%TO.C,U1*%
X61750000Y37820000D02*
G75*
G03*
X61750000Y37820000I-1000000J0D01*
G01*
X61750000Y102820000D02*
G75*
G03*
X61750000Y102820000I-1000000J0D01*
G01*
X86750000Y37820000D02*
G75*
G03*
X86750000Y37820000I-1000000J0D01*
G01*
X86750000Y102820000D02*
G75*
G03*
X86750000Y102820000I-1000000J0D01*
G01*
%TO.C,REF\u002A\u002A*%
X137080000Y125630000D02*
G75*
G03*
X137080000Y125630000I-2000000J0D01*
G01*
X87080000Y125630000D02*
G75*
G03*
X87080000Y125630000I-2000000J0D01*
G01*
X10880000Y125630000D02*
G75*
G03*
X10880000Y125630000I-2000000J0D01*
G01*
X60880000Y125630000D02*
G75*
G03*
X60880000Y125630000I-2000000J0D01*
G01*
%TO.C,J3*%
X131130000Y14980000D02*
G75*
G03*
X131130000Y14980000I-2000000J0D01*
G01*
%TO.C,J2*%
X75250000Y12440000D02*
G75*
G03*
X75250000Y12440000I-2000000J0D01*
G01*
%TO.C,J1*%
X19370000Y14250000D02*
G75*
G03*
X19370000Y14250000I-2000000J0D01*
G01*
%TO.C,REF\u002A\u002A*%
X105889000Y46984000D02*
G75*
G03*
X105889000Y46984000I-1778000J0D01*
G01*
X105889000Y107944000D02*
G75*
G03*
X105889000Y107944000I-1778000J0D01*
G01*
X44167000Y46476000D02*
G75*
G03*
X44167000Y46476000I-1778000J0D01*
G01*
X44167000Y107436000D02*
G75*
G03*
X44167000Y107436000I-1778000J0D01*
G01*
%TD*%
M02*
