%TF.GenerationSoftware,KiCad,Pcbnew,6.0.11+dfsg-1*%
%TF.CreationDate,2024-09-19T13:16:05+04:00*%
%TF.ProjectId,bat,6261742e-6b69-4636-9164-5f7063625858,rev?*%
%TF.SameCoordinates,PX60e4b00PY48ab840*%
%TF.FileFunction,Copper,L1,Top*%
%TF.FilePolarity,Positive*%
%FSLAX46Y46*%
G04 Gerber Fmt 4.6, Leading zero omitted, Abs format (unit mm)*
G04 Created by KiCad (PCBNEW 6.0.11+dfsg-1) date 2024-09-19 13:16:05*
%MOMM*%
%LPD*%
G01*
G04 APERTURE LIST*
G04 Aperture macros list*
%AMRoundRect*
0 Rectangle with rounded corners*
0 $1 Rounding radius*
0 $2 $3 $4 $5 $6 $7 $8 $9 X,Y pos of 4 corners*
0 Add a 4 corners polygon primitive as box body*
4,1,4,$2,$3,$4,$5,$6,$7,$8,$9,$2,$3,0*
0 Add four circle primitives for the rounded corners*
1,1,$1+$1,$2,$3*
1,1,$1+$1,$4,$5*
1,1,$1+$1,$6,$7*
1,1,$1+$1,$8,$9*
0 Add four rect primitives between the rounded corners*
20,1,$1+$1,$2,$3,$4,$5,0*
20,1,$1+$1,$4,$5,$6,$7,0*
20,1,$1+$1,$6,$7,$8,$9,0*
20,1,$1+$1,$8,$9,$2,$3,0*%
G04 Aperture macros list end*
%TA.AperFunction,SMDPad,CuDef*%
%ADD10RoundRect,0.075000X-0.910000X-0.225000X0.910000X-0.225000X0.910000X0.225000X-0.910000X0.225000X0*%
%TD*%
%TA.AperFunction,SMDPad,CuDef*%
%ADD11R,2.413000X3.302000*%
%TD*%
%TA.AperFunction,SMDPad,CuDef*%
%ADD12RoundRect,0.150000X0.825000X0.150000X-0.825000X0.150000X-0.825000X-0.150000X0.825000X-0.150000X0*%
%TD*%
%TA.AperFunction,SMDPad,CuDef*%
%ADD13RoundRect,0.160000X0.197500X0.160000X-0.197500X0.160000X-0.197500X-0.160000X0.197500X-0.160000X0*%
%TD*%
%TA.AperFunction,SMDPad,CuDef*%
%ADD14RoundRect,0.160000X-0.197500X-0.160000X0.197500X-0.160000X0.197500X0.160000X-0.197500X0.160000X0*%
%TD*%
%TA.AperFunction,SMDPad,CuDef*%
%ADD15RoundRect,0.160000X0.160000X-0.197500X0.160000X0.197500X-0.160000X0.197500X-0.160000X-0.197500X0*%
%TD*%
%TA.AperFunction,SMDPad,CuDef*%
%ADD16RoundRect,0.250000X0.412500X0.650000X-0.412500X0.650000X-0.412500X-0.650000X0.412500X-0.650000X0*%
%TD*%
%TA.AperFunction,SMDPad,CuDef*%
%ADD17RoundRect,0.250000X0.450000X-0.350000X0.450000X0.350000X-0.450000X0.350000X-0.450000X-0.350000X0*%
%TD*%
%TA.AperFunction,SMDPad,CuDef*%
%ADD18RoundRect,0.250000X0.350000X0.450000X-0.350000X0.450000X-0.350000X-0.450000X0.350000X-0.450000X0*%
%TD*%
%TA.AperFunction,SMDPad,CuDef*%
%ADD19RoundRect,0.100000X-0.100000X0.130000X-0.100000X-0.130000X0.100000X-0.130000X0.100000X0.130000X0*%
%TD*%
%TA.AperFunction,SMDPad,CuDef*%
%ADD20RoundRect,0.155000X-0.155000X0.212500X-0.155000X-0.212500X0.155000X-0.212500X0.155000X0.212500X0*%
%TD*%
%TA.AperFunction,SMDPad,CuDef*%
%ADD21R,0.600000X0.700000*%
%TD*%
%TA.AperFunction,SMDPad,CuDef*%
%ADD22RoundRect,0.150000X-0.512500X-0.150000X0.512500X-0.150000X0.512500X0.150000X-0.512500X0.150000X0*%
%TD*%
%TA.AperFunction,SMDPad,CuDef*%
%ADD23RoundRect,0.160000X-0.160000X0.197500X-0.160000X-0.197500X0.160000X-0.197500X0.160000X0.197500X0*%
%TD*%
%TA.AperFunction,SMDPad,CuDef*%
%ADD24RoundRect,0.237500X-0.237500X0.300000X-0.237500X-0.300000X0.237500X-0.300000X0.237500X0.300000X0*%
%TD*%
%TA.AperFunction,ComponentPad*%
%ADD25R,1.700000X1.700000*%
%TD*%
%TA.AperFunction,ComponentPad*%
%ADD26O,1.700000X1.700000*%
%TD*%
%TA.AperFunction,SMDPad,CuDef*%
%ADD27RoundRect,0.100000X0.100000X-0.130000X0.100000X0.130000X-0.100000X0.130000X-0.100000X-0.130000X0*%
%TD*%
%TA.AperFunction,SMDPad,CuDef*%
%ADD28RoundRect,0.250000X0.625000X-0.312500X0.625000X0.312500X-0.625000X0.312500X-0.625000X-0.312500X0*%
%TD*%
%TA.AperFunction,SMDPad,CuDef*%
%ADD29RoundRect,0.100000X0.100000X-0.637500X0.100000X0.637500X-0.100000X0.637500X-0.100000X-0.637500X0*%
%TD*%
%TA.AperFunction,SMDPad,CuDef*%
%ADD30R,2.000000X1.500000*%
%TD*%
%TA.AperFunction,SMDPad,CuDef*%
%ADD31RoundRect,0.500000X-0.500000X-1.400000X0.500000X-1.400000X0.500000X1.400000X-0.500000X1.400000X0*%
%TD*%
%TA.AperFunction,SMDPad,CuDef*%
%ADD32R,2.500000X0.500000*%
%TD*%
%TA.AperFunction,ComponentPad*%
%ADD33C,1.000000*%
%TD*%
%TA.AperFunction,SMDPad,CuDef*%
%ADD34RoundRect,0.500000X-0.750000X0.500000X-0.750000X-0.500000X0.750000X-0.500000X0.750000X0.500000X0*%
%TD*%
%TA.AperFunction,SMDPad,CuDef*%
%ADD35RoundRect,0.100000X-0.637500X-0.100000X0.637500X-0.100000X0.637500X0.100000X-0.637500X0.100000X0*%
%TD*%
%TA.AperFunction,SMDPad,CuDef*%
%ADD36RoundRect,0.250000X-0.475000X0.337500X-0.475000X-0.337500X0.475000X-0.337500X0.475000X0.337500X0*%
%TD*%
%TA.AperFunction,ComponentPad*%
%ADD37C,1.500000*%
%TD*%
%TA.AperFunction,ViaPad*%
%ADD38C,0.800000*%
%TD*%
%TA.AperFunction,ViaPad*%
%ADD39C,1.000000*%
%TD*%
%TA.AperFunction,Conductor*%
%ADD40C,0.200000*%
%TD*%
%TA.AperFunction,Conductor*%
%ADD41C,0.300000*%
%TD*%
%TA.AperFunction,Conductor*%
%ADD42C,0.100000*%
%TD*%
%TA.AperFunction,Conductor*%
%ADD43C,0.500000*%
%TD*%
G04 APERTURE END LIST*
D10*
%TO.P,U5,1,TEMP*%
%TO.N,unconnected-(U5-Pad1)*%
X29529000Y-19685000D03*
%TO.P,U5,2,PROG*%
%TO.N,unconnected-(U5-Pad2)*%
X29529000Y-20955000D03*
%TO.P,U5,3,GND*%
%TO.N,unconnected-(U5-Pad3)*%
X29529000Y-22225000D03*
%TO.P,U5,4,VCC*%
%TO.N,unconnected-(U5-Pad4)*%
X29529000Y-23495000D03*
%TO.P,U5,5,BAT*%
%TO.N,unconnected-(U5-Pad5)*%
X34479000Y-23495000D03*
%TO.P,U5,6,~{STDBY}*%
%TO.N,unconnected-(U5-Pad6)*%
X34479000Y-22225000D03*
%TO.P,U5,7,~{CHRG}*%
%TO.N,unconnected-(U5-Pad7)*%
X34479000Y-20955000D03*
%TO.P,U5,8,CE*%
%TO.N,unconnected-(U5-Pad8)*%
X34479000Y-19685000D03*
D11*
%TO.P,U5,9,EP*%
%TO.N,unconnected-(U5-Pad9)*%
X32004000Y-21590000D03*
%TD*%
D12*
%TO.P,U2,1,GND*%
%TO.N,GND*%
X18176600Y-23170600D03*
%TO.P,U2,2,TXD*%
%TO.N,/TxD*%
X18176600Y-21900600D03*
%TO.P,U2,3,RXD*%
%TO.N,/RxD*%
X18176600Y-20630600D03*
%TO.P,U2,4,V3*%
%TO.N,/VCC3*%
X18176600Y-19360600D03*
%TO.P,U2,5,UD+*%
%TO.N,/D+*%
X18176600Y-18090600D03*
%TO.P,U2,6,UD-*%
%TO.N,/D-*%
X18176600Y-16820600D03*
%TO.P,U2,7,NC*%
%TO.N,unconnected-(U2-Pad7)*%
X18176600Y-15550600D03*
%TO.P,U2,8,NC*%
%TO.N,unconnected-(U2-Pad8)*%
X18176600Y-14280600D03*
%TO.P,U2,9,~{CTS}*%
%TO.N,unconnected-(U2-Pad9)*%
X13226600Y-14280600D03*
%TO.P,U2,10,~{DSR}*%
%TO.N,unconnected-(U2-Pad10)*%
X13226600Y-15550600D03*
%TO.P,U2,11,~{RI}*%
%TO.N,unconnected-(U2-Pad11)*%
X13226600Y-16820600D03*
%TO.P,U2,12,~{DCD}*%
%TO.N,unconnected-(U2-Pad12)*%
X13226600Y-18090600D03*
%TO.P,U2,13,~{DTR}*%
%TO.N,unconnected-(U2-Pad13)*%
X13226600Y-19360600D03*
%TO.P,U2,14,~{RTS}*%
%TO.N,unconnected-(U2-Pad14)*%
X13226600Y-20630600D03*
%TO.P,U2,15,R232*%
%TO.N,unconnected-(U2-Pad15)*%
X13226600Y-21900600D03*
%TO.P,U2,16,VCC*%
%TO.N,/VCC5*%
X13226600Y-23170600D03*
%TD*%
D13*
%TO.P,C12,1*%
%TO.N,GND*%
X28537500Y-7620000D03*
%TO.P,C12,2*%
%TO.N,/X-*%
X27342500Y-7620000D03*
%TD*%
D14*
%TO.P,C13,1*%
%TO.N,GND*%
X24548500Y-7636000D03*
%TO.P,C13,2*%
%TO.N,/X+*%
X25743500Y-7636000D03*
%TD*%
D15*
%TO.P,C6,1*%
%TO.N,/VCC3*%
X21844000Y-9741500D03*
%TO.P,C6,2*%
%TO.N,GND*%
X21844000Y-8546500D03*
%TD*%
%TO.P,C10,1*%
%TO.N,GND*%
X23114000Y-19139500D03*
%TO.P,C10,2*%
%TO.N,/VCC3*%
X23114000Y-17944500D03*
%TD*%
D16*
%TO.P,C1,1*%
%TO.N,/VCC5*%
X10452500Y-5588000D03*
%TO.P,C1,2*%
%TO.N,GND*%
X7327500Y-5588000D03*
%TD*%
D17*
%TO.P,R3,1*%
%TO.N,/BAT+*%
X35814000Y-17510000D03*
%TO.P,R3,2*%
%TO.N,/VDCK*%
X35814000Y-15510000D03*
%TD*%
D18*
%TO.P,C9,1*%
%TO.N,/S1*%
X40370000Y-15240000D03*
%TO.P,C9,2*%
%TO.N,/VDCK*%
X38370000Y-15240000D03*
%TD*%
D19*
%TO.P,R1,1*%
%TO.N,/VCC3*%
X21844000Y-10610000D03*
%TO.P,R1,2*%
%TO.N,/VDDA*%
X21844000Y-11250000D03*
%TD*%
D13*
%TO.P,C8,1*%
%TO.N,GND*%
X18123500Y-3048000D03*
%TO.P,C8,2*%
%TO.N,/VCC3U*%
X16928500Y-3048000D03*
%TD*%
D20*
%TO.P,C5,1*%
%TO.N,/VCC3*%
X31428800Y-11624500D03*
%TO.P,C5,2*%
%TO.N,GND*%
X31428800Y-12759500D03*
%TD*%
D21*
%TO.P,D1,1,K*%
%TO.N,/VCC3*%
X19242000Y-11684000D03*
%TO.P,D1,2,A*%
%TO.N,/VCC3U*%
X17842000Y-11684000D03*
%TD*%
D22*
%TO.P,U4,1,VM*%
%TO.N,/VM*%
X40264500Y-9972000D03*
%TO.P,U4,2,VDD*%
%TO.N,/VDCK*%
X40264500Y-10922000D03*
%TO.P,U4,3,VSS*%
%TO.N,/S1*%
X40264500Y-11872000D03*
%TO.P,U4,4,DO*%
%TO.N,/G+*%
X42539500Y-11872000D03*
%TO.P,U4,5,CO*%
%TO.N,/G-*%
X42539500Y-9972000D03*
%TD*%
D21*
%TO.P,D2,1,K*%
%TO.N,/VCC3*%
X24446000Y-18034000D03*
%TO.P,D2,2,A*%
%TO.N,/BAT+*%
X25846000Y-18034000D03*
%TD*%
D23*
%TO.P,C11,1*%
%TO.N,/VCC5*%
X9398000Y-22770500D03*
%TO.P,C11,2*%
%TO.N,GND*%
X9398000Y-23965500D03*
%TD*%
D24*
%TO.P,C3,1*%
%TO.N,/VCC3*%
X21844000Y-17272000D03*
%TO.P,C3,2*%
%TO.N,GND*%
X21844000Y-18997000D03*
%TD*%
D16*
%TO.P,C2,1*%
%TO.N,/VCC3U*%
X15024500Y-2794000D03*
%TO.P,C2,2*%
%TO.N,GND*%
X11899500Y-2794000D03*
%TD*%
D25*
%TO.P,J1,1,Pin_1*%
%TO.N,GND*%
X33030000Y-6407000D03*
D26*
%TO.P,J1,2,Pin_2*%
%TO.N,/SWCLK*%
X35570000Y-6407000D03*
%TO.P,J1,3,Pin_3*%
%TO.N,/SWDIO*%
X38110000Y-6407000D03*
%TO.P,J1,4,Pin_4*%
%TO.N,/VCC3*%
X40650000Y-6407000D03*
%TD*%
D27*
%TO.P,JP1,1,A*%
%TO.N,GND*%
X11326000Y-14193200D03*
%TO.P,JP1,2,B*%
%TO.N,/ID*%
X11326000Y-13553200D03*
%TD*%
D28*
%TO.P,F1,1*%
%TO.N,Net-(BT1-Pad1)*%
X42926000Y-21142500D03*
%TO.P,F1,2*%
%TO.N,/S1*%
X42926000Y-18217500D03*
%TD*%
D13*
%TO.P,R2,1*%
%TO.N,/VM*%
X33871500Y-12954000D03*
%TO.P,R2,2*%
%TO.N,GND*%
X32676500Y-12954000D03*
%TD*%
D29*
%TO.P,Q1,1*%
%TO.N,/D12*%
X44166000Y-13716000D03*
%TO.P,Q1,2*%
%TO.N,/S1*%
X44816000Y-13716000D03*
%TO.P,Q1,3*%
X45466000Y-13716000D03*
%TO.P,Q1,4*%
%TO.N,/G+*%
X46116000Y-13716000D03*
%TO.P,Q1,5*%
%TO.N,/G-*%
X46116000Y-7991000D03*
%TO.P,Q1,6*%
%TO.N,GND*%
X45466000Y-7991000D03*
%TO.P,Q1,7*%
X44816000Y-7991000D03*
%TO.P,Q1,8*%
%TO.N,/D12*%
X44166000Y-7991000D03*
%TD*%
D30*
%TO.P,U1,1,GND*%
%TO.N,GND*%
X13415200Y-5046400D03*
%TO.P,U1,2,VO*%
%TO.N,/VCC3U*%
X13415200Y-7346400D03*
D31*
X19715200Y-7346400D03*
D30*
%TO.P,U1,3,VI*%
%TO.N,/VCC5*%
X13415200Y-9646400D03*
%TD*%
D32*
%TO.P,USB1,1,VBUS*%
%TO.N,/VCC5*%
X8899200Y-11100000D03*
%TO.P,USB1,2,D-*%
%TO.N,/D-*%
X8899200Y-11900000D03*
%TO.P,USB1,3,D+*%
%TO.N,/D+*%
X8899200Y-12700000D03*
%TO.P,USB1,4,ID*%
%TO.N,/ID*%
X8899200Y-13500000D03*
%TO.P,USB1,5,GND*%
%TO.N,GND*%
X8899200Y-14300000D03*
D33*
%TO.P,USB1,6,Shield*%
X6299200Y-7620000D03*
D34*
X8899200Y-8300000D03*
X3399200Y-17100000D03*
D33*
X1219200Y-7620000D03*
D34*
X8899200Y-17100000D03*
X3399200Y-8300000D03*
D33*
X1219200Y-17780000D03*
X6299200Y-17780000D03*
%TD*%
D35*
%TO.P,U3,1,BOOT0*%
%TO.N,unconnected-(U3-Pad1)*%
X23502700Y-8708200D03*
%TO.P,U3,2,PF0*%
%TO.N,/X+*%
X23502700Y-9358200D03*
%TO.P,U3,3,PF1*%
%TO.N,/X-*%
X23502700Y-10008200D03*
%TO.P,U3,4,NRST*%
%TO.N,/RST*%
X23502700Y-10658200D03*
%TO.P,U3,5,VDDA*%
%TO.N,/VDDA*%
X23502700Y-11308200D03*
%TO.P,U3,6,PA0*%
%TO.N,/A0*%
X23502700Y-11958200D03*
%TO.P,U3,7,PA1*%
%TO.N,/A1*%
X23502700Y-12608200D03*
%TO.P,U3,8,PA2*%
%TO.N,/TxD*%
X23502700Y-13258200D03*
%TO.P,U3,9,PA3*%
%TO.N,/RxD*%
X23502700Y-13908200D03*
%TO.P,U3,10,PA4*%
%TO.N,/LED*%
X23502700Y-14558200D03*
%TO.P,U3,11,PA5*%
%TO.N,/SCK*%
X29227700Y-14558200D03*
%TO.P,U3,12,PA6*%
%TO.N,/MISO*%
X29227700Y-13908200D03*
%TO.P,U3,13,PA7*%
%TO.N,/MOSI*%
X29227700Y-13258200D03*
%TO.P,U3,14,PB1*%
%TO.N,unconnected-(U3-Pad14)*%
X29227700Y-12608200D03*
%TO.P,U3,15,VSS*%
%TO.N,GND*%
X29227700Y-11958200D03*
%TO.P,U3,16,VDD*%
%TO.N,/VCC3*%
X29227700Y-11308200D03*
%TO.P,U3,17,PA9*%
%TO.N,/SCL*%
X29227700Y-10658200D03*
%TO.P,U3,18,PA10*%
%TO.N,/SDA*%
X29227700Y-10008200D03*
%TO.P,U3,19,PA13*%
%TO.N,/SWDIO*%
X29227700Y-9358200D03*
%TO.P,U3,20,PA14*%
%TO.N,/SWCLK*%
X29227700Y-8708200D03*
%TD*%
D19*
%TO.P,JP2,1,A*%
%TO.N,/RST*%
X25400000Y-15428000D03*
%TO.P,JP2,2,B*%
%TO.N,/VCC3*%
X25400000Y-16068000D03*
%TD*%
D13*
%TO.P,C7,1*%
%TO.N,/VCC5*%
X10249500Y-3968000D03*
%TO.P,C7,2*%
%TO.N,GND*%
X9054500Y-3968000D03*
%TD*%
D36*
%TO.P,C4,1*%
%TO.N,/VCC5*%
X11023600Y-22330500D03*
%TO.P,C4,2*%
%TO.N,GND*%
X11023600Y-24405500D03*
%TD*%
D13*
%TO.P,C14,1*%
%TO.N,GND*%
X26251500Y-17018000D03*
%TO.P,C14,2*%
%TO.N,/RST*%
X25056500Y-17018000D03*
%TD*%
D37*
%TO.P,XTAL1,1,1*%
%TO.N,/X-*%
X28219400Y-4114800D03*
%TO.P,XTAL1,2,2*%
%TO.N,/X+*%
X23339400Y-4114800D03*
%TD*%
D25*
%TO.P,BT1,1,-*%
%TO.N,Net-(BT1-Pad1)*%
X40005000Y-20955000D03*
D26*
%TO.P,BT1,2,+*%
%TO.N,/BAT+*%
X40005000Y-18415000D03*
%TD*%
D38*
%TO.N,/VCC5*%
X11226800Y-9652000D03*
X10922000Y-20574000D03*
%TO.N,/VCC3*%
X20828000Y-11430000D03*
%TO.N,/D12*%
X42672000Y-8636000D03*
X42672000Y-13208000D03*
%TO.N,GND*%
X31496000Y-13970000D03*
D39*
X23164800Y-6807200D03*
X29768800Y-6807200D03*
X28549600Y-1219200D03*
X22885400Y-1193800D03*
D38*
X31242000Y-6858000D03*
%TO.N,/VCC3U*%
X16764000Y-11938000D03*
%TO.N,/BAT+*%
X26670000Y-18034000D03*
X29210000Y-17780000D03*
%TO.N,/TxD*%
X21844000Y-12700000D03*
X20574000Y-21844000D03*
%TO.N,/RxD*%
X21844000Y-13970000D03*
X20574000Y-20574000D03*
%TO.N,/SCL*%
X34036000Y-10922000D03*
%TO.N,/SDA*%
X35306000Y-10160000D03*
%TO.N,/RST*%
X21844000Y-15240000D03*
X23876000Y-17018000D03*
%TD*%
D40*
%TO.N,*%
X5232400Y-21590000D02*
X5232400Y-24638000D01*
D41*
X19405600Y-22535600D02*
X16357600Y-22535600D01*
D40*
X2950800Y-21722800D02*
X2950800Y-24770800D01*
X5740400Y-21590000D02*
X5740400Y-24638000D01*
D41*
X3865200Y-19741600D02*
X817200Y-19741600D01*
X3865200Y-20351200D02*
X817200Y-20351200D01*
D42*
X27834000Y-14243600D02*
X30628000Y-14243600D01*
D40*
X6248400Y-21590000D02*
X6248400Y-24638000D01*
D41*
X3865200Y-20960800D02*
X817200Y-20960800D01*
D40*
X2138000Y-21722800D02*
X2138000Y-24770800D01*
X4216400Y-21590000D02*
X4216400Y-24638000D01*
X1731600Y-21722800D02*
X1731600Y-24770800D01*
X4724400Y-21590000D02*
X4724400Y-24638000D01*
X2544400Y-21722800D02*
X2544400Y-24770800D01*
X918800Y-21722800D02*
X918800Y-24770800D01*
X6756400Y-21590000D02*
X6756400Y-24638000D01*
X19405600Y-21265600D02*
X16357600Y-21265600D01*
X1325200Y-21722800D02*
X1325200Y-24770800D01*
D41*
X3865200Y-19132000D02*
X817200Y-19132000D01*
D43*
%TO.N,/VCC5*%
X11372200Y-9646400D02*
X13415200Y-9646400D01*
X11231200Y-6366700D02*
X11231200Y-9505400D01*
X11023600Y-22330500D02*
X11023600Y-20675600D01*
X10452500Y-5588000D02*
X11231200Y-6366700D01*
X10922000Y-22228900D02*
X11023600Y-22330500D01*
D41*
X10249500Y-3968000D02*
X10249500Y-5385000D01*
D43*
X10490000Y-11100000D02*
X11226800Y-10363200D01*
X11023600Y-20675600D02*
X10922000Y-20574000D01*
X8899200Y-11100000D02*
X10490000Y-11100000D01*
X11226800Y-10363200D02*
X11226800Y-9652000D01*
X13226600Y-23170600D02*
X11863700Y-23170600D01*
X13208000Y-23189200D02*
X13226600Y-23170600D01*
X11231200Y-9505400D02*
X11372200Y-9646400D01*
D41*
X9673500Y-22330500D02*
X11023600Y-22330500D01*
D43*
X11863700Y-23170600D02*
X11023600Y-22330500D01*
D41*
X10249500Y-5385000D02*
X10452500Y-5588000D01*
D43*
X11125200Y-22228900D02*
X11023600Y-22330500D01*
D41*
X9398000Y-22606000D02*
X9673500Y-22330500D01*
X9398000Y-22770500D02*
X9398000Y-22606000D01*
X13226600Y-23170600D02*
X12044300Y-23170600D01*
%TO.N,/D-*%
X14776000Y-11880400D02*
X9005200Y-11880400D01*
X18176600Y-16820600D02*
X16769800Y-16820600D01*
X16002000Y-16052800D02*
X16002000Y-13106400D01*
X16769800Y-16820600D02*
X16002000Y-16052800D01*
X16002000Y-13106400D02*
X14776000Y-11880400D01*
%TO.N,/D+*%
X9005200Y-12680400D02*
X14210534Y-12680400D01*
X16261800Y-18090600D02*
X18176600Y-18090600D01*
X15054075Y-16882875D02*
X16261800Y-18090600D01*
X15054075Y-13523941D02*
X15054075Y-16882875D01*
X14210534Y-12680400D02*
X15054075Y-13523941D01*
%TO.N,/VCC3*%
X27299800Y-11308200D02*
X26924000Y-11684000D01*
D43*
X19862800Y-19354800D02*
X18182400Y-19354800D01*
X21530500Y-9711500D02*
X21844000Y-9711500D01*
X20828000Y-11430000D02*
X20828000Y-16002000D01*
D41*
X21844000Y-9711500D02*
X21844000Y-10570000D01*
D43*
X23114000Y-17780000D02*
X22606000Y-17272000D01*
X21844000Y-17272000D02*
X20828000Y-17272000D01*
D41*
X18170800Y-19354800D02*
X18176600Y-19360600D01*
D43*
X22606000Y-17272000D02*
X21844000Y-17272000D01*
X35119000Y-11938000D02*
X33020000Y-11938000D01*
X23114000Y-17944500D02*
X23114000Y-17780000D01*
X40650000Y-6407000D02*
X35119000Y-11938000D01*
D41*
X26924000Y-14986000D02*
X25766000Y-16144000D01*
D43*
X20828000Y-16002000D02*
X20828000Y-17272000D01*
D41*
X26924000Y-11684000D02*
X26924000Y-14986000D01*
D43*
X20828000Y-10414000D02*
X21530500Y-9711500D01*
X24446000Y-18034000D02*
X23203500Y-18034000D01*
X32706500Y-11624500D02*
X31428800Y-11624500D01*
X23203500Y-18034000D02*
X23114000Y-17944500D01*
D41*
X25766000Y-16144000D02*
X20970000Y-16144000D01*
X31112500Y-11308200D02*
X31428800Y-11624500D01*
X29227700Y-11308200D02*
X31112500Y-11308200D01*
D43*
X18182400Y-19354800D02*
X18176600Y-19360600D01*
X20574000Y-11684000D02*
X20828000Y-11430000D01*
X20828000Y-11430000D02*
X20828000Y-10414000D01*
X20828000Y-17272000D02*
X20828000Y-18389600D01*
D41*
X29227700Y-11308200D02*
X27299800Y-11308200D01*
D43*
X20828000Y-18389600D02*
X19862800Y-19354800D01*
D41*
X20970000Y-16144000D02*
X20828000Y-16002000D01*
D43*
X19242000Y-11684000D02*
X20574000Y-11684000D01*
X33020000Y-11938000D02*
X32706500Y-11624500D01*
D41*
%TO.N,/ID*%
X10876000Y-13513200D02*
X11326000Y-13513200D01*
X10862800Y-13500000D02*
X10876000Y-13513200D01*
X8925100Y-13474100D02*
X8899200Y-13500000D01*
X8899200Y-13500000D02*
X10862800Y-13500000D01*
%TO.N,/X+*%
X25908000Y-8636000D02*
X25908000Y-5283200D01*
X25908000Y-5283200D02*
X24739600Y-4114800D01*
X25185800Y-9358200D02*
X25908000Y-8636000D01*
X24739600Y-4114800D02*
X23339400Y-4114800D01*
X23502700Y-9358200D02*
X25185800Y-9358200D01*
%TO.N,/X-*%
X23502700Y-10008200D02*
X26110600Y-10008200D01*
X26110600Y-10008200D02*
X27178000Y-8940800D01*
X27178000Y-8940800D02*
X27178000Y-5156200D01*
X27178000Y-5156200D02*
X28219400Y-4114800D01*
%TO.N,/VDDA*%
X21862200Y-11308200D02*
X21844000Y-11290000D01*
X23502700Y-11308200D02*
X21862200Y-11308200D01*
D43*
%TO.N,/D12*%
X43180000Y-13716000D02*
X44066000Y-13716000D01*
X43317000Y-7991000D02*
X44066000Y-7991000D01*
X42672000Y-8636000D02*
X43317000Y-7991000D01*
X42672000Y-13208000D02*
X43180000Y-13716000D01*
D41*
%TO.N,/S1*%
X44816000Y-13716000D02*
X44816000Y-14874000D01*
X43434000Y-18095500D02*
X43225500Y-18095500D01*
X45466000Y-12448500D02*
X45141000Y-12123500D01*
X42926000Y-15240000D02*
X40370000Y-15240000D01*
X42926000Y-18217500D02*
X42926000Y-15240000D01*
X45141000Y-12123500D02*
X44816000Y-12448500D01*
X40370000Y-15240000D02*
X40370000Y-11977500D01*
X44816000Y-14874000D02*
X44450000Y-15240000D01*
X44450000Y-15240000D02*
X42926000Y-15240000D01*
X40370000Y-11977500D02*
X40264500Y-11872000D01*
X44816000Y-12448500D02*
X44816000Y-13716000D01*
X45466000Y-13716000D02*
X45466000Y-12448500D01*
D43*
%TO.N,GND*%
X27686000Y-18542000D02*
X27686000Y-17018000D01*
X8325200Y-17760400D02*
X9005200Y-17080400D01*
X7366000Y-5549500D02*
X7366000Y-4572000D01*
X18084800Y-1219200D02*
X12496800Y-1219200D01*
D41*
X9398000Y-23965500D02*
X9398000Y-24130000D01*
X23719700Y-6807200D02*
X23164800Y-6807200D01*
X11326000Y-14233200D02*
X11083600Y-14233200D01*
D43*
X12700000Y-5080000D02*
X11899500Y-4279500D01*
X4185200Y-17760400D02*
X3505200Y-17080400D01*
D41*
X30640317Y-12505500D02*
X30093017Y-11958200D01*
X30894317Y-12759500D02*
X30640317Y-12505500D01*
D43*
X6299200Y-16713200D02*
X4978400Y-15392400D01*
X8325200Y-7600400D02*
X9005200Y-8280400D01*
D41*
X31496000Y-14732000D02*
X29718000Y-16510000D01*
D43*
X1325200Y-7600400D02*
X2825200Y-7600400D01*
X6405200Y-17760400D02*
X8325200Y-17760400D01*
X8899200Y-17100000D02*
X8899200Y-14300000D01*
X18186400Y-23926800D02*
X17576800Y-24536400D01*
D41*
X28521500Y-7636000D02*
X29350300Y-6807200D01*
D43*
X44704000Y-5842000D02*
X44704000Y-6604000D01*
X18564108Y-1219200D02*
X18084800Y-1219200D01*
X1325200Y-17760400D02*
X2825200Y-17760400D01*
X2825200Y-17760400D02*
X3505200Y-17080400D01*
X20574000Y-24130000D02*
X18389600Y-24130000D01*
X18186400Y-23926800D02*
X18186400Y-23235600D01*
X6405200Y-7600400D02*
X4185200Y-7600400D01*
D41*
X44816000Y-7991000D02*
X44816000Y-6716000D01*
D43*
X29179200Y-1219200D02*
X33030000Y-5070000D01*
X23164800Y-6807200D02*
X23164800Y-6502400D01*
D41*
X8471500Y-23965500D02*
X8128000Y-23622000D01*
D43*
X22910800Y-1219200D02*
X22885400Y-1193800D01*
X7327500Y-5588000D02*
X7366000Y-5549500D01*
X9054500Y-3968000D02*
X9054500Y-3391500D01*
X2825200Y-7600400D02*
X3505200Y-8280400D01*
X28549600Y-1219200D02*
X26974800Y-1219200D01*
X22300100Y-21844000D02*
X23772200Y-21844000D01*
D41*
X44816000Y-9258500D02*
X44816000Y-7991000D01*
X29718000Y-16510000D02*
X28194000Y-16510000D01*
X23570100Y-21641900D02*
X23772200Y-21844000D01*
X8128000Y-23622000D02*
X8128000Y-19608800D01*
D43*
X9054500Y-3391500D02*
X9671600Y-2774400D01*
D41*
X9398000Y-23965500D02*
X8471500Y-23965500D01*
X30284717Y-12149900D02*
X30093017Y-11958200D01*
D43*
X11899500Y-1816500D02*
X11899500Y-2794000D01*
X22300100Y-21844000D02*
X22300100Y-22403900D01*
X13381600Y-5080000D02*
X12700000Y-5080000D01*
D41*
X45466000Y-9258500D02*
X45141000Y-9583500D01*
D43*
X11583500Y-24536400D02*
X11277600Y-24230500D01*
D41*
X31496000Y-13970000D02*
X31496000Y-12826700D01*
D43*
X4978400Y-10109200D02*
X6299200Y-8788400D01*
X33030000Y-5070000D02*
X34544000Y-3556000D01*
X18186400Y-23235600D02*
X18176600Y-23235600D01*
X7366000Y-4572000D02*
X7970000Y-3968000D01*
X42418000Y-3556000D02*
X44704000Y-5842000D01*
X33030000Y-6407000D02*
X33030000Y-5070000D01*
D41*
X29227700Y-11958200D02*
X30093017Y-11958200D01*
D43*
X11899500Y-4279500D02*
X11899500Y-2794000D01*
D41*
X31496000Y-12826700D02*
X31428800Y-12759500D01*
X29350300Y-6807200D02*
X29768800Y-6807200D01*
D43*
X28549600Y-1219200D02*
X29179200Y-1219200D01*
X22885400Y-1193800D02*
X18589508Y-1193800D01*
X4978400Y-15392400D02*
X4978400Y-10109200D01*
X11879900Y-2774400D02*
X11899500Y-2794000D01*
X20523200Y-3860800D02*
X20523200Y-1320800D01*
X9671600Y-2774400D02*
X11879900Y-2774400D01*
D41*
X9673500Y-24405500D02*
X11023600Y-24405500D01*
D43*
X21986500Y-19139500D02*
X21844000Y-18997000D01*
D41*
X44816000Y-6716000D02*
X44704000Y-6604000D01*
D43*
X6299200Y-17780000D02*
X6299200Y-16713200D01*
X6299200Y-8788400D02*
X6299200Y-7620000D01*
D41*
X23570100Y-21133900D02*
X23570100Y-21641900D01*
D43*
X7970000Y-3968000D02*
X9054500Y-3968000D01*
D41*
X11074400Y-14224000D02*
X8975200Y-14224000D01*
D43*
X26974800Y-1219200D02*
X24688800Y-1219200D01*
D41*
X26251500Y-17018000D02*
X27686000Y-17018000D01*
D43*
X18389600Y-24130000D02*
X18186400Y-23926800D01*
X34544000Y-3556000D02*
X42418000Y-3556000D01*
D41*
X18123500Y-1257900D02*
X18084800Y-1219200D01*
X45466000Y-7991000D02*
X45466000Y-9258500D01*
X18123500Y-3048000D02*
X18123500Y-1257900D01*
D43*
X29768800Y-6807200D02*
X32629800Y-6807200D01*
D41*
X28194000Y-16510000D02*
X27686000Y-17018000D01*
D43*
X24688800Y-1219200D02*
X22910800Y-1219200D01*
D41*
X8128000Y-19608800D02*
X6299200Y-17780000D01*
X45141000Y-9583500D02*
X44816000Y-9258500D01*
D43*
X6405200Y-7600400D02*
X8325200Y-7600400D01*
X6405200Y-17760400D02*
X4185200Y-17760400D01*
X32629800Y-6807200D02*
X33030000Y-6407000D01*
X23114000Y-19139500D02*
X21986500Y-19139500D01*
X23772200Y-21844000D02*
X24384000Y-21844000D01*
X6405200Y-6510300D02*
X7330200Y-5585300D01*
D41*
X32676500Y-12954000D02*
X31623300Y-12954000D01*
D43*
X4185200Y-7600400D02*
X3505200Y-8280400D01*
D41*
X31496000Y-13970000D02*
X31496000Y-14732000D01*
X9398000Y-24130000D02*
X9673500Y-24405500D01*
X24548500Y-7636000D02*
X23719700Y-6807200D01*
D43*
X6405200Y-7600400D02*
X6405200Y-6510300D01*
X18589508Y-1193800D02*
X18564108Y-1219200D01*
X24384000Y-21844000D02*
X27686000Y-18542000D01*
X3399200Y-17100000D02*
X3399200Y-8300000D01*
X13415200Y-5046400D02*
X13381600Y-5080000D01*
X17576800Y-24536400D02*
X11583500Y-24536400D01*
X22300100Y-22403900D02*
X20574000Y-24130000D01*
X21844000Y-8128000D02*
X23164800Y-6807200D01*
X23164800Y-6502400D02*
X20523200Y-3860800D01*
X1219200Y-17780000D02*
X1219200Y-7620000D01*
X13390200Y-5021400D02*
X13415200Y-5046400D01*
X21844000Y-8576500D02*
X21844000Y-8128000D01*
D41*
X11083600Y-14233200D02*
X11074400Y-14224000D01*
D43*
X12496800Y-1219200D02*
X11899500Y-1816500D01*
D41*
X31623300Y-12954000D02*
X31428800Y-12759500D01*
X31428800Y-12759500D02*
X30894317Y-12759500D01*
%TO.N,/G+*%
X43623625Y-11872000D02*
X42477250Y-11872000D01*
X46116000Y-13716000D02*
X46116000Y-11826000D01*
X46116000Y-11826000D02*
X45720000Y-11430000D01*
X44065625Y-11430000D02*
X43623625Y-11872000D01*
X45720000Y-11430000D02*
X44065625Y-11430000D01*
%TO.N,/G-*%
X44196000Y-10414000D02*
X45674000Y-10414000D01*
X46116000Y-9972000D02*
X46116000Y-7991000D01*
X45674000Y-10414000D02*
X46116000Y-9972000D01*
X43754000Y-9972000D02*
X44196000Y-10414000D01*
X42477250Y-9972000D02*
X43754000Y-9972000D01*
%TO.N,/VM*%
X36347000Y-12471000D02*
X36855000Y-11963000D01*
X35864000Y-12954000D02*
X36347000Y-12471000D01*
X36855000Y-11963000D02*
X38633000Y-10185000D01*
X40202250Y-9972000D02*
X38846000Y-9972000D01*
X33871500Y-12954000D02*
X35864000Y-12954000D01*
X38633000Y-10185000D02*
X38846000Y-9972000D01*
%TO.N,/SWCLK*%
X33709800Y-8708200D02*
X29227700Y-8708200D01*
X35570000Y-6848000D02*
X33709800Y-8708200D01*
X35570000Y-6407000D02*
X35570000Y-6848000D01*
%TO.N,/SWDIO*%
X36228500Y-8636000D02*
X38110000Y-6754500D01*
X29227700Y-9358200D02*
X34583800Y-9358200D01*
X38110000Y-6754500D02*
X38110000Y-6407000D01*
X34583800Y-9358200D02*
X35306000Y-8636000D01*
X35306000Y-8636000D02*
X36228500Y-8636000D01*
D43*
%TO.N,/VCC3U*%
X17018000Y-11684000D02*
X16764000Y-11938000D01*
D41*
X16928500Y-3048000D02*
X15278500Y-3048000D01*
D43*
X15982400Y-7346400D02*
X18915200Y-7346400D01*
X17842000Y-11684000D02*
X17018000Y-11684000D01*
X13415200Y-7346400D02*
X15982400Y-7346400D01*
X19715200Y-7346400D02*
X19715200Y-5745200D01*
X16764000Y-9398000D02*
X16764000Y-11938000D01*
X15982400Y-8616400D02*
X15982400Y-7346400D01*
D41*
X15278500Y-3048000D02*
X15024500Y-2794000D01*
D43*
X15024500Y-2794000D02*
X15982400Y-3751900D01*
X15982400Y-3751900D02*
X15982400Y-7346400D01*
X16764000Y-9398000D02*
X15982400Y-8616400D01*
D41*
%TO.N,/VDCK*%
X35830000Y-15494000D02*
X35814000Y-15510000D01*
X39370000Y-10922000D02*
X35814000Y-14478000D01*
X35814000Y-14478000D02*
X35814000Y-15510000D01*
X40202250Y-10922000D02*
X39370000Y-10922000D01*
X38370000Y-15240000D02*
X38116000Y-15494000D01*
D43*
X35814000Y-15510000D02*
X36052000Y-15748000D01*
D41*
X38116000Y-15494000D02*
X35830000Y-15494000D01*
D43*
%TO.N,/BAT+*%
X25846000Y-18034000D02*
X26670000Y-18034000D01*
X40005000Y-18415000D02*
X39624000Y-18034000D01*
X33782000Y-17780000D02*
X29210000Y-17780000D01*
X38100000Y-17780000D02*
X38735000Y-18415000D01*
X38735000Y-18415000D02*
X40005000Y-18415000D01*
X33782000Y-17780000D02*
X38100000Y-17780000D01*
D41*
%TO.N,/TxD*%
X22402200Y-13258200D02*
X21844000Y-12700000D01*
X23502700Y-13258200D02*
X22402200Y-13258200D01*
X18233200Y-21844000D02*
X18176600Y-21900600D01*
X20320000Y-21844000D02*
X18233200Y-21844000D01*
%TO.N,/RxD*%
X21844000Y-13970000D02*
X21905800Y-13908200D01*
X20517400Y-20630600D02*
X20574000Y-20574000D01*
X21905800Y-13908200D02*
X23502700Y-13908200D01*
X18176600Y-20630600D02*
X20517400Y-20630600D01*
%TO.N,Net-(BT1-Pad1)*%
X40192500Y-21142500D02*
X40005000Y-20955000D01*
X42926000Y-21142500D02*
X40192500Y-21142500D01*
%TO.N,/SCL*%
X29227700Y-10658200D02*
X33772200Y-10658200D01*
X33772200Y-10658200D02*
X33782000Y-10668000D01*
X33782000Y-10668000D02*
X34036000Y-10922000D01*
%TO.N,/SDA*%
X35154200Y-10008200D02*
X35306000Y-10160000D01*
X29227700Y-10008200D02*
X35154200Y-10008200D01*
%TO.N,/RST*%
X25056500Y-17018000D02*
X23876000Y-17018000D01*
X24882200Y-10658200D02*
X25400000Y-11176000D01*
X25400000Y-14986000D02*
X25400000Y-15388000D01*
X24892000Y-15494000D02*
X25400000Y-14986000D01*
X23368000Y-15494000D02*
X22352000Y-15494000D01*
X24473500Y-15494000D02*
X23368000Y-15494000D01*
X24473500Y-15494000D02*
X24892000Y-15494000D01*
X25400000Y-11176000D02*
X25400000Y-14986000D01*
X22352000Y-15494000D02*
X22098000Y-15240000D01*
X23502700Y-10658200D02*
X24882200Y-10658200D01*
%TD*%
M02*
