M48
; DRILL file {KiCad 6.0.11+dfsg-1} date Thu 19 Sep 2024 01:58:47 PM +04
; FORMAT={-:-/ absolute / metric / decimal}
; #@! TF.CreationDate,2024-09-19T13:58:47+04:00
; #@! TF.GenerationSoftware,Kicad,Pcbnew,6.0.11+dfsg-1
; #@! TF.FileFunction,Plated,1,2,PTH
FMAT,2
METRIC
; #@! TA.AperFunction,Plated,PTH,ViaDrill
T1C0.500
; #@! TA.AperFunction,Plated,PTH,ComponentDrill
T2C0.500
; #@! TA.AperFunction,Plated,PTH,ComponentDrill
T3C0.800
; #@! TA.AperFunction,Plated,PTH,ComponentDrill
T4C1.000
%
G90
G05
T1
X10.922Y-20.574
X11.227Y-9.652
X16.764Y-11.938
X20.574Y-20.574
X20.574Y-21.844
X20.828Y-11.43
X21.844Y-12.7
X21.844Y-13.97
X21.844Y-15.24
X22.885Y-1.194
X23.165Y-6.807
X23.876Y-17.018
X26.67Y-18.034
X28.55Y-1.219
X29.21Y-17.78
X29.769Y-6.807
X31.242Y-6.858
X31.496Y-13.97
X34.036Y-10.922
X35.306Y-10.16
X42.672Y-8.636
X42.672Y-13.208
T2
X1.219Y-7.62
X1.219Y-17.78
X6.299Y-7.62
X6.299Y-17.78
T3
X23.339Y-4.115
X28.219Y-4.115
T4
X33.03Y-6.407
X35.57Y-6.407
X38.11Y-6.407
X40.005Y-18.415
X40.005Y-20.955
X40.65Y-6.407
T0
M30
